<?xml version="1.0" encoding="UTF-8" standalone="no"?>
<!-- Created with Inkscape (http://www.inkscape.org/) -->

<svg
   width="47.745178mm"
   height="8.4627686mm"
   viewBox="0 0 47.745178 8.4627686"
   version="1.1"
   id="svg5"
   xml:space="preserve"
   xmlns="http://www.w3.org/2000/svg"
   xmlns:svg="http://www.w3.org/2000/svg"><defs
     id="defs2" /><g
     id="layer1"
     transform="translate(652.83589,-942.28745)"><path
       style="fill:#e2e8f0;fill-opacity:1;stroke-width:0.0240528"
       d="m -608.65076,950.72791 c 0,-0.0124 -0.0298,-0.0259 -0.0661,-0.0301 -0.0649,-0.007 -0.0663,-0.011 -0.0731,-0.18918 l -0.007,-0.18158 0.19163,10e-4 c 0.18054,0.001 0.1961,-0.003 0.26862,-0.071 0.0852,-0.0799 0.19103,-0.2933 0.19103,-0.38529 0,-0.0326 -0.15806,-0.44627 -0.35123,-0.91934 -0.19318,-0.47307 -0.35683,-0.87402 -0.36367,-0.89099 -0.01,-0.0243 0.0482,-0.0294 0.27267,-0.024 l 0.28511,0.007 0.13933,0.44498 c 0.0766,0.24474 0.16501,0.54239 0.19639,0.66145 0.0666,0.2529 0.1157,0.29252 0.15815,0.12779 0.0147,-0.0571 0.10497,-0.35809 0.20059,-0.66898 l 0.17385,-0.56524 0.24573,-0.007 c 0.13514,-0.004 0.2457,0.002 0.24568,0.012 0,0.0355 -0.76299,2.04019 -0.8175,2.14811 -0.13451,0.26624 -0.3392,0.46069 -0.52085,0.49477 -0.0444,0.008 -0.0807,0.0248 -0.0807,0.0365 0,0.0117 -0.0649,0.0214 -0.14432,0.0214 -0.0794,0 -0.14432,-0.0101 -0.14432,-0.0225 z m -32.41127,-0.87843 c -0.18144,-0.0466 -0.27806,-0.0954 -0.39805,-0.20102 -0.36192,-0.31858 -0.37472,-1.04457 -0.0246,-1.39281 0.34871,-0.34679 1.05153,-0.3624 1.42815,-0.0317 0.11566,0.10155 0.22605,0.32276 0.25665,0.51427 0.067,0.41917 -0.10224,0.83002 -0.4171,1.01282 -0.21325,0.1238 -0.58007,0.16654 -0.84508,0.0985 z m 0.54365,-0.40492 c 0.12609,-0.0849 0.19246,-0.2277 0.20744,-0.44622 0.0284,-0.41412 -0.12705,-0.62921 -0.45473,-0.62921 -0.26346,0 -0.42743,0.18123 -0.44755,0.49465 -0.0193,0.30006 0.0729,0.52658 0.2445,0.60128 0.12505,0.0544 0.35462,0.044 0.45034,-0.0205 z m 2.73957,0.41164 c -0.12747,-0.0362 -0.24056,-0.13445 -0.29676,-0.25777 -0.045,-0.0987 -0.0519,-0.16991 -0.0633,-0.65203 l -0.0128,-0.54119 -0.1383,-0.007 -0.1383,-0.007 v -0.178 -0.178 l 0.1383,-0.007 0.1383,-0.007 0.012,-0.20335 0.012,-0.20335 0.2285,-0.0667 c 0.12568,-0.0367 0.23663,-0.0669 0.24655,-0.0672 0.01,-2.7e-4 0.018,0.0962 0.018,0.21438 0,0.1182 0.0106,0.24268 0.0234,0.27661 0.0225,0.0592 0.0313,0.0617 0.21753,0.0617 h 0.19408 l -0.007,0.17438 -0.007,0.17439 -0.1804,0.007 c -0.13422,0.005 -0.18809,0.017 -0.21046,0.0467 -0.0205,0.0272 -0.03,0.13987 -0.0299,0.35403 2.7e-4,0.59599 0.0491,0.71097 0.30186,0.71097 h 0.13096 v 0.16724 0.16724 l -0.0902,0.025 c -0.11107,0.0308 -0.37374,0.0293 -0.48706,-0.003 z m 1.46184,-0.006 c -0.15541,-0.0451 -0.30928,-0.13907 -0.40368,-0.24658 -0.29568,-0.33676 -0.27534,-0.98987 0.0415,-1.33242 0.22649,-0.24488 0.58769,-0.34558 0.90681,-0.25281 0.37299,0.10843 0.54187,0.34897 0.56233,0.80094 l 0.0111,0.24611 -0.59844,0.006 -0.59844,0.006 -0.007,0.085 c -0.009,0.11253 0.0732,0.23388 0.21254,0.31184 0.093,0.0521 0.13611,0.0599 0.32378,0.0587 0.1539,-10e-4 0.25673,-0.0156 0.35576,-0.0506 l 0.13929,-0.0493 -0.007,0.16876 -0.007,0.16877 -0.13229,0.0459 c -0.17482,0.0607 -0.63757,0.0797 -0.79914,0.0329 z m 0.62589,-1.11108 c 0.0278,-0.0496 -10e-4,-0.20674 -0.0522,-0.28486 -0.10157,-0.15502 -0.33255,-0.19071 -0.48445,-0.0748 -0.12766,0.0974 -0.22412,0.32213 -0.16404,0.38222 0.009,0.009 0.16523,0.016 0.34757,0.016 0.2791,0 0.33495,-0.006 0.35311,-0.0385 z m 5.5557,1.11099 c -0.23933,-0.0692 -0.43654,-0.23224 -0.52621,-0.43495 -0.112,-0.25319 -0.11142,-0.64848 0.001,-0.91151 0.0711,-0.16579 0.26297,-0.35655 0.44074,-0.43811 0.13131,-0.0602 0.1777,-0.0687 0.37817,-0.0685 0.24566,9e-5 0.37776,0.041 0.54534,0.16885 0.16862,0.12861 0.27169,0.39886 0.27217,0.71362 l 2.7e-4,0.18599 -0.59531,0.006 -0.59531,0.006 -0.007,0.0849 c -0.009,0.11253 0.0732,0.23388 0.21253,0.31184 0.093,0.0521 0.13613,0.0599 0.32378,0.0587 0.15853,-0.001 0.25378,-0.0151 0.35581,-0.0526 l 0.13933,-0.0512 -0.007,0.17202 -0.007,0.17201 -0.14432,0.0452 c -0.18932,0.0593 -0.62916,0.0765 -0.7871,0.0309 z m 0.62589,-1.11099 c 0.0493,-0.0881 -0.0355,-0.30932 -0.14579,-0.38019 -0.10945,-0.0703 -0.30285,-0.0583 -0.40176,0.0249 -0.1215,0.10223 -0.2101,0.32084 -0.15313,0.37781 0.009,0.009 0.16523,0.016 0.34758,0.016 0.27909,0 0.33494,-0.006 0.3531,-0.0385 z m 0.97902,1.11171 c -0.0794,-0.0157 -0.15785,-0.0369 -0.17439,-0.0472 -0.0198,-0.0122 -0.0301,-0.0809 -0.0301,-0.20017 0,-0.16306 0.004,-0.17989 0.0421,-0.16528 0.24347,0.0941 0.33997,0.11321 0.53109,0.10536 0.18519,-0.008 0.20516,-0.0134 0.25873,-0.0757 0.12496,-0.14528 0.0457,-0.24632 -0.28693,-0.36553 -0.4001,-0.14342 -0.52847,-0.27131 -0.53107,-0.5291 -0.002,-0.17355 0.0236,-0.24212 0.13346,-0.36132 0.12053,-0.13075 0.29472,-0.20056 0.54947,-0.22021 0.19038,-0.0147 0.49249,0.0234 0.54745,0.069 0.0295,0.0245 0.045,0.30961 0.0182,0.33636 -0.007,0.007 -0.069,-0.007 -0.1383,-0.0313 -0.14618,-0.0505 -0.41159,-0.0581 -0.49814,-0.0143 -0.0327,0.0165 -0.0755,0.0587 -0.0951,0.0936 -0.073,0.13002 0.0175,0.20607 0.42795,0.35952 0.18461,0.069 0.3502,0.20735 0.38902,0.32498 0.0434,0.13147 0.0191,0.34907 -0.0505,0.4526 -0.16771,0.24944 -0.62375,0.36154 -1.09303,0.26868 z m 4.72071,0.0108 c -0.11613,-0.0375 -0.23098,-0.1219 -0.28512,-0.20949 -0.0732,-0.11836 -0.0911,-0.37935 -0.036,-0.52366 0.0896,-0.23464 0.26346,-0.32705 0.74541,-0.39622 0.20213,-0.029 0.34211,-0.0604 0.35378,-0.0793 0.0463,-0.075 -0.0373,-0.23949 -0.15202,-0.2988 -0.116,-0.06 -0.4436,-0.0351 -0.62942,0.0478 -0.0777,0.0347 -0.15077,0.063 -0.16235,0.063 -0.0116,0 -0.0211,-0.0701 -0.0211,-0.15579 0,-0.1352 0.007,-0.1604 0.0541,-0.19066 0.11282,-0.0727 0.36158,-0.12033 0.63138,-0.12095 0.22735,-5.3e-4 0.2825,0.007 0.39191,0.0564 0.0727,0.0325 0.16339,0.0992 0.21135,0.15519 0.14588,0.17042 0.16436,0.28092 0.16546,0.98941 l 10e-4,0.62537 -0.23452,0.007 -0.23451,0.007 v -0.0805 c 0,-0.0443 -0.0145,-0.10034 -0.0323,-0.12464 -0.0304,-0.0415 -0.0372,-0.0388 -0.11425,0.046 -0.0451,0.0496 -0.12524,0.11233 -0.17816,0.1394 -0.10656,0.0545 -0.36685,0.0784 -0.47471,0.0435 z m 0.51482,-0.339 c 0.16417,-0.0456 0.29889,-0.2689 0.27999,-0.46404 l -0.007,-0.0764 -0.19617,0.004 c -0.3098,0.006 -0.48934,0.11502 -0.48934,0.29678 0,0.0862 0.0717,0.19452 0.15189,0.22938 0.0928,0.0404 0.14561,0.0425 0.26104,0.0104 z m 1.34916,0.32666 c -0.0826,-0.0188 -0.16103,-0.041 -0.17438,-0.0492 -0.0133,-0.008 -0.0243,-0.0968 -0.0243,-0.19679 0,-0.16231 0.004,-0.18031 0.0421,-0.16807 0.0232,0.008 0.10692,0.0369 0.18615,0.0652 0.2054,0.0734 0.50933,0.0615 0.59966,-0.0234 0.0778,-0.0731 0.0803,-0.16868 0.006,-0.23824 -0.0307,-0.0288 -0.14703,-0.0856 -0.25857,-0.12631 -0.3053,-0.11131 -0.42599,-0.18485 -0.49413,-0.30112 -0.067,-0.11443 -0.0817,-0.30822 -0.0342,-0.45222 0.0372,-0.11276 0.21392,-0.26557 0.3695,-0.31953 0.14921,-0.0517 0.59592,-0.0587 0.75576,-0.0117 l 0.10222,0.03 v 0.16744 c 0,0.18759 0.002,0.18587 -0.17821,0.1311 -0.33273,-0.10094 -0.64761,0.0111 -0.56842,0.20231 0.0336,0.081 0.10397,0.12336 0.36173,0.21743 0.36529,0.13331 0.48111,0.259 0.48111,0.52206 0,0.25303 -0.12208,0.41545 -0.38943,0.51815 -0.16749,0.0643 -0.57048,0.0812 -0.78293,0.0328 z m 8.40025,0.007 c -0.22047,-0.0815 -0.33382,-0.25591 -0.33382,-0.51363 0,-0.38541 0.20353,-0.54105 0.80286,-0.61397 0.1389,-0.0169 0.27149,-0.0403 0.29464,-0.052 0.0536,-0.0271 0.0541,-0.12409 10e-4,-0.21389 -0.11166,-0.18902 -0.44275,-0.19299 -0.87899,-0.0106 -0.0378,0.0158 -0.0421,9e-5 -0.0421,-0.15394 0,-0.16497 0.003,-0.1725 0.0661,-0.19678 0.29708,-0.11337 0.68974,-0.14588 0.91113,-0.0754 0.19836,0.0631 0.3069,0.15136 0.38713,0.31472 l 0.0667,0.13591 0.007,0.67949 0.007,0.67949 h -0.2419 -0.2419 v -0.10682 c 0,-0.0587 -0.0115,-0.11393 -0.0256,-0.12262 -0.0141,-0.009 -0.0655,0.0271 -0.11425,0.0795 -0.0488,0.0524 -0.12656,0.11474 -0.17287,0.13853 -0.10074,0.0517 -0.38904,0.0704 -0.49308,0.032 z m 0.59012,-0.3633 c 0.14386,-0.0726 0.21473,-0.19931 0.21526,-0.38484 l 5.3e-4,-0.13831 h -0.10026 c -0.0551,0 -0.17144,0.0124 -0.25845,0.0276 -0.12604,0.0219 -0.17413,0.0435 -0.23649,0.10584 -0.13358,0.13357 -0.0967,0.33454 0.0751,0.40932 0.10761,0.0468 0.1824,0.042 0.30441,-0.0195 z m 2.51906,0.36835 c -0.22455,-0.0725 -0.35551,-0.26362 -0.35459,-0.51739 10e-4,-0.24581 0.11247,-0.41686 0.33621,-0.51541 0.0595,-0.0262 0.2273,-0.0646 0.37282,-0.0854 0.41241,-0.0588 0.41704,-0.0599 0.43266,-0.10913 0.0228,-0.0718 -0.0494,-0.21174 -0.13656,-0.26489 -0.11672,-0.0712 -0.36571,-0.0657 -0.58474,0.0129 -0.0926,0.0332 -0.18731,0.0667 -0.21046,0.0743 -0.0372,0.0123 -0.0421,-0.004 -0.0421,-0.14466 0,-0.19586 0.0188,-0.21153 0.33886,-0.28246 0.55057,-0.12202 0.9441,0.0214 1.07054,0.39008 0.0387,0.11297 0.0445,0.21113 0.0451,0.76695 l 8e-4,0.6374 -0.23452,0.007 -0.23451,0.007 v -0.0941 c 0,-0.14435 -0.0473,-0.16419 -0.14614,-0.0613 -0.12128,0.12627 -0.24976,0.18372 -0.43114,0.19276 -0.086,0.004 -0.18595,-0.002 -0.22215,-0.0134 z m 0.51482,-0.339 c 0.16444,-0.0457 0.29883,-0.26422 0.28057,-0.45629 l -0.008,-0.0842 -0.19616,0.004 c -0.26025,0.005 -0.40341,0.0655 -0.45643,0.1924 -0.0971,0.23233 0.10941,0.41935 0.38002,0.34419 z m 3.52328,0.33682 c -0.19643,-0.0589 -0.32525,-0.22743 -0.34541,-0.45193 -0.0158,-0.1759 0.024,-0.31999 0.11809,-0.42709 0.12966,-0.14769 0.26924,-0.19706 0.73771,-0.26096 0.13715,-0.0187 0.26124,-0.0459 0.27575,-0.0604 0.0454,-0.0454 -0.0324,-0.2207 -0.1258,-0.28347 -0.14523,-0.0976 -0.4515,-0.0676 -0.77816,0.076 -0.0379,0.0167 -0.0421,10e-4 -0.0421,-0.15365 0,-0.17207 0,-0.1722 0.0794,-0.20536 0.0437,-0.0183 0.17627,-0.0514 0.29464,-0.0737 0.57951,-0.10918 0.97924,0.0866 1.03699,0.50792 0.01,0.0726 0.022,0.0992 0.0353,0.0783 0.0112,-0.0176 0.0204,0.25289 0.0206,0.60558 l 5.3e-4,0.6374 -0.25261,-0.008 -0.2526,-0.008 v -0.10527 c 0,-0.0579 -0.0111,-0.11214 -0.0247,-0.12054 -0.0136,-0.008 -0.0824,0.0375 -0.15303,0.10202 -0.0706,0.0645 -0.17164,0.13026 -0.22463,0.14614 -0.10924,0.0327 -0.29797,0.0347 -0.39983,0.004 z m 0.51721,-0.33671 c 0.17782,-0.0494 0.31025,-0.27675 0.28115,-0.4827 -0.008,-0.0561 -0.0142,-0.0578 -0.20435,-0.054 -0.2583,0.005 -0.40348,0.0657 -0.45544,0.19004 -0.0969,0.23192 0.10994,0.42129 0.37864,0.34666 z m -43.67293,0.27955 c -0.30406,-0.0952 -0.6267,-0.36689 -0.7511,-0.63239 l -0.0654,-0.13964 -0.007,-1.30486 c -0.006,-1.06194 -10e-4,-1.30487 0.0246,-1.30487 0.0173,0 0.53179,0.50109 1.1433,1.11354 1.226,1.22787 1.13921,1.11688 1.08731,1.39058 -0.0753,0.39701 -0.38615,0.74592 -0.77139,0.86582 -0.17116,0.0533 -0.50889,0.0593 -0.66053,0.0118 z m 5.786,-1.24204 v -1.27741 l 0.61936,0.009 c 0.71224,0.0104 0.7965,0.0276 0.99119,0.20267 0.16655,0.14975 0.22611,0.3004 0.22738,0.57521 10e-4,0.19934 -0.006,0.232 -0.0786,0.37987 -0.15148,0.30771 -0.39391,0.43655 -0.90543,0.48118 l -0.31268,0.0273 -0.012,0.43295 -0.012,0.43295 -0.25857,0.007 -0.25857,0.007 z m 1.0814,-0.0707 c 0.31567,-0.16104 0.26183,-0.69797 -0.0795,-0.79307 -0.0549,-0.0153 -0.18108,-0.0245 -0.2803,-0.0205 l -0.18039,0.007 -0.007,0.41914 c -0.005,0.31852 7.9e-4,0.42424 0.024,0.44038 0.0522,0.0362 0.42108,-10e-4 0.52277,-0.0533 z m 3.35536,1.3164 c -0.006,-0.0165 -0.009,-0.62538 -0.005,-1.35297 l 0.006,-1.32291 0.24654,-0.007 0.24655,-0.007 v 1.35983 1.35983 h -0.24129 c -0.17085,0 -0.24464,-0.009 -0.25279,-0.0301 z m 4.54632,7.9e-4 c -0.007,-0.017 -0.009,-0.62622 -0.006,-1.35381 l 0.006,-1.32292 h 0.25256 0.25256 l 0.012,0.86392 c 0.009,0.61126 0.02,0.86655 0.0392,0.87296 0.0149,0.005 0.14885,-0.18084 0.29755,-0.41292 l 0.27036,-0.42197 h 0.30071 c 0.23676,0 0.29583,0.006 0.27778,0.0301 -0.37288,0.48882 -0.55822,0.73781 -0.58021,0.77944 -0.0245,0.0463 0.007,0.099 0.29344,0.49569 0.17645,0.24412 0.32866,0.45654 0.33824,0.47205 0.013,0.0211 -0.0596,0.0265 -0.28954,0.0214 l -0.30695,-0.007 -0.27908,-0.43279 c -0.15349,-0.23804 -0.29738,-0.43632 -0.31974,-0.44063 -0.0368,-0.007 -0.0413,0.034 -0.0472,0.43279 l -0.007,0.44063 -0.24697,0.007 c -0.18412,0.005 -0.24999,-10e-4 -0.25881,-0.024 z m 2.11111,-1.32375 0.006,-1.35298 h 0.24052 0.24053 l 0.012,0.85992 c 0.007,0.47295 0.0201,0.8599 0.0301,0.85989 0.01,-10e-6 0.0276,-2e-5 0.0393,-2e-5 0.0117,0 0.11594,-0.14883 0.23168,-0.33073 0.11574,-0.1819 0.23662,-0.36591 0.26861,-0.4089 l 0.0582,-0.0782 h 0.28741 c 0.15808,0 0.28741,0.005 0.28741,0.0111 0,0.006 -0.13508,0.18739 -0.30017,0.40288 -0.1651,0.2155 -0.3004,0.40923 -0.30066,0.43052 -2.7e-4,0.0213 0.14563,0.2406 0.32422,0.48737 0.1786,0.24678 0.32472,0.45396 0.32472,0.4604 0,0.006 -0.13426,0.0117 -0.29835,0.0117 h -0.29834 l -0.28494,-0.4448 c -0.191,-0.29816 -0.29881,-0.44485 -0.32703,-0.44497 -0.0386,-1.4e-4 -0.0421,0.037 -0.0421,0.4448 v 0.44497 h -0.25276 -0.25275 z m 7.31755,1.32291 c -0.006,-0.0165 -0.014,-0.49549 -0.0173,-1.06434 l -0.006,-1.03428 -0.36079,-0.012 -0.3608,-0.012 -0.007,-0.19844 -0.007,-0.19844 h 1.0112 1.01119 v 0.20445 0.20445 h -0.34395 c -0.23546,0 -0.35307,0.009 -0.37282,0.0289 -0.0216,0.0216 -0.0289,0.29237 -0.0289,1.07035 v 1.04149 h -0.25331 c -0.18061,0 -0.25654,-0.009 -0.26456,-0.0301 z m 4.99171,-0.87192 v -0.90198 h 0.25256 0.25255 v 0.90198 0.90199 h -0.25255 -0.25256 z m 1.08238,-0.45784 v -1.35983 l 0.24654,0.007 0.24655,0.007 0.012,0.8659 c 0.01,0.72304 0.0176,0.86591 0.0459,0.86591 0.0186,0 0.15393,-0.18668 0.30066,-0.41485 l 0.26677,-0.41486 0.29607,-4e-5 c 0.23031,-5e-5 0.29212,0.007 0.2783,0.03 -0.01,0.0165 -0.14571,0.19853 -0.30208,0.40442 -0.15637,0.20589 -0.28431,0.39211 -0.28431,0.41381 0,0.0217 0.14612,0.24049 0.32471,0.4862 0.17859,0.24571 0.32472,0.45187 0.32472,0.45811 0,0.006 -0.13445,0.0113 -0.29878,0.0113 h -0.29877 l -0.28451,-0.44449 c -0.18981,-0.29654 -0.29852,-0.44465 -0.3266,-0.44498 -0.0386,-5.3e-4 -0.0421,0.0366 -0.0421,0.44449 v 0.44498 h -0.25255 -0.25256 v -1.35983 z m 2.0926,0.45784 v -0.90198 h 0.2513 0.2513 l 0.007,0.12438 c 0.004,0.0684 0.02,0.12857 0.0355,0.13368 0.0155,0.005 0.0619,-0.0277 0.103,-0.0729 0.0411,-0.0452 0.13125,-0.11336 0.20028,-0.15148 0.10677,-0.059 0.15245,-0.0693 0.30591,-0.0696 0.21888,-2.7e-4 0.33854,0.0532 0.44498,0.19877 0.0397,0.0543 0.0884,0.0994 0.10823,0.10018 0.0198,7.9e-4 0.0642,-0.0338 0.0986,-0.077 0.0945,-0.11847 0.28885,-0.21406 0.46332,-0.22791 0.27655,-0.022 0.4595,0.0742 0.57202,0.3006 0.055,0.11077 0.0569,0.13405 0.0643,0.82954 l 0.008,0.71558 h -0.25268 -0.25269 l -0.007,-0.61937 c -0.007,-0.56144 -0.0118,-0.62653 -0.0539,-0.69607 -0.10328,-0.17071 -0.35292,-0.2035 -0.49716,-0.0653 -0.12049,0.11544 -0.14193,0.24287 -0.14193,0.84392 v 0.53683 h -0.25107 -0.25108 l -0.007,-0.61937 c -0.007,-0.59449 -0.01,-0.62287 -0.0618,-0.70673 -0.0299,-0.048 -0.0869,-0.10085 -0.12668,-0.11733 -0.11214,-0.0464 -0.27873,-0.0177 -0.36257,0.0627 -0.1205,0.11544 -0.14193,0.24287 -0.14193,0.84392 v 0.53683 h -0.25255 -0.25256 z m 5.46582,-0.45099 0.006,-1.35298 h 0.24053 0.24053 l 0.006,1.35298 0.006,1.35298 h -0.25295 -0.25296 z m -35.67624,0.36445 c -0.14634,-0.0286 -0.3771,-0.14516 -0.48707,-0.24608 l -0.0902,-0.0828 v -1.09236 c 0,-0.81755 0.007,-1.09963 0.0289,-1.12123 0.0317,-0.0317 0.57498,-0.0387 0.65172,-0.008 0.0656,0.0259 0.7913,0.75293 0.91264,0.91435 0.15744,0.20945 0.22073,0.42628 0.20499,0.70231 -0.0102,0.17808 -0.0256,0.24317 -0.0873,0.36851 -0.20728,0.42105 -0.67621,0.65504 -1.13367,0.56571 z m -1.7914,-1.53648 c -0.67867,-0.67882 -0.97765,-0.99337 -0.96052,-1.0105 0.0165,-0.0165 0.35145,-0.0227 0.99754,-0.0186 l 0.97266,0.006 0.006,1.00421 c 0.003,0.55232 -0.002,1.00421 -0.0121,1.00421 -0.0101,0 -0.46185,-0.44353 -1.00382,-0.98562 z m 28.97868,0.33373 c -0.10616,-0.0307 -0.17589,-0.12701 -0.17589,-0.24289 0,-0.052 0.0111,-0.11537 0.0248,-0.14083 0.083,-0.15512 0.44472,-0.15512 0.52775,0 0.0417,0.0779 0.0292,0.22966 -0.0245,0.29792 -0.0271,0.0344 -0.0893,0.0737 -0.13831,0.0873 -0.1024,0.0284 -0.11057,0.0284 -0.21387,-0.002 z m -31.80714,-0.41527 c -0.23935,-0.0645 -0.55845,-0.31833 -0.6792,-0.5402 -0.12471,-0.22913 -0.17024,-0.56401 -0.11138,-0.81929 0.0877,-0.38034 0.42528,-0.73199 0.7976,-0.8308 0.12717,-0.0338 0.25552,-0.0389 0.81249,-0.0329 l 0.66145,0.007 0.006,1.12447 0.006,1.12447 -0.69176,-0.002 c -0.46779,-10e-4 -0.72735,-0.0112 -0.80169,-0.0313 z m 1.8547,-1.16374 c 5.3e-4,-0.01 0.44699,-0.46723 0.99218,-1.01624 l 0.99126,-0.99819 0.006,0.98614 c 0.003,0.54238 0.001,0.99969 -0.005,1.01623 -0.009,0.0234 -0.23071,0.0301 -0.99847,0.0301 -0.54281,0 -0.98651,-0.008 -0.986,-0.018 z m 2.20249,-0.02 c -0.008,-0.0209 -0.0146,-0.52484 -0.0146,-1.11981 v -1.08174 l 0.0782,-0.0735 c 0.10572,-0.0993 0.39033,-0.23362 0.54807,-0.25856 0.33225,-0.0525 0.67035,0.067 0.9079,0.32094 0.17961,0.192 0.24781,0.35547 0.26417,0.63316 0.0138,0.23393 -0.0493,0.47052 -0.17009,0.6384 -0.1249,0.17352 -0.40218,0.46923 -0.6839,0.72935 l -0.27055,0.2498 h -0.32229 c -0.2717,0 -0.32458,-0.006 -0.33689,-0.038 z m 25.52956,0.0137 c -0.3163,-0.0389 -0.58285,-0.18532 -0.67171,-0.36888 -0.0581,-0.12003 -0.0627,-0.20342 -0.0171,-0.3111 0.0865,-0.2044 0.25947,-0.22679 0.59262,-0.0767 0.13028,0.0587 0.25244,0.0958 0.33674,0.10223 0.11614,0.009 0.14036,0.003 0.19843,-0.0513 0.0364,-0.0338 0.0661,-0.0792 0.0661,-0.10102 0,-0.0765 -0.15679,-0.19411 -0.39687,-0.29781 -0.55652,-0.24037 -0.72853,-0.41133 -0.75166,-0.74705 -0.0214,-0.31017 0.15782,-0.59737 0.46795,-0.75005 0.1349,-0.0664 0.1853,-0.0773 0.40093,-0.0869 0.27959,-0.0124 0.44633,0.0156 0.62592,0.1054 0.21286,0.10639 0.32734,0.25054 0.32712,0.41192 -2.6e-4,0.16487 -0.18563,0.31625 -0.34516,0.28181 -0.0416,-0.009 -0.15538,-0.0479 -0.25279,-0.0864 -0.25133,-0.0994 -0.35931,-0.11036 -0.44225,-0.0449 -0.1475,0.11638 -0.0579,0.22531 0.30515,0.37112 0.40852,0.16406 0.66542,0.35615 0.75136,0.56183 0.0429,0.10273 0.0487,0.342 0.0115,0.47616 -0.11689,0.4214 -0.63161,0.68239 -1.20629,0.61164 z m -17.63994,-0.025 c -0.27819,-0.0697 -0.6018,-0.30466 -0.76073,-0.55233 -0.25254,-0.39355 -0.2789,-0.97226 -0.0645,-1.4162 0.0919,-0.19037 0.35437,-0.4656 0.53555,-0.56166 0.2537,-0.13451 0.64107,-0.17804 0.92107,-0.10352 0.29173,0.0776 0.58833,0.29889 0.73405,0.54753 0.1982,0.3382 0.24002,0.8228 0.079,0.91501 -0.0374,0.0214 -0.27701,0.0333 -0.84594,0.0419 -0.79225,0.012 -0.79375,0.0121 -0.80118,0.0643 -0.004,0.0288 0.0138,0.0937 0.0398,0.14432 0.091,0.17742 0.24602,0.27233 0.47494,0.2907 0.18399,0.0148 0.34483,-0.0222 0.6183,-0.14203 0.22727,-0.0996 0.31828,-0.11226 0.42189,-0.0587 0.0967,0.05 0.13266,0.13435 0.11879,0.27874 -0.0101,0.10528 -0.027,0.13892 -0.11415,0.22774 -0.11406,0.11622 -0.26621,0.20629 -0.47469,0.281 -0.10826,0.0388 -0.21173,0.0518 -0.46404,0.0583 -0.17859,0.005 -0.36673,-0.002 -0.41808,-0.0151 z m 0.80017,-1.60811 c 0.0432,-0.0274 0.0193,-0.12872 -0.0583,-0.24743 -0.14421,-0.22046 -0.46071,-0.29153 -0.69247,-0.15547 -0.16641,0.0977 -0.3092,0.34017 -0.24066,0.4087 0.024,0.024 0.95289,0.0186 0.99143,-0.006 z m 6.22494,1.59875 c -0.2057,-0.0592 -0.38509,-0.16631 -0.5462,-0.32616 -0.27084,-0.26873 -0.39125,-0.57271 -0.39062,-0.98617 7.9e-4,-0.41277 0.12056,-0.71501 0.39204,-0.98792 0.24487,-0.24616 0.51898,-0.35823 0.87752,-0.35875 0.22598,-5.3e-4 0.45908,0.0577 0.62782,0.15633 0.38007,0.22216 0.63282,0.6856 0.60575,1.1107 -0.007,0.11752 -0.0221,0.16519 -0.0633,0.20642 -0.0527,0.0528 -0.0661,0.0538 -0.85011,0.0656 -0.91287,0.0138 -0.88541,0.007 -0.79028,0.20325 0.15461,0.31938 0.54433,0.38781 1.02733,0.18038 0.12981,-0.0557 0.27933,-0.10593 0.33224,-0.11152 0.19957,-0.0211 0.33194,0.14779 0.27669,0.35297 -0.0481,0.1785 -0.25747,0.33995 -0.60086,0.46325 -0.17417,0.0625 -0.72331,0.0819 -0.89801,0.0316 z m 0.84068,-1.61304 c 0.0337,-0.0878 -0.0722,-0.2761 -0.20599,-0.36623 -0.26942,-0.18157 -0.60952,-0.0947 -0.76087,0.19441 -0.10995,0.20999 -0.11444,0.20795 0.4584,0.20795 0.41778,0 0.49675,-0.006 0.50846,-0.0361 z m 7.25102,1.58582 c -0.41602,-0.14169 -0.72141,-0.4697 -0.83022,-0.89171 -0.0489,-0.18952 -0.0496,-0.57869 -0.002,-0.76718 0.12221,-0.47868 0.49577,-0.85297 0.94474,-0.9466 0.17987,-0.0375 0.45119,-0.033 0.61734,0.0103 0.21095,0.0549 0.36773,0.14849 0.54203,0.32339 0.24395,0.24478 0.36079,0.52923 0.36079,0.87831 0,0.12789 -0.01,0.16519 -0.058,0.2213 l -0.058,0.0675 -0.79368,0.007 c -0.60582,0.005 -0.79969,0.0142 -0.81906,0.0375 -0.0407,0.0491 0.0215,0.20853 0.11963,0.3067 0.10491,0.10491 0.27181,0.16603 0.45288,0.16585 0.16587,-1.4e-4 0.2648,-0.027 0.55222,-0.14955 0.26441,-0.11278 0.38507,-0.11455 0.47757,-0.007 0.17255,0.20061 0.0281,0.47826 -0.33879,0.65128 -0.25312,0.11936 -0.4202,0.15493 -0.72438,0.15423 -0.21962,-5.3e-4 -0.29632,-0.0111 -0.44352,-0.0612 z m 0.90053,-1.5753 c 0.0383,-0.062 -0.0191,-0.1993 -0.12952,-0.30968 -0.221,-0.22101 -0.53136,-0.21995 -0.74067,0.003 -0.12842,0.13649 -0.1882,0.29052 -0.12296,0.31684 0.0623,0.0251 0.97715,0.0162 0.99315,-0.01 z m -19.57479,1.5423 c -0.15197,-0.13343 -0.14954,-0.10593 -0.14954,-1.69709 0,-1.42856 5.3e-4,-1.44431 0.052,-1.55572 0.0624,-0.13497 0.16014,-0.19366 0.32258,-0.19366 0.13074,0 0.23878,0.0546 0.2944,0.14874 0.0617,0.10443 0.0883,0.34579 0.0885,0.80265 1.4e-4,0.35368 0.006,0.42734 0.0336,0.42092 0.0184,-0.004 0.28356,-0.29093 0.58927,-0.637 0.65765,-0.74451 0.73091,-0.79734 0.95693,-0.69009 0.14782,0.0702 0.21023,0.21939 0.16547,0.39569 -0.0357,0.1408 -0.0508,0.15923 -0.58179,0.71338 -0.31455,0.32827 -0.43832,0.47295 -0.42477,0.49657 0.0105,0.0183 0.26265,0.29906 0.5603,0.62383 0.67279,0.73409 0.74948,0.86508 0.62551,1.06842 -0.0948,0.15548 -0.30163,0.21943 -0.45232,0.13986 -0.0856,-0.0452 -0.27873,-0.24575 -0.89336,-0.92782 -0.28016,-0.31088 -0.52376,-0.56851 -0.54135,-0.5725 -0.0257,-0.006 -0.0343,0.11186 -0.0438,0.60132 -0.0128,0.6591 -0.0267,0.74256 -0.14205,0.85312 -0.0568,0.0544 -0.0954,0.0676 -0.22099,0.0756 -0.14285,0.009 -0.15746,0.005 -0.23864,-0.0662 z m 5.68493,0.0287 c -0.0488,-0.0249 -0.10286,-0.0814 -0.13229,-0.13827 -0.0476,-0.0919 -0.0501,-0.13992 -0.057,-1.08238 -0.005,-0.66507 0.002,-1.02085 0.0195,-1.0927 0.0375,-0.14983 0.10672,-0.23632 0.21511,-0.26879 0.14245,-0.0427 0.25458,-0.01 0.38599,0.11309 l 0.11479,0.10737 0.0729,-0.0614 c 0.2714,-0.22837 0.76449,-0.23745 1.08221,-0.0199 0.0701,0.048 0.13811,0.10721 0.15117,0.13162 0.0363,0.0679 0.0907,0.0538 0.20759,-0.054 0.0587,-0.0541 0.16814,-0.12686 0.24322,-0.16168 0.11668,-0.0541 0.16968,-0.0634 0.365,-0.064 0.12568,-5.3e-4 0.27405,0.0132 0.32972,0.03 0.21913,0.0665 0.42476,0.29215 0.50633,0.5556 0.0363,0.11718 0.0419,0.243 0.0419,0.94104 0,0.75818 -0.003,0.81136 -0.0481,0.90043 -0.0705,0.13865 -0.15874,0.19397 -0.3095,0.19397 -0.16068,0 -0.24515,-0.0545 -0.3105,-0.20046 -0.046,-0.10282 -0.0514,-0.17169 -0.0644,-0.82178 -0.0153,-0.76563 -0.0185,-0.78456 -0.15435,-0.91146 -0.0417,-0.0389 -0.0995,-0.0612 -0.17845,-0.0688 -0.1689,-0.0162 -0.29532,0.0535 -0.36929,0.20374 -0.0546,0.11077 -0.0571,0.14102 -0.0687,0.81259 -0.0115,0.66603 -0.0145,0.70259 -0.0672,0.80954 -0.0685,0.13905 -0.17912,0.19968 -0.33272,0.18236 -0.14277,-0.0161 -0.22077,-0.0735 -0.2802,-0.2062 -0.0461,-0.10293 -0.0514,-0.17099 -0.0639,-0.82178 -0.0133,-0.69385 -0.0149,-0.71181 -0.0717,-0.81092 -0.0735,-0.12836 -0.18576,-0.1852 -0.33294,-0.16862 -0.14013,0.0158 -0.22053,0.0767 -0.29451,0.22312 -0.059,0.11682 -0.0603,0.13186 -0.0721,0.81655 -0.0111,0.64333 -0.0159,0.70484 -0.0614,0.79154 -0.0878,0.16729 -0.29248,0.22897 -0.46617,0.14047 z m 7.05563,0.004 c -0.0409,-0.0202 -0.10046,-0.0822 -0.13229,-0.13776 l -0.0579,-0.10104 -0.008,-0.96212 c -0.009,-1.03701 0.002,-1.16094 0.10764,-1.28665 0.12745,-0.15146 0.35627,-0.14224 0.52288,0.0211 l 0.099,0.097 0.12027,-0.0806 c 0.16025,-0.10734 0.34191,-0.15793 0.56707,-0.15793 0.47173,0 0.77676,0.22935 0.8764,0.65897 0.0316,0.13645 0.037,0.29779 0.031,0.93752 -0.007,0.74291 -0.009,0.77653 -0.0602,0.87163 -0.12498,0.2336 -0.47621,0.23541 -0.60144,0.003 -0.036,-0.0668 -0.0444,-0.178 -0.0583,-0.77548 -0.01,-0.40883 -0.0277,-0.73514 -0.044,-0.78839 -0.044,-0.14408 -0.15275,-0.25035 -0.28541,-0.2788 -0.18062,-0.0387 -0.34707,0.0133 -0.43187,0.13509 -0.0968,0.13901 -0.10707,0.21702 -0.12255,0.9321 -0.0139,0.64212 -0.019,0.70422 -0.064,0.78172 -0.088,0.15144 -0.29604,0.21068 -0.45843,0.13056 z m 2.86129,-0.008 c -0.0496,-0.0302 -0.0908,-0.0858 -0.12027,-0.16227 -0.0421,-0.1092 -0.0448,-0.2116 -0.0448,-1.67973 v -1.56341 l 0.0531,-0.0992 c 0.0926,-0.17317 0.27622,-0.24344 0.43241,-0.16552 0.0931,0.0464 0.14032,0.1 0.19191,0.21753 0.0363,0.0827 0.0431,0.20089 0.0511,0.88908 0.005,0.43656 0.0172,0.80204 0.0268,0.81219 0.01,0.0102 0.18705,-0.1545 0.39418,-0.36587 0.3847,-0.39257 0.44774,-0.4422 0.59729,-0.47026 0.19331,-0.0363 0.37356,0.12606 0.34586,0.31146 -0.0216,0.14434 -0.0852,0.22754 -0.39824,0.52048 -0.15803,0.14789 -0.28709,0.28095 -0.28682,0.29569 2.6e-4,0.0147 0.17252,0.23037 0.38277,0.47918 0.21025,0.24882 0.39944,0.48858 0.42042,0.5328 0.021,0.0442 0.0382,0.13035 0.0382,0.19138 0,0.0923 -0.0135,0.12574 -0.0802,0.19851 -0.0698,0.0762 -0.0976,0.089 -0.21425,0.0987 -0.22857,0.0189 -0.27774,-0.0236 -0.74469,-0.6439 -0.22405,-0.29765 -0.4213,-0.54439 -0.43833,-0.5483 -0.024,-0.006 -0.0341,0.0919 -0.0448,0.43295 -0.0155,0.4925 -0.0375,0.59122 -0.15466,0.69406 -0.0672,0.059 -0.1014,0.0707 -0.20598,0.0706 -0.0811,-5e-5 -0.15213,-0.0163 -0.20085,-0.0461 z m -22.34869,-1.35493 0.007,-1.30486 0.0703,-0.14432 c 0.086,-0.17649 0.33997,-0.43848 0.50708,-0.52311 0.56335,-0.28528 1.21591,-0.11247 1.5266,0.40427 0.0901,0.14984 0.16536,0.3974 0.16759,0.55119 0.001,0.0945 -0.0113,0.10835 -1.11071,1.20866 -0.61165,0.61217 -1.12614,1.11304 -1.1433,1.11304 -0.0253,0 -0.0299,-0.2481 -0.0244,-1.30487 z"
       id="path12434" /></g></svg>
