<?xml version="1.0" encoding="UTF-8" standalone="no"?>
<!-- Created with Inkscape (http://www.inkscape.org/) -->

<svg
   width="18.770935mm"
   height="8.4615479mm"
   viewBox="0 0 18.770935 8.4615479"
   version="1.1"
   id="svg5"
   xml:space="preserve"
   inkscape:version="1.2.2 (732a01da63, 2022-12-09)"
   sodipodi:docname="portofolio logo.svg"
   xmlns:inkscape="http://www.inkscape.org/namespaces/inkscape"
   xmlns:sodipodi="http://sodipodi.sourceforge.net/DTD/sodipodi-0.dtd"
   xmlns="http://www.w3.org/2000/svg"
   xmlns:svg="http://www.w3.org/2000/svg"><sodipodi:namedview
     id="namedview7"
     pagecolor="#ffffff"
     bordercolor="#000000"
     borderopacity="0.25"
     inkscape:showpageshadow="2"
     inkscape:pageopacity="0.0"
     inkscape:pagecheckerboard="0"
     inkscape:deskcolor="#d1d1d1"
     inkscape:document-units="mm"
     showgrid="false"
     inkscape:zoom="2.0913616"
     inkscape:cx="-2261.2063"
     inkscape:cy="3613.6745"
     inkscape:window-width="1920"
     inkscape:window-height="991"
     inkscape:window-x="-9"
     inkscape:window-y="-9"
     inkscape:window-maximized="1"
     inkscape:current-layer="layer1"
     showguides="false" /><defs
     id="defs2" /><g
     inkscape:label="Layer 1"
     inkscape:groupmode="layer"
     id="layer1"
     transform="translate(381.37226,-942.28873)"><path
       style="fill:#e2e8f0;fill-opacity:1;stroke-width:0.0346648"
       d="m -364.22529,950.73052 c -0.52586,-0.0903 -0.99407,-0.56474 -1.09795,-1.11242 -0.0186,-0.0982 -0.0339,-0.34618 -0.0339,-0.55096 0,-0.46569 -0.027,-0.50132 -0.25055,-0.33062 -0.2387,0.18225 -0.57573,0.35637 -0.80534,0.41606 -0.26029,0.0677 -0.76682,0.0684 -1.05064,0.001 -0.71956,-0.16965 -1.40304,-0.82167 -1.65528,-1.57908 -0.1338,-0.40176 -0.12838,-0.46938 0.0602,-0.75307 0.22722,-0.34172 0.64279,-0.83211 0.89065,-1.05097 0.20383,-0.18 0.60514,-0.44708 0.67177,-0.44708 0.0177,0 -0.0547,0.0869 -0.1609,0.19303 -0.30582,0.30582 -0.4364,0.6416 -0.4372,1.12423 -0.001,0.45394 0.12645,0.78392 0.42323,1.0977 0.099,0.10466 0.26432,0.22923 0.38303,0.28853 0.19276,0.0963 0.23708,0.10436 0.57595,0.10433 0.33483,-2e-5 0.38617,-0.009 0.58409,-0.10268 0.28598,-0.13529 0.54065,-0.3931 0.66991,-0.6782 0.056,-0.1234 0.10548,-0.22427 0.11006,-0.22414 0.005,1.3e-4 0.12684,0.11321 0.27173,0.25131 0.14488,0.13811 0.39686,0.3291 0.55996,0.42443 l 0.29657,0.17332 0.0121,0.53178 c 0.0115,0.51005 0.0153,0.53449 0.0938,0.59797 0.10691,0.0865 0.22063,0.084 0.30277,-0.007 0.0555,-0.0612 0.0679,-0.13866 0.0776,-0.48531 0.006,-0.22684 0.0257,-0.41244 0.0429,-0.41244 0.0172,0 0.15244,0.0335 0.30041,0.0745 0.14798,0.041 0.38603,0.0996 0.52902,0.13019 l 0.25999,0.0557 v 0.6411 c 0,0.62727 -0.002,0.64523 -0.0941,0.8328 -0.28529,0.58087 -0.90441,0.90269 -1.52989,0.79522 z m -13.54184,-1.51136 c -0.38588,-0.0609 -0.54038,-0.10518 -0.79657,-0.22813 -0.24198,-0.11614 -0.3497,-0.19689 -0.60947,-0.45688 -0.25564,-0.25584 -0.34305,-0.37177 -0.46024,-0.61047 -0.21013,-0.42792 -0.28294,-0.75383 -0.28294,-1.26636 0,-1.07556 0.48736,-1.93745 1.33011,-2.35231 0.32794,-0.16143 0.4834,-0.19274 0.95777,-0.19288 0.43084,-1.2e-4 0.69769,0.0662 1.01501,0.25212 0.28379,0.16631 0.29578,0.18497 0.40528,0.63026 0.21104,0.8583 0.50486,1.41335 1.04722,1.97829 l 0.27101,0.2823 -7e-5,0.72427 c -4e-5,0.62104 -0.009,0.74122 -0.0607,0.84314 -0.10323,0.20244 -0.22014,0.26245 -0.51139,0.26245 -0.30256,0 -0.40777,-0.059 -0.52907,-0.29668 -0.0432,-0.0847 -0.0908,-0.15812 -0.10566,-0.16319 -0.0149,-0.005 -0.11213,0.0548 -0.21607,0.13294 -0.36842,0.27712 -0.74071,0.42225 -1.17695,0.45883 -0.10487,0.009 -0.22965,0.01 -0.27732,0.002 z m 0.86662,-1.14196 c 0.32874,-0.10491 0.65788,-0.43526 0.79945,-0.80236 0.0962,-0.24937 0.1288,-0.73438 0.068,-1.0111 -0.12723,-0.57959 -0.55349,-0.98434 -1.14307,-1.08545 -0.44811,-0.0768 -0.85478,0.0645 -1.1826,0.41114 -0.5472,0.57858 -0.5472,1.55939 0,2.13798 0.30843,0.3261 0.63999,0.45219 1.0942,0.41609 0.11441,-0.009 0.27818,-0.0389 0.36398,-0.0663 z m 3.99417,0.99362 c -0.64825,-0.22565 -1.05911,-0.58772 -1.3745,-1.21125 -0.0516,-0.10199 -0.0875,-0.19168 -0.0799,-0.19932 0.008,-0.008 0.13738,0.0401 0.28832,0.10618 0.64697,0.28303 1.46614,0.47153 2.04232,0.46995 0.37167,-0.001 0.62825,-0.11791 0.86772,-0.39527 l 0.16812,-0.19474 h 0.60002 c 0.68878,0 0.66682,-0.0137 0.49506,0.30856 -0.21934,0.41152 -0.60315,0.78935 -1.00997,0.99423 -0.36938,0.18601 -0.56206,0.22252 -1.17157,0.222 -0.50345,-5.3e-4 -0.55744,-0.007 -0.82562,-0.10034 z m -8.15666,-0.082 c -0.20645,-0.13912 -0.26539,-0.266 -0.29268,-0.62991 -0.0395,-0.52733 0.0775,-0.99193 0.40546,-1.60947 0.15031,-0.28304 0.61244,-0.9402 0.66123,-0.94026 0.0143,-10e-6 0.026,0.64108 0.026,1.42466 0,1.61174 0.002,1.59518 -0.25887,1.74832 -0.18748,0.10987 -0.38439,0.11229 -0.54113,0.007 z m 17.96222,-0.92953 c -0.21754,-0.0575 -0.44792,-0.12652 -0.51195,-0.15327 l -0.11641,-0.0486 0.009,-2.61275 0.009,-2.61274 0.0967,-0.12681 c 0.14257,-0.18692 0.20697,-0.20851 0.63122,-0.21162 l 0.38131,-0.003 v 2.92871 c 0,2.57665 -0.006,2.92965 -0.052,2.93663 -0.0286,0.004 -0.22998,-0.0392 -0.44752,-0.0967 z m -10.44486,-0.37804 c -0.40179,-0.13607 -0.83438,-0.35661 -0.92468,-0.4714 -0.0658,-0.0837 -0.073,-0.13747 -0.0727,-0.54742 0.001,-1.26946 0.5563,-2.09962 1.66368,-2.48578 0.19814,-0.0691 0.2943,-0.0787 0.79729,-0.0798 0.50049,-10e-4 0.60446,0.009 0.83195,0.0784 0.60439,0.18522 1.11864,0.61268 1.38185,1.14863 0.203,0.41331 0.32638,1.10904 0.26694,1.50534 l -0.0237,0.15797 -1.84384,0.009 -1.84382,0.009 0.006,0.16328 c 0.005,0.13805 0.0587,0.28834 0.21239,0.59068 0.0271,0.0534 -0.15784,0.0214 -0.45083,-0.0778 z m 2.6805,-1.55145 c 0.0229,-0.37839 -0.21177,-0.75014 -0.59791,-0.94713 -0.0807,-0.0412 -0.26188,-0.0948 -0.40261,-0.11929 -0.65959,-0.11454 -1.21945,0.23184 -1.41272,0.87402 -0.0258,0.0857 -0.0385,0.17769 -0.0282,0.20443 0.0155,0.0405 0.22225,0.0486 1.22823,0.0486 1.12746,0 1.2098,-0.004 1.21324,-0.0607 z m 6.35438,1.33987 c -0.50481,-0.3497 -0.67508,-0.58601 -0.813,-1.12838 -0.11978,-0.47102 -0.20738,-0.63734 -0.45112,-0.85647 -0.39172,-0.3522 -0.85301,-0.57696 -1.18412,-0.57696 -0.3209,0 -0.73684,0.16124 -1.11932,0.43387 -0.23569,0.16802 -0.71838,0.65562 -0.96887,0.97872 -0.0924,0.11917 -0.17883,0.21666 -0.19214,0.21666 -0.0468,0 0.0657,-0.64531 0.15731,-0.90181 0.11066,-0.31009 0.18039,-0.43264 0.40843,-0.71778 0.43058,-0.53839 0.991,-0.81241 1.66989,-0.81647 0.54198,-0.003 0.88575,0.11093 1.32253,0.43928 0.11675,0.0878 0.22934,0.15955 0.25024,0.15955 0.0209,0 0.0774,-0.0777 0.1255,-0.17271 0.13391,-0.26427 0.20107,-0.29362 0.67361,-0.29451 l 0.40131,-8e-4 0.01,1.57726 c 0.009,1.52342 10e-4,1.80257 -0.0578,1.80257 -0.015,0 -0.11964,-0.0639 -0.23243,-0.14206 z m -16.86132,-1.68652 c 1.1e-4,-0.64025 0.015,-1.15379 0.0355,-1.22775 0.0198,-0.0713 0.0887,-0.17405 0.15701,-0.23399 0.12126,-0.10646 0.12314,-0.10684 0.53163,-0.10684 h 0.40994 l 0.0219,0.18199 c 0.0121,0.10009 0.022,0.34157 0.0222,0.53661 v 0.35463 l -0.21369,0.23467 c -0.30409,0.33396 -0.59157,0.7297 -0.77637,1.06873 -0.0877,0.16091 -0.16602,0.29256 -0.17401,0.29256 -0.008,0 -0.0144,-0.49527 -0.0143,-1.10061 z m 6.27117,0.88282 c -0.32372,-0.38069 -0.5528,-0.78625 -0.72236,-1.2788 -0.18243,-0.53005 -0.19344,-0.62864 -0.19109,-1.70991 0.002,-0.87726 0.01,-1.01955 0.0613,-1.11735 0.0956,-0.18133 0.23041,-0.22991 0.64527,-0.2324 0.35737,-0.002 0.36239,-10e-4 0.38652,0.0845 0.0135,0.0477 0.026,1.05772 0.0279,2.24455 0.003,1.7056 -0.006,2.15765 -0.0399,2.15675 -0.0238,-7.9e-4 -0.0993,-0.0669 -0.16764,-0.14732 z m -5.96741,-3.32006 c -0.20443,-0.10793 -0.3293,-0.4142 -0.26041,-0.63868 0.0605,-0.19694 0.2118,-0.3508 0.389,-0.39542 0.18773,-0.0473 0.30819,-0.0239 0.46011,0.0892 0.17204,0.12808 0.22637,0.26203 0.21007,0.51792 -0.0111,0.17209 -0.0321,0.23848 -0.099,0.31104 -0.17641,0.19125 -0.46619,0.23926 -0.69977,0.11594 z"
       id="path11882"
       inkscape:export-filename="OneDrive\Desktop\partner8.png"
       inkscape:export-xdpi="96"
       inkscape:export-ydpi="96" /></g></svg>
