<?xml version="1.0" encoding="UTF-8" standalone="no"?>
<!-- Created with Inkscape (http://www.inkscape.org/) -->

<svg
   width="29.479706mm"
   height="8.4623413mm"
   viewBox="0 0 29.479706 8.4623413"
   version="1.1"
   id="svg5"
   xml:space="preserve"
   inkscape:version="1.2.2 (732a01da63, 2022-12-09)"
   sodipodi:docname="portofolio logo.svg"
   xmlns:inkscape="http://www.inkscape.org/namespaces/inkscape"
   xmlns:sodipodi="http://sodipodi.sourceforge.net/DTD/sodipodi-0.dtd"
   xmlns="http://www.w3.org/2000/svg"
   xmlns:svg="http://www.w3.org/2000/svg"><sodipodi:namedview
     id="namedview7"
     pagecolor="#ffffff"
     bordercolor="#000000"
     borderopacity="0.25"
     inkscape:showpageshadow="2"
     inkscape:pageopacity="0.0"
     inkscape:pagecheckerboard="0"
     inkscape:deskcolor="#d1d1d1"
     inkscape:document-units="mm"
     showgrid="false"
     inkscape:zoom="2.0913616"
     inkscape:cx="-2261.2063"
     inkscape:cy="3613.6745"
     inkscape:window-width="1920"
     inkscape:window-height="991"
     inkscape:window-x="-9"
     inkscape:window-y="-9"
     inkscape:window-maximized="1"
     inkscape:current-layer="layer1"
     showguides="false" /><defs
     id="defs2" /><g
     inkscape:label="Layer 1"
     inkscape:groupmode="layer"
     id="layer1"
     transform="translate(485.46461,-942.29233)"><path
       id="path12605"
       style="opacity:0;fill:#e2e8f0;stroke-width:0.765839;paint-order:markers fill stroke"
       d="m -485.46463,942.29236 h 29.4797 v 8.46231 h -29.4797 z"
       inkscape:export-filename="OneDrive\Desktop\partner5.svg"
       inkscape:export-xdpi="96"
       inkscape:export-ydpi="96" /><path
       style="fill:#e2e8f0;fill-opacity:1;stroke-width:0.0363301"
       d="m -473.2041,948.68529 c -0.33457,-0.1213 -0.59447,-0.36065 -0.64026,-0.58963 -0.0216,-0.1082 -0.0193,-0.1101 0.23127,-0.18471 0.13923,-0.0415 0.26615,-0.0754 0.28205,-0.0754 0.0159,0 0.0878,0.0638 0.15979,0.14177 0.10355,0.11215 0.16682,0.14715 0.30299,0.16757 0.26979,0.0405 0.42293,-0.005 0.59304,-0.17623 0.13899,-0.13988 0.2409,-0.39211 0.18216,-0.45086 -0.0108,-0.0108 -0.11211,0.009 -0.22506,0.0449 -0.25694,0.0808 -0.62204,0.0577 -0.86083,-0.0546 -0.23122,-0.10869 -0.47257,-0.37765 -0.55113,-0.61417 -0.087,-0.26199 -0.0633,-0.71624 0.0497,-0.95253 0.12837,-0.26838 0.31061,-0.45287 0.57675,-0.58389 0.2203,-0.10845 0.27349,-0.1196 0.57068,-0.1196 0.30147,0 0.34502,0.009 0.54345,0.11827 0.21295,0.11676 0.27246,0.11362 0.27418,-0.0145 8.2e-4,-0.0618 0.0914,-0.0856 0.32605,-0.0856 0.12472,0 0.22548,0.0185 0.24714,0.0454 0.0249,0.0309 0.0151,0.1965 -0.0307,0.5177 -0.037,0.25976 -0.11652,0.82291 -0.17668,1.25144 -0.12425,0.88502 -0.18396,1.05514 -0.45953,1.30915 -0.26086,0.24045 -0.51635,0.34027 -0.90479,0.35351 -0.23465,0.008 -0.37308,-0.006 -0.49026,-0.048 z m 0.80914,-1.68751 c 0.16752,-0.0465 0.36485,-0.21376 0.42578,-0.36086 0.0269,-0.0649 0.0386,-0.19958 0.029,-0.33241 -0.0145,-0.20049 -0.0295,-0.23556 -0.14677,-0.34302 -0.22343,-0.20476 -0.54078,-0.2014 -0.79007,0.008 -0.15828,0.13319 -0.2287,0.29022 -0.2287,0.51002 0,0.26841 0.12117,0.4444 0.35552,0.51639 0.14836,0.0456 0.19585,0.0458 0.35521,0.002 z m -9.06944,0.74823 c -0.30485,-0.10867 -0.49331,-0.39946 -0.49465,-0.76324 -9.6e-4,-0.27905 0.18012,-1.62157 0.22684,-1.68123 0.0484,-0.0618 0.55025,-0.0618 0.59737,0 0.0226,0.0296 -0.002,0.30679 -0.0705,0.79506 -0.0974,0.69461 -0.10102,0.75939 -0.0497,0.88231 0.1319,0.31568 0.66366,0.28775 0.83514,-0.0439 0.0297,-0.0575 0.0974,-0.42193 0.15031,-0.80995 0.053,-0.38802 0.11083,-0.74227 0.12861,-0.78723 0.0294,-0.0744 0.0561,-0.0817 0.2965,-0.0812 0.1453,2.7e-4 0.2834,0.0128 0.30691,0.0277 0.0319,0.0203 -2.8e-4,0.33099 -0.12716,1.22558 l -0.16989,1.1984 -0.29972,0.0106 c -0.27253,0.01 -0.29972,0.004 -0.29972,-0.0575 0,-0.1106 -0.0349,-0.11532 -0.17075,-0.0231 -0.23949,0.16253 -0.58458,0.20576 -0.85967,0.10769 z m 2.64128,0.003 c -0.22356,-0.0732 -0.36014,-0.18537 -0.426,-0.34996 -0.17217,-0.4303 0.0658,-0.8495 0.57592,-1.01455 0.12056,-0.039 0.38601,-0.0966 0.58988,-0.12798 0.45854,-0.0706 0.48308,-0.08 0.48308,-0.18512 0,-0.14677 -0.1451,-0.27542 -0.33476,-0.29679 -0.19822,-0.0224 -0.46856,0.0885 -0.56138,0.23015 -0.0312,0.0477 -0.0835,0.0863 -0.11619,0.0858 -0.0994,-10e-4 -0.42101,-0.19487 -0.43367,-0.26083 -0.02,-0.10424 0.26392,-0.37357 0.5104,-0.48419 0.73519,-0.32994 1.58961,0.0263 1.58952,0.66268 -2e-5,0.14827 -0.13577,1.23148 -0.2005,1.59997 l -0.0208,0.11807 h -0.28719 c -0.23064,0 -0.29388,-0.012 -0.32118,-0.0607 -0.0312,-0.0557 -0.05,-0.0538 -0.22887,0.0234 -0.23732,0.10248 -0.60603,0.12955 -0.81831,0.0601 z m 0.77597,-0.49851 c 0.2184,-0.10572 0.42852,-0.48118 0.31021,-0.5543 -0.0152,-0.009 -0.16258,0.008 -0.32741,0.0381 -0.3121,0.0575 -0.52535,0.16613 -0.54701,0.27861 -0.0529,0.2747 0.23613,0.39641 0.56421,0.23759 z m 12.76281,0.50576 c -0.29457,-0.0837 -0.4994,-0.35191 -0.53281,-0.69764 -0.0233,-0.24151 0.18771,-1.7325 0.25091,-1.77262 0.0603,-0.0383 0.50472,-0.0375 0.56537,0.001 0.0383,0.0243 0.0297,0.15671 -0.0454,0.69595 -0.12115,0.87008 -0.12034,0.94839 0.0114,1.09585 0.0916,0.10254 0.12657,0.11655 0.29079,0.11655 0.13011,0 0.21618,-0.0221 0.28417,-0.0728 0.21028,-0.157 0.23062,-0.21809 0.34462,-1.03508 0.0612,-0.43839 0.12685,-0.78817 0.15085,-0.80344 0.0788,-0.0501 0.5698,-0.0327 0.59037,0.0209 0.0154,0.0401 -0.22323,1.87923 -0.29905,2.30475 l -0.0213,0.11947 -0.29388,-0.0105 c -0.27406,-0.01 -0.29522,-0.0162 -0.31381,-0.0953 l -0.0199,-0.0848 -0.10157,0.0799 c -0.20276,0.15949 -0.57498,0.21915 -0.86072,0.13795 z m 2.99377,-0.0178 c -0.25686,-0.0758 -0.51188,-0.28113 -0.64689,-0.52076 -0.10699,-0.1899 -0.11258,-0.2197 -0.11258,-0.60021 0,-0.37938 0.006,-0.41315 0.11964,-0.64341 0.14352,-0.29154 0.40645,-0.53787 0.69779,-0.65375 0.15219,-0.0605 0.27774,-0.0798 0.52679,-0.0807 0.2872,-0.001 0.34993,0.0108 0.51578,0.098 0.11471,0.0603 0.19768,0.0849 0.21141,0.0626 0.0124,-0.0201 0.0538,-0.25796 0.0919,-0.52855 0.0381,-0.27059 0.0788,-0.50737 0.0905,-0.52619 0.0116,-0.0188 0.15914,-0.0342 0.3278,-0.0342 0.29424,0 0.3066,0.003 0.3052,0.0817 -8.2e-4,0.045 -0.10369,0.80926 -0.22862,1.69843 l -0.22714,1.61669 -0.28345,0.0107 c -0.16677,0.006 -0.30304,-0.006 -0.33103,-0.0288 -0.0349,-0.029 -0.10618,-0.0197 -0.26788,0.0347 -0.25594,0.0862 -0.5276,0.0909 -0.78919,0.0137 z m 0.68353,-0.55869 c 0.30585,-0.085 0.49848,-0.36943 0.49986,-0.73822 0.001,-0.27861 -0.10176,-0.46822 -0.308,-0.56806 -0.45718,-0.22132 -0.96733,0.1393 -0.97232,0.68731 -0.004,0.465 0.34307,0.74044 0.78046,0.61897 z m 1.97413,0.565 c -0.30786,-0.10967 -0.45607,-0.30786 -0.45617,-0.60998 -7e-5,-0.21884 0.0666,-0.37553 0.22268,-0.52376 0.18198,-0.17278 0.39844,-0.25249 0.92227,-0.3396 0.25943,-0.0431 0.49424,-0.0999 0.52181,-0.12613 0.0766,-0.0729 0.0193,-0.22743 -0.11468,-0.30914 -0.21854,-0.13325 -0.57339,-0.0554 -0.74559,0.16347 -0.0397,0.0505 -0.09,0.0918 -0.11162,0.0918 -0.0769,0 -0.43852,-0.19645 -0.45878,-0.24924 -0.0131,-0.034 0.0581,-0.13013 0.19445,-0.26276 0.17553,-0.17069 0.25988,-0.22296 0.45916,-0.28451 0.58748,-0.18146 1.19678,-0.003 1.39637,0.40953 0.0974,0.20129 0.0958,0.25838 -0.0337,1.18625 -0.0599,0.42957 -0.10899,0.79331 -0.10899,0.80831 0,0.015 -0.13896,0.0273 -0.30881,0.0273 -0.26017,0 -0.3088,-0.009 -0.3088,-0.0587 0,-0.0639 -5.6e-4,-0.0638 -0.32697,0.0558 -0.2328,0.0853 -0.53856,0.0941 -0.74267,0.0213 z m 0.73122,-0.45672 c 0.25667,-0.097 0.51735,-0.50901 0.37694,-0.59579 -0.0188,-0.0116 -0.18521,0.0119 -0.36985,0.0522 -0.40223,0.0878 -0.5133,0.16878 -0.4969,0.36231 0.0165,0.19424 0.23828,0.27634 0.48981,0.18131 z m -26.18254,0.37748 c 0,-0.18949 0.44869,-3.23498 0.48264,-3.27588 0.0326,-0.0393 0.19103,-0.0463 0.78722,-0.035 0.68509,0.0129 0.76207,0.021 0.93636,0.0985 0.22352,0.0993 0.45255,0.33334 0.52198,0.53334 0.0778,0.22404 0.0603,0.61756 -0.0373,0.84031 -0.0767,0.17502 -0.28273,0.39877 -0.51528,0.55952 l -0.0849,0.0587 0.26252,0.61344 c 0.14438,0.33739 0.2625,0.62629 0.26249,0.642 -2e-5,0.0157 -0.15883,0.0239 -0.35292,0.0182 l -0.35288,-0.0104 -0.24563,-0.57856 c -0.13509,-0.3182 -0.26648,-0.59179 -0.29197,-0.60797 -0.0608,-0.0386 -0.43249,-0.038 -0.49373,7.9e-4 -0.0292,0.0185 -0.0754,0.22648 -0.11899,0.53532 -0.10586,0.75038 -0.0528,0.66852 -0.4334,0.66852 -0.28083,0 -0.32628,-0.008 -0.32628,-0.0608 z m 1.80264,-1.81469 c 0.24768,-0.11753 0.37016,-0.43529 0.25421,-0.65951 -0.10226,-0.19773 -0.17879,-0.2261 -0.61009,-0.2261 h -0.3899 l -0.0198,0.11807 c -0.0594,0.35355 -0.0919,0.60342 -0.0922,0.70844 l -2.6e-4,0.11808 h 0.36689 c 0.26325,0 0.402,-0.0167 0.49117,-0.059 z m 6.66227,1.8459 c 0,-0.0163 0.0736,-0.55891 0.16351,-1.20585 0.10296,-0.74069 0.18032,-1.18694 0.2089,-1.20509 0.0571,-0.0363 0.46707,-0.0379 0.52309,-0.002 0.023,0.0147 0.0475,0.0651 0.0545,0.11206 l 0.0127,0.0854 0.0975,-0.0771 c 0.24992,-0.19744 0.65621,-0.23929 0.95603,-0.0985 0.21361,0.10034 0.27897,0.16712 0.37867,0.38692 0.0979,0.21574 0.0942,0.35242 -0.034,1.25269 -0.0597,0.41958 -0.10856,0.76699 -0.10856,0.77201 0,0.005 -0.14714,0.009 -0.32697,0.009 -0.17984,0 -0.32675,-0.0122 -0.32649,-0.0272 2.7e-4,-0.015 0.0411,-0.31318 0.0908,-0.66266 0.11894,-0.83659 0.11835,-0.97969 -0.005,-1.10259 -0.18938,-0.18938 -0.50201,-0.15809 -0.70255,0.0703 -0.0609,0.0694 -0.1109,0.12972 -0.11101,0.13402 -1.1e-4,0.004 -0.0492,0.34976 -0.10899,0.76768 -0.0598,0.41792 -0.10878,0.77351 -0.10878,0.79018 0,0.0167 -0.14714,0.0303 -0.32697,0.0303 -0.17984,0 -0.32698,-0.0133 -0.32698,-0.0296 z m 6.61486,-0.0885 c 0.002,-0.0649 0.10371,-0.82106 0.22706,-1.68027 l 0.22428,-1.56219 0.31233,-0.0104 c 0.25716,-0.009 0.32134,5.3e-4 0.3633,0.0509 0.028,0.0337 0.22263,0.3482 0.43243,0.6989 0.20981,0.3507 0.4001,0.64328 0.42286,0.65018 0.0228,0.007 0.2819,-0.25386 0.57583,-0.57949 0.80175,-0.88818 0.72311,-0.8282 1.08587,-0.8282 0.21184,0 0.31023,0.0139 0.32104,0.0454 0.012,0.0351 -0.26997,2.14459 -0.42409,3.17237 l -0.0241,0.16092 h -0.31869 c -0.17528,0 -0.32664,-0.008 -0.33636,-0.0177 -0.01,-0.01 0.0357,-0.398 0.10102,-0.86284 0.16779,-1.19491 0.17474,-1.26297 0.12887,-1.26297 -0.0216,0 -0.29565,0.28688 -0.6089,0.63752 -0.33889,0.37934 -0.59169,0.63313 -0.62424,0.62669 -0.0301,-0.006 -0.22099,-0.29693 -0.42425,-0.64661 -0.20833,-0.35839 -0.3924,-0.63577 -0.42192,-0.63577 -0.041,0 -0.0823,0.21711 -0.19011,0.99908 -0.0758,0.54949 -0.14556,1.03586 -0.1551,1.08082 -0.0164,0.0774 -0.0346,0.0817 -0.34361,0.0817 h -0.32628 l 0.003,-0.11807 z m 12.94358,0 c 0.0115,-0.0649 0.0318,-0.20413 0.0451,-0.30931 0.0282,-0.22327 0.0531,-0.23641 0.41543,-0.21942 l 0.23503,0.011 -0.003,0.14533 c -0.002,0.0799 -0.0149,0.22297 -0.0295,0.31788 l -0.0264,0.17257 h -0.32878 -0.32879 l 0.0209,-0.11807 z"
       id="path12476" /></g></svg>
