<?xml version="1.0" encoding="UTF-8" standalone="no"?>
<!-- Created with Inkscape (http://www.inkscape.org/) -->

<svg
   width="29.479736mm"
   height="8.4623413mm"
   viewBox="0 0 29.479736 8.4623413"
   version="1.1"
   id="svg5"
   xml:space="preserve"
   inkscape:version="1.2.2 (732a01da63, 2022-12-09)"
   sodipodi:docname="portofolio logo.svg"
   xmlns:inkscape="http://www.inkscape.org/namespaces/inkscape"
   xmlns:sodipodi="http://sodipodi.sourceforge.net/DTD/sodipodi-0.dtd"
   xmlns="http://www.w3.org/2000/svg"
   xmlns:svg="http://www.w3.org/2000/svg"><sodipodi:namedview
     id="namedview7"
     pagecolor="#ffffff"
     bordercolor="#000000"
     borderopacity="0.25"
     inkscape:showpageshadow="2"
     inkscape:pageopacity="0.0"
     inkscape:pagecheckerboard="0"
     inkscape:deskcolor="#d1d1d1"
     inkscape:document-units="mm"
     showgrid="false"
     inkscape:zoom="2.0913616"
     inkscape:cx="-2261.2063"
     inkscape:cy="3613.6745"
     inkscape:window-width="1920"
     inkscape:window-height="991"
     inkscape:window-x="-9"
     inkscape:window-y="-9"
     inkscape:window-maximized="1"
     inkscape:current-layer="layer1"
     showguides="false" /><defs
     id="defs2" /><g
     inkscape:label="Layer 1"
     inkscape:groupmode="layer"
     id="layer1"
     transform="translate(449.5774,-942.29233)"><g
       id="g11914"
       transform="matrix(0.11741107,0,0,0.11741107,-553.02968,857.51832)"
       style="fill:#e2e8f0;fill-opacity:1"><path
         style="fill:#e2e8f0;fill-opacity:1;stroke-width:0.264583"
         d="m 932.51662,783.14046 c -0.42936,-0.31489 -0.45749,-1.1255 -0.39286,-11.31939 l 0.0696,-10.98021 11.09507,-0.0691 c 8.70047,-0.0542 11.14079,0.003 11.30689,0.26458 0.30442,0.47954 0.26723,21.41262 -0.0389,21.89721 -0.21478,0.34 -1.77896,0.40757 -10.91403,0.47148 -8.35025,0.0584 -10.76363,10e-4 -11.12578,-0.26459 z m -10.55445,-0.20768 c -7.79219,-1.34858 -13.96301,-6.61231 -16.51756,-14.08955 -0.84673,-2.47839 -1.39604,-7.14032 -0.9103,-7.7256 0.29604,-0.35671 1.69813,-0.40854 10.95656,-0.40501 5.8394,0.002 10.76726,0.0994 10.95079,0.2159 0.26162,0.16608 0.31878,2.57998 0.26458,11.17459 l -0.0691,10.96275 -1.71979,0.0404 c -0.94588,0.0222 -2.27571,-0.0558 -2.95516,-0.17344 z m -17.50595,-27.69226 c -0.097,-0.097 -0.17639,-5.09345 -0.17639,-11.10319 0,-10.64821 0.0135,-10.93401 0.52804,-11.2094 0.35616,-0.19061 3.97639,-0.25823 11.12232,-0.20775 9.07351,0.0641 10.63027,0.13182 10.84499,0.47173 0.2739,0.43358 0.36701,21.10602 0.0982,21.80648 -0.14289,0.37238 -1.37765,0.41852 -11.20069,0.41852 -6.07206,0 -11.11947,-0.0794 -11.21649,-0.17639 z m 44.93507,-0.21582 c -9.36223,-1.79701 -16.01758,-9.00667 -17.07594,-18.49818 -0.44523,-3.99285 -1.63481,-3.61728 11.19984,-3.53598 l 10.90318,0.0691 v 11.1125 11.1125 l -1.5875,0.0478 c -0.87312,0.0263 -2.42093,-0.11218 -3.43958,-0.3077 z"
         id="path12473"
         sodipodi:nodetypes="sscsssssssssssscssssssssssssssscccsss" /><path
         style="fill:#e2e8f0;fill-opacity:1;stroke-width:0.264583"
         d="m 932.44769,782.60534 c -0.0705,-0.18376 -0.097,-5.09641 -0.059,-10.917 l 0.0692,-10.58289 10.90828,-0.0691 10.90829,-0.0691 0.14556,0.59824 c 0.0801,0.32903 0.11242,5.24168 0.0719,10.91699 l -0.0736,10.31875 -10.92123,0.0691 c -8.6028,0.0544 -10.94846,-0.002 -11.04945,-0.26503 z m -10.95005,-0.22402 c -9.21834,-1.80861 -15.87442,-9.35198 -16.58756,-18.79878 l -0.177,-2.3448 h 10.75358 10.75359 v 10.71562 10.71563 l -1.78594,-0.029 c -0.98226,-0.0159 -2.31277,-0.13235 -2.95667,-0.25868 z m -16.77683,-27.40539 c -0.097,-0.097 -0.17639,-5.0381 -0.17639,-10.9802 v -10.80382 h 10.9519 c 9.74262,0 10.96963,0.0462 11.1125,0.41851 0.20971,0.5465 0.20971,20.57689 0,21.12339 -0.14281,0.37215 -1.35433,0.41851 -10.93611,0.41851 -5.92654,0 -10.85489,-0.0794 -10.9519,-0.17639 z m 44.14131,-0.52561 c -4.1006,-0.87296 -7.05461,-2.5131 -10.18645,-5.65578 -2.54286,-2.55164 -3.72567,-4.38256 -4.80905,-7.44407 -0.76209,-2.15358 -1.48706,-6.69872 -1.19137,-7.46926 0.14586,-0.38012 1.27531,-0.42472 10.75461,-0.42472 h 10.59164 v 10.71562 10.71563 l -1.65365,-0.0216 c -0.9095,-0.0119 -2.48708,-0.199 -3.50573,-0.41585 z"
         id="path12470"
         sodipodi:nodetypes="sscccsscssssscccccssssscsssssssssscccsss" /><path
         style="fill:#e2e8f0;fill-opacity:1;stroke-width:0.264583"
         d="m 932.59025,771.95336 v -10.72155 l 10.78177,0.0691 10.78177,0.0691 v 10.58333 10.58334 l -10.78177,0.0691 -10.78177,0.0691 z M 904.809,744.17211 v -10.71562 h 10.71563 10.71562 v 10.71562 10.71563 H 915.52463 904.809 Z"
         id="path12467"
         sodipodi:nodetypes="cccccccccccccccccc" /><path
         style="fill:#e2e8f0;fill-opacity:1;stroke-width:0.264583"
         d="m 932.59025,771.95336 v -10.72155 l 10.78177,0.0691 10.78177,0.0691 v 10.58333 10.58334 l -10.78177,0.0691 -10.78177,0.0691 z M 904.809,744.17211 v -10.71562 h 10.71563 10.71562 v 10.71562 10.71563 H 915.52463 904.809 Z"
         id="path12464"
         sodipodi:nodetypes="cccccccccccccccccc" /><path
         style="fill:#e2e8f0;fill-opacity:1;stroke-width:0.264583"
         d="m 984.06184,774.79711 c -2.01308,-0.72289 -2.52005,-2.03881 -2.5222,-6.54677 -10e-4,-3.04858 0.01,-3.10662 0.62802,-3.2618 0.34621,-0.0869 0.97129,-0.11893 1.38906,-0.0712 l 0.75957,0.0868 0.13616,3.04271 c 0.14676,3.27955 0.43032,4.13301 1.45898,4.39119 0.95473,0.23962 1.916,-0.0794 2.27915,-0.75629 0.17473,-0.3257 0.38652,-1.96141 0.47066,-3.6349 l 0.15297,-3.04271 0.75957,-0.0868 c 0.41777,-0.0477 1.04552,-0.015 1.39501,0.0727 l 0.63543,0.15948 -0.0721,4.82212 -0.0721,4.82211 -1.28238,0.0817 c -0.96178,0.0613 -1.36346,-0.0292 -1.60668,-0.36181 -0.29347,-0.40135 -0.39793,-0.40585 -1.09887,-0.0474 -1.23815,0.63315 -2.28555,0.73478 -3.41027,0.3309 z m 12.36577,0.13661 c -1.20415,-0.28609 -2.11087,-0.94036 -2.59163,-1.87004 -0.54205,-1.04822 -0.3329,-1.31265 1.03825,-1.31265 0.80694,0 1.27548,0.15632 1.62451,0.542 0.67959,0.75094 2.334,0.63368 2.44925,-0.17359 0.0861,-0.60296 -0.42061,-0.88617 -2.56882,-1.43582 -3.12289,-0.79905 -3.59671,-3.978 -0.80786,-5.42017 1.05848,-0.54736 3.36793,-0.49991 4.47139,0.0919 0.8928,0.47884 1.9746,2.04101 1.7099,2.46929 -0.2776,0.44927 -2.23785,0.22693 -3.00595,-0.34095 -0.98568,-0.72874 -2.20561,-0.51562 -2.07826,0.36307 0.0666,0.45991 0.50204,0.71673 2.17641,1.28382 2.3652,0.80106 3.0515,1.4583 3.0604,2.9309 0.013,2.21234 -2.56488,3.56429 -5.47759,2.87226 z m 10.14129,-0.0179 c -0.992,-0.29684 -2.2444,-1.4822 -2.706,-2.56102 -0.2004,-0.46827 -0.3624,-1.59937 -0.36,-2.51354 0,-1.85654 0.6637,-3.34166 1.8837,-4.24605 1.0179,-0.75465 2.9248,-0.90038 4.2083,-0.32162 0.9762,0.44025 1.082,0.4427 1.5319,0.0356 0.5869,-0.53113 2.2462,-0.57585 2.6645,-0.0718 0.2089,0.25174 0.2808,1.79612 0.2309,4.96094 l -0.073,4.59541 -1.3141,0.083 c -0.9619,0.0607 -1.3958,-0.0286 -1.6187,-0.33345 -0.2746,-0.3755 -0.4185,-0.36472 -1.464,0.10964 -1.2542,0.56908 -1.8001,0.61719 -2.9839,0.26295 z m 3.5646,-3.14448 c 1.5751,-1.57512 0.6826,-4.25368 -1.4174,-4.25368 -1.3103,0 -2.1748,1.01675 -2.1748,2.55776 0,0.97824 0.1332,1.30683 0.7423,1.83077 0.9931,0.85421 1.904,0.81112 2.8499,-0.13485 z m 27.867,2.91509 c -3.3954,-1.54205 -3.6287,-7.0314 -0.3914,-9.213 1.1445,-0.77126 2.9896,-0.80596 4.1825,-0.0787 0.8523,0.51968 0.8551,0.51964 1.1412,-0.0148 0.2364,-0.44176 0.5043,-0.52175 1.5268,-0.45581 l 1.24,0.0799 0.072,4.96094 0.072,4.96094 h -1.3156 c -0.9476,0 -1.384,-0.12215 -1.56,-0.43663 -0.2232,-0.39892 -0.3459,-0.38749 -1.4196,0.13229 -1.4308,0.69265 -2.1369,0.70554 -3.5479,0.0648 z m 3.9966,-2.73742 c 0.4574,-0.39345 0.7413,-0.95933 0.8362,-1.66657 0.3036,-2.26406 -2.202,-3.67363 -3.7603,-2.11535 -0.9607,0.96071 -0.9052,2.57509 0.124,3.60425 0.9319,0.93195 1.8551,0.99053 2.8001,0.17767 z m 16.1118,2.74987 c -3.4116,-1.58851 -3.6426,-7.03448 -0.3915,-9.22545 1.0481,-0.70629 3.0734,-0.81776 3.8728,-0.21315 0.6739,0.50973 1.344,0.50704 1.5409,-0.006 0.1189,-0.3097 0.4695,-0.39151 1.4174,-0.33073 l 1.2595,0.0807 0.072,4.96094 0.072,4.96094 h -1.3657 c -0.9578,0 -1.4601,-0.12899 -1.6815,-0.43187 -0.289,-0.39512 -0.3702,-0.39626 -0.9552,-0.0134 -1.0692,0.69977 -2.6174,0.78771 -3.8406,0.21814 z m 3.4358,-2.40736 c 2.2482,-0.85474 1.5734,-4.77386 -0.822,-4.77386 -2.1,0 -2.9925,2.67856 -1.4174,4.25368 0.8304,0.83044 1.1985,0.91594 2.2394,0.52018 z m -93.32389,2.45808 c -0.097,-0.097 -0.17639,-2.88224 -0.17639,-6.1894 0,-6.64618 -0.0864,-6.33421 1.75406,-6.33421 1.14132,0 1.51181,0.39534 3.93448,4.1984 1.01864,1.59905 2.00091,2.97171 2.18281,3.05035 0.25478,0.11014 0.33073,-0.63283 0.33073,-3.23539 0,-2.27484 0.10371,-3.48207 0.3175,-3.69586 0.41076,-0.41076 2.12924,-0.41076 2.54,0 0.33548,0.33548 0.47704,11.12972 0.1569,11.96398 -0.11888,0.30981 -0.53002,0.41852 -1.58282,0.41852 h -1.42223 l -2.39662,-3.58088 c -1.31815,-1.96948 -2.51088,-3.51026 -2.65052,-3.42396 -0.14095,0.0871 -0.25388,1.67984 -0.25388,3.58087 v 3.42397 h -1.27882 c -0.70335,0 -1.35819,-0.0794 -1.4552,-0.17639 z m 48.30259,-4.77052 0.072,-4.97497 1.0919,-0.0798 c 0.7525,-0.055 1.23,0.0583 1.536,0.36429 0.4157,0.4157 0.5101,0.4143 1.4775,-0.0219 1.3661,-0.61602 3.2181,-0.42204 4.1472,0.43437 1.1723,1.08056 1.4046,2.03848 1.4046,5.79066 v 3.46191 l -1.389,-0.08 -1.3891,-0.08 -0.1413,-3.04271 c -0.078,-1.67349 -0.2352,-3.24017 -0.3498,-3.4815 -0.4998,-1.05255 -2.6128,-1.1648 -3.2535,-0.17284 -0.1233,0.19088 -0.2837,1.7758 -0.3564,3.52205 l -0.1323,3.175 -1.395,0.0802 -1.3949,0.0802 z m 14.33,4.69372 c -1.2894,-0.5351 -1.6899,-1.50003 -1.6943,-4.08197 0,-2.52572 -0.098,-2.87069 -0.8558,-3.15032 -0.337,-0.12432 -0.463,-0.46348 -0.463,-1.24577 0,-0.78229 0.126,-1.12145 0.463,-1.24577 0.655,-0.24168 0.8512,-0.61128 0.8558,-1.61233 v -0.87372 l 1.389,0.08 1.3891,0.08 0.1323,1.05834 c 0.1104,0.8837 0.2414,1.07343 0.7937,1.14983 0.9397,0.12998 1.3229,0.52504 1.3229,1.36371 0,0.83867 -0.3832,1.23373 -1.3229,1.36371 -0.6465,0.0894 -0.6614,0.14236 -0.6614,2.34046 v 2.24895 l 0.926,0.29931 c 0.8472,0.27382 0.9261,0.38647 0.9261,1.32292 v 1.02361 l -1.323,0.0555 c -0.7276,0.0305 -1.5743,-0.0489 -1.8816,-0.17639 z m 17.5362,0.0768 c -0.097,-0.097 -0.1764,-2.28693 -0.1764,-4.86648 0,-5.17432 -0.057,-5.0113 1.7392,-5.0113 0.6156,0 1.0071,0.16808 1.2326,0.52917 0.3914,0.62669 0.6758,0.66174 1.2407,0.15291 0.2297,-0.20695 0.7451,-0.45798 1.1453,-0.55785 l 0.7276,-0.18159 v 1.61618 c 0,1.53927 -0.031,1.61618 -0.649,1.61618 -0.8795,0 -1.9316,0.50722 -2.1325,1.02803 -0.091,0.23495 -0.2341,1.64757 -0.319,3.13916 l -0.1542,2.71198 h -1.239 c -0.6814,0 -1.3183,-0.0794 -1.4153,-0.17639 z m -28.1589,-15.71838 c -1.9543,-0.37823 -3.4237,-1.58889 -3.5694,-2.9408 -0.06,-0.55462 0.054,-0.61891 1.2232,-0.69326 0.9865,-0.0627 1.4212,0.0388 1.8521,0.4326 1.6488,1.50684 3.8703,0.56439 3.8703,-1.64191 0,-0.89513 -0.2236,-0.97497 -1.1495,-0.41042 -2.5657,1.56446 -5.9314,-0.37973 -6.3866,-3.68918 -0.341,-2.4794 0.7179,-4.75276 2.6151,-5.61436 1.411,-0.64077 2.1171,-0.62787 3.5479,0.0648 1.0738,0.51977 1.1964,0.5312 1.4196,0.13229 0.1758,-0.31408 0.612,-0.43664 1.5542,-0.43664 h 1.3097 v 5.70168 c 0,5.95687 -0.093,6.52442 -1.288,7.88531 -0.9668,1.10071 -3.0089,1.595 -4.9986,1.20991 z m 2.5119,-7.90878 c 1.1414,-1.06334 1.0883,-3.02581 -0.1072,-3.96624 -0.9565,-0.75237 -1.8428,-0.67743 -2.753,0.23277 -1.5734,1.5734 -0.6827,4.25369 1.4136,4.25369 0.5174,0 1.1213,-0.21719 1.4466,-0.52022 z m -54.57381,2.84394 c -0.0741,-0.19323 -0.1027,-3.02754 -0.0634,-6.29846 l 0.0714,-5.94714 3.18498,-0.0738 c 2.91605,-0.0676 3.28468,-0.0211 4.36559,0.55048 0.91571,0.48424 1.29248,0.89425 1.67919,1.82736 0.72947,1.76014 0.43382,2.95655 -1.07984,4.36975 l -1.19694,1.1175 1.24037,2.11573 c 0.6822,1.16366 1.16458,2.23836 1.07196,2.38823 -0.0926,0.14988 -0.74859,0.2725 -1.4577,0.2725 -1.45915,0 -1.6166,-0.15451 -3.17942,-3.12001 -1.24026,-2.35343 -1.67814,-2.17796 -1.85007,0.74137 l -0.13229,2.24635 -1.25947,0.0807 c -0.86349,0.0554 -1.30185,-0.0297 -1.39428,-0.27057 z m 6.15948,-7.27077 c 0.44809,-0.60395 0.41774,-1.79512 -0.0558,-2.18809 -0.58707,-0.48723 -2.45103,-0.66307 -2.91826,-0.2753 -0.48912,0.40594 -0.53667,2.40108 -0.0687,2.88189 0.45005,0.46237 2.60953,0.16535 3.04271,-0.4185 z m 7.28889,7.07442 c -1.5201,-0.92686 -1.79354,-1.81453 -1.79632,-5.83154 l -0.002,-3.57188 1.29732,-0.0823 c 0.85872,-0.0545 1.37169,0.035 1.5173,0.26458 0.121,0.19078 0.22181,1.66788 0.22404,3.28244 0.004,2.60283 0.0644,2.99018 0.53663,3.41753 0.72964,0.66031 2.01019,0.61427 2.72327,-0.0979 0.52147,-0.52083 0.58963,-0.90391 0.66921,-3.76132 l 0.0886,-3.18142 1.36661,0.0792 1.36652,0.0792 v 4.8948 4.89479 l -1.15152,0.0827 c -0.80085,0.0575 -1.30204,-0.0535 -1.64578,-0.36461 -0.45919,-0.41557 -0.55864,-0.41674 -1.402,-0.0165 -1.21741,0.57769 -2.75869,0.54204 -3.7915,-0.0877 z m 12.19465,0.0145 c -1.4736,-0.89858 -2.07209,-2.04654 -2.17989,-4.18128 -0.15816,-3.13217 1.12093,-5.02461 3.72203,-5.50681 0.74906,-0.13886 1.27732,-0.0401 2.21619,0.41442 1.12321,0.54374 1.2544,0.55796 1.47705,0.16011 0.33833,-0.60456 2.73721,-0.61921 2.96791,-0.0181 0.2754,0.71775 0.1778,8.57998 -0.1133,9.12388 -0.3775,0.70541 -2.20651,0.71106 -2.80791,0.009 -0.4231,-0.49414 -0.44541,-0.49416 -1.25418,-10e-4 -1.07462,0.65529 -2.95338,0.65534 -4.0279,1.2e-4 z m 4.39202,-2.61533 c 0.39713,-0.32158 0.62931,-0.86923 0.72375,-1.70716 0.12542,-1.1127 0.06,-1.31278 -0.66733,-2.04008 -0.94367,-0.94368 -1.81806,-1.02708 -2.78594,-0.26575 -1.20844,0.95056 -1.175,3.50122 0.0553,4.22009 0.69568,0.40649 2.04555,0.30194 2.6742,-0.2071 z m 6.40597,2.80181 c -0.3348,-0.33487 -0.4723,-8.49625 -0.1569,-9.31815 0.2273,-0.59226 2.629,-0.58744 2.9611,0.006 0.2164,0.38669 0.3176,0.38289 1.1376,-0.0427 2.0404,-1.05904 4.4383,-0.32951 5.2969,1.61148 0.4376,0.98938 0.503,1.66423 0.4398,4.54528 l -0.074,3.38339 h -1.3229 -1.3229 l -0.1323,-3.26495 c -0.1228,-3.03149 -0.177,-3.30109 -0.7569,-3.77032 -0.846,-0.68447 -1.9345,-0.6403 -2.6366,0.10701 -0.5186,0.55201 -0.5753,0.89884 -0.5753,3.51896 0,1.9079 -0.1091,3.01568 -0.3175,3.22409 -0.4107,0.41076 -2.1292,0.41076 -2.54,0 z m 28.3819,-0.005 c -0.074,-0.19323 -0.1027,-3.02754 -0.063,-6.29847 l 0.071,-5.94714 3.0427,-0.0727 c 2.7287,-0.0652 3.1636,-0.0106 4.2138,0.52917 1.536,0.78946 2.2078,2.00766 2.0572,3.73043 -0.2033,2.324 -1.7948,3.61716 -4.4526,3.6179 -0.8954,2.5e-4 -1.6023,0.13698 -1.7733,0.34296 -0.1563,0.18841 -0.3197,1.2302 -0.3631,2.3151 l -0.079,1.97256 -1.2595,0.0807 c -0.8635,0.0554 -1.3019,-0.0297 -1.3943,-0.27057 z m 5.9081,-7.13915 c 0.1747,-0.17463 0.3175,-0.70766 0.3175,-1.18453 0,-1.11589 -0.8823,-1.74026 -2.2948,-1.624 -0.9914,0.0816 -1.0142,0.10735 -1.0953,1.23807 -0.046,0.63511 -0.019,1.31972 0.058,1.52135 0.1777,0.46283 2.5623,0.50168 3.0148,0.0491 z m 7.3028,6.9571 c -3.0183,-1.37076 -3.6569,-5.79691 -1.1919,-8.26185 1.662,-1.66202 4.5035,-1.95258 6.4506,-0.65963 1.0558,0.70111 2.0435,2.5946 2.0435,3.91754 v 0.99436 l -3.3702,0.074 c -2.9168,0.0641 -3.3817,0.13415 -3.4558,0.52081 -0.1201,0.62632 0.874,1.53762 1.6774,1.53762 0.3697,0 1.0048,-0.24594 1.4114,-0.54652 0.9157,-0.67708 3.0209,-0.64487 3.1522,0.0482 0.1139,0.60084 -1.2079,2.08809 -2.2384,2.51865 -1.2055,0.50369 -3.1943,0.44008 -4.4788,-0.14325 z m 4.1232,-5.912 c -0.011,-0.85295 -1.2458,-1.61619 -2.22,-1.37167 -0.7929,0.19899 -1.5948,1.03818 -1.3581,1.42115 0.2559,0.41408 3.5832,0.36807 3.5781,-0.0495 z m 5.2197,6.25196 c -0.1037,-0.10372 -0.1886,-2.3714 -0.1886,-5.03928 v -4.8507 h 1.2905 c 0.8141,0 1.41,0.14394 1.6141,0.38991 0.2842,0.34241 0.4251,0.33721 1.1569,-0.0427 1.4918,-0.77453 3.168,-0.51846 4.9683,0.75903 0.3436,0.24379 0.5784,0.1897 1.1591,-0.26706 2.3033,-1.81182 5.7432,-0.86074 6.4801,1.79165 0.3798,1.3674 0.3399,6.71284 -0.053,7.10587 -0.5278,0.52772 -2.2673,0.39692 -2.5837,-0.19427 -0.1506,-0.28148 -0.2738,-1.76112 -0.2738,-3.28809 0,-2.68416 -0.023,-2.79452 -0.6972,-3.32469 -0.798,-0.62769 -1.132,-0.66801 -2.054,-0.24795 -0.9183,0.41843 -1.0127,0.75071 -1.1918,4.1975 l -0.1581,3.04271 -0.7596,0.0868 c -0.4177,0.0478 -1.0428,0.0157 -1.389,-0.0712 -0.6174,-0.15496 -0.6295,-0.21664 -0.6295,-3.20769 0,-2.92123 -0.029,-3.07829 -0.679,-3.72869 -0.5498,-0.54977 -0.8387,-0.64707 -1.5178,-0.51123 -1.4758,0.29514 -1.6269,0.65325 -1.772,4.19914 l -0.1323,3.23285 -1.2004,0.0783 c -0.6603,0.0431 -1.2854,-0.007 -1.3891,-0.11024 z m 20.794,-0.35334 c -1.6195,-0.98747 -1.8003,-1.55867 -1.8003,-5.68768 v -3.71667 l 1.3666,-0.0792 1.3666,-0.0792 0.089,3.18142 c 0.08,2.85741 0.1478,3.24049 0.6692,3.76132 0.7131,0.71217 1.9937,0.75821 2.7233,0.0979 0.4722,-0.42735 0.533,-0.8147 0.5366,-3.41753 0,-1.61456 0.1031,-3.09166 0.2241,-3.28244 0.1456,-0.22961 0.6586,-0.31906 1.5173,-0.26458 l 1.2973,0.0823 0.072,4.743 c 0.055,3.61746 -0.01,4.79375 -0.2646,4.95689 -0.583,0.37004 -2.1268,0.24059 -2.637,-0.22113 -0.458,-0.41444 -0.5498,-0.41444 -1.4189,0 -1.2334,0.58816 -2.7025,0.55894 -3.7412,-0.0744 z m 12.0696,-0.0841 c -1.8821,-1.26836 -2.7205,-3.69341 -2.0885,-6.04073 0.4319,-1.60386 1.2056,-2.59352 2.4799,-3.17226 1.3958,-0.63387 2.1841,-0.6284 3.4638,0.024 0.5697,0.29048 1.1246,0.43931 1.2331,0.33073 0.1084,-0.10857 0.233,-1.03085 0.2768,-2.0495 l 0.08,-1.85208 h 1.3229 1.3229 v 6.61458 6.61459 l -1.24,0.08 c -1.0225,0.0659 -1.2904,-0.014 -1.5268,-0.45582 -0.2861,-0.53444 -0.2889,-0.53448 -1.1412,-0.0148 -1.1929,0.7273 -3.038,0.69259 -4.1825,-0.0787 z m 4.4481,-2.56444 c 1.1414,-1.06334 1.0883,-3.02581 -0.1073,-3.96624 -0.9565,-0.75237 -1.8427,-0.67743 -2.7529,0.23277 -1.5734,1.5734 -0.6827,4.25369 1.4136,4.25369 0.5174,0 1.1213,-0.21719 1.4466,-0.52022 z m 8.0475,2.71719 c -1.9197,-0.94587 -2.9633,-4.11689 -2.1579,-6.55725 0.9386,-2.84385 3.9939,-4.08511 6.3138,-2.56504 0.5793,0.37957 0.6592,0.37543 0.9705,-0.0502 0.2597,-0.35514 0.6397,-0.44472 1.6216,-0.38217 l 1.2823,0.0817 0.072,4.743 c 0.055,3.61746 -0.01,4.79375 -0.2646,4.95689 -0.5766,0.36594 -2.1245,0.24276 -2.6234,-0.20877 -0.4398,-0.39795 -0.5451,-0.39795 -1.3838,0 -1.1553,0.54822 -2.6963,0.54094 -3.831,-0.0181 z m 4.3382,-2.84641 c 0.492,-0.492 0.6474,-0.92492 0.641,-1.78593 -0.013,-1.7441 -1.1445,-2.78733 -2.6619,-2.45405 -1.0113,0.22213 -1.6352,1.1864 -1.6352,2.52748 0,2.12973 2.2057,3.16288 3.6561,1.7125 z"
         id="path12461" /></g><path
       id="path12602"
       style="opacity:0;fill:#e2e8f0;stroke-width:0.765839;paint-order:markers fill stroke"
       d="m -449.57739,942.29236 h 29.4797 v 8.46231 h -29.4797 z" /></g></svg>
