<?xml version="1.0" encoding="UTF-8" standalone="no"?>
<!-- Created with Inkscape (http://www.inkscape.org/) -->

<svg
   width="13.170685mm"
   height="8.4623413mm"
   viewBox="0 0 13.170685 8.4623413"
   version="1.1"
   id="svg5"
   xml:space="preserve"
   inkscape:version="1.2.2 (732a01da63, 2022-12-09)"
   sodipodi:docname="portofolio logo.svg"
   xmlns:inkscape="http://www.inkscape.org/namespaces/inkscape"
   xmlns:sodipodi="http://sodipodi.sourceforge.net/DTD/sodipodi-0.dtd"
   xmlns="http://www.w3.org/2000/svg"
   xmlns:svg="http://www.w3.org/2000/svg"><sodipodi:namedview
     id="namedview7"
     pagecolor="#ffffff"
     bordercolor="#000000"
     borderopacity="0.25"
     inkscape:showpageshadow="2"
     inkscape:pageopacity="0.0"
     inkscape:pagecheckerboard="0"
     inkscape:deskcolor="#d1d1d1"
     inkscape:document-units="mm"
     showgrid="false"
     inkscape:zoom="2.0913616"
     inkscape:cx="-2261.2063"
     inkscape:cy="3613.6745"
     inkscape:window-width="1920"
     inkscape:window-height="991"
     inkscape:window-x="-9"
     inkscape:window-y="-9"
     inkscape:window-maximized="1"
     inkscape:current-layer="layer1"
     showguides="false" /><defs
     id="defs2" /><g
     inkscape:label="Layer 1"
     inkscape:groupmode="layer"
     id="layer1"
     transform="translate(406.20356,-942.28952)"><g
       id="g11898"
       style="fill:#e2e8f0;fill-opacity:1"
       transform="matrix(0.12023885,0,0,0.12023885,-570.78081,870.73706)"
       inkscape:export-filename="OneDrive\Desktop\partner7.png"
       inkscape:export-xdpi="96"
       inkscape:export-ydpi="96"><path
         style="fill:#e2e8f0;fill-opacity:1;stroke-width:0.264583"
         d="m 1461.7979,665.28876 c -0.2749,-0.27484 -0.2073,-2.18196 0.098,-2.75142 0.2052,-0.38353 0.5575,-0.51177 1.4057,-0.51177 0.8946,0 1.2807,-0.15548 1.8427,-0.74208 0.3911,-0.40815 0.7088,-0.97369 0.706,-1.25677 0,-0.28308 -0.6462,-3.00514 -1.4299,-6.04901 -0.7837,-3.04388 -1.3641,-5.69302 -1.2896,-5.88698 0.094,-0.24638 0.6821,-0.35266 1.9497,-0.35266 2.1541,0 2.0545,-0.12402 2.8699,3.57187 0.321,1.45521 0.6452,2.82443 0.7204,3.04271 0.08,0.23348 0.8634,-1.01927 1.9017,-3.04271 l 1.7651,-3.43958 h 2.1167 c 1.9578,0 2.1127,0.0397 2.0638,0.52917 -0.029,0.29104 -1.7278,3.68432 -3.7751,7.54062 -2.9916,5.63488 -3.9773,7.25821 -5.0208,8.26823 l -1.2984,1.25677 h -2.2245 c -1.2235,0 -2.3039,-0.0794 -2.4009,-0.17639 z m -70.621,-4.34793 c -2.1367,-0.33019 -3.723,-1.57816 -4.6749,-3.67776 -1.6885,-3.72452 0.6921,-8.43104 4.831,-9.55083 3.1536,-0.85323 6.8888,0.79378 7.6958,3.39344 0.1485,0.47838 0.018,0.69017 -0.6929,1.12371 -0.4817,0.29382 -1.2715,0.60898 -1.7551,0.70035 -0.7653,0.14462 -0.9713,0.0557 -1.5915,-0.68715 -1.2743,-1.52639 -3.6223,-1.0029 -4.4565,0.99357 -1.3034,3.11959 2.0812,5.47543 4.2133,2.93261 0.71,-0.84676 0.7472,-0.85797 1.7198,-0.51843 2.4408,0.85209 2.7165,1.55174 1.2509,3.17398 -1.6027,1.774 -3.9146,2.52221 -6.5399,2.11651 z m 11.5748,0.0186 c -2.2306,-0.32355 -3.3073,-1.48272 -3.3073,-3.56066 0,-2.52734 1.8032,-4.1069 5.2983,-4.6412 2.5584,-0.39111 2.9038,-0.49759 2.9038,-0.89523 0,-0.97937 -2.1074,-0.90904 -3.2669,0.10902 -0.4972,0.43657 -1.0221,0.79375 -1.1665,0.79375 -0.5462,10e-6 -2.7104,-1.38393 -2.7104,-1.73319 0,-0.59369 1.5868,-2.22443 2.7339,-2.80965 1.3344,-0.68073 3.6584,-0.90356 5.1672,-0.49544 0.6591,0.17827 1.6131,0.74021 2.2237,1.30976 0.947,0.88332 1.082,1.16143 1.1794,2.42918 0.06,0.7874 -0.1274,3.09345 -0.4175,5.12455 -0.6139,4.29847 -0.745,4.49669 -2.8169,4.26069 -1.8836,-0.21455 -2.2373,-0.21068 -3.5719,0.0391 -0.6548,0.12256 -1.6668,0.15376 -2.2489,0.0693 z m 3.5515,-3.85221 c 0.6879,-0.57877 1.1018,-1.43168 0.6948,-1.43168 -0.7064,0 -2.8268,0.65027 -3.068,0.94089 -0.9822,1.18343 1.0505,1.6038 2.3732,0.4908 z m 11.5455,3.81727 c -2.8687,-0.42229 -4.9298,-3.01684 -4.8904,-6.1563 0.024,-1.88838 0.3469,-2.87601 1.4511,-4.43303 1.6234,-2.28922 5.4739,-3.50453 7.8965,-2.49232 0.5677,0.23721 1.0582,0.39997 1.0899,0.36168 0.032,-0.0383 0.2002,-1.06358 0.3745,-2.27842 0.1743,-1.21484 0.3809,-2.37569 0.4592,-2.57968 0.1964,-0.51184 3.746,-0.52845 3.9417,-0.0184 0.074,0.19384 -0.3878,4.08172 -1.0271,8.63974 -1.3194,9.4076 -1.214,9.13915 -3.4903,8.88802 -1.8654,-0.20579 -1.979,-0.20437 -3.3073,0.0411 -0.6549,0.12103 -1.7789,0.13346 -2.4978,0.0276 z m 3.269,-4.04668 c 0.4097,-0.21187 0.9396,-0.79541 1.1775,-1.29676 1.2097,-2.54942 -0.4721,-4.88468 -2.9259,-4.06252 -1.3699,0.45902 -2.0655,1.51678 -2.0655,3.14098 0,1.12528 0.1125,1.42325 0.7423,1.96497 0.848,0.72943 1.9717,0.8221 3.0716,0.25333 z m 12.1677,4.07193 c -1.6544,-0.26073 -2.6593,-0.82559 -3.7635,-2.11561 -2.385,-2.78632 -1.7213,-7.57898 1.3799,-9.96442 1.4087,-1.08358 2.9237,-1.49208 4.8813,-1.31625 3.1932,0.2868 5.3065,2.56579 5.3246,5.7419 0.013,2.3498 -0.046,2.38017 -4.654,2.38017 -4.1447,0 -4.5674,0.14073 -3.4525,1.14962 0.6808,0.61613 2.2672,0.54468 3.4951,-0.15743 l 1.0411,-0.59532 1.2592,0.66146 c 0.6926,0.3638 1.2951,0.85394 1.339,1.0892 0.1273,0.68205 -1.1466,1.96941 -2.519,2.54566 -1.5846,0.66537 -2.7792,0.82562 -4.3312,0.58102 z m 3.4016,-9.04451 c -0.1796,-0.55134 -1.4868,-1.04238 -2.2996,-0.86385 -0.4163,0.0914 -0.9663,0.39761 -1.2222,0.68041 -0.457,0.50496 -0.4287,0.51417 1.5821,0.51417 1.519,0 2.0196,-0.0854 1.9397,-0.33073 z m -67.6036,8.88675 c -0.1819,-0.0734 -0.3307,-0.34262 -0.3307,-0.59827 0,-0.25565 1.764,-4.14503 3.92,-8.64306 l 3.9199,-8.17824 2.5653,-0.0758 c 2.4636,-0.0728 2.574,-0.0518 2.7871,0.52917 0.4658,1.26971 3.303,16.6093 3.1081,16.8042 -0.1127,0.11269 -1.0328,0.2049 -2.0446,0.2049 -2.0964,0 -2.2232,-0.10381 -2.4892,-2.03787 l -0.1746,-1.26943 h -2.8403 -2.8404 l -0.6312,1.34774 c -0.3472,0.74125 -0.8703,1.51516 -1.1625,1.71979 -0.5095,0.35686 -3.0615,0.48951 -3.7869,0.19683 z m 10.2526,-7.85044 c 0,-0.90311 -0.575,-3.61752 -0.7641,-3.60692 -0.1711,0.01 -1.894,3.68669 -1.8862,4.02582 0,0.10914 0.5998,0.19843 1.3274,0.19843 1.2095,0 1.3229,-0.0529 1.3229,-0.61733 z m 62.6083,7.6866 c -0.4392,-0.32118 -0.4201,-0.65216 0.3627,-6.27649 0.4545,-3.26558 0.9527,-6.08956 1.107,-6.27551 0.3273,-0.39437 3.2784,-0.46948 3.5133,-0.0894 0.09,0.1464 0.5561,0.0805 1.1322,-0.16022 1.3468,-0.56272 3.5414,-0.35872 4.6057,0.42812 l 0.8169,0.60396 1.0317,-0.57987 c 1.2749,-0.71652 3.5324,-0.97837 4.8074,-0.55759 1.2022,0.39675 2.4863,1.84282 2.7139,3.05612 0.267,1.42328 -0.8821,9.44773 -1.4119,9.85925 -0.5559,0.43176 -2.7393,0.42584 -3.334,-0.009 -0.4424,-0.32348 -0.4392,-0.52107 0.067,-4.12352 0.6416,-4.5691 0.543,-5.06173 -1.0134,-5.06173 -1.5338,0 -1.837,0.62945 -2.4568,5.10054 -0.3662,2.64201 -0.6466,3.86152 -0.9414,4.09373 -0.548,0.43179 -2.7331,0.42587 -3.3279,-0.009 -0.4424,-0.32348 -0.4392,-0.52107 0.067,-4.12352 0.6416,-4.5691 0.5429,-5.06173 -1.0134,-5.06173 -1.5364,0 -1.8438,0.63678 -2.4653,5.10645 -0.3626,2.6083 -0.6493,3.85821 -0.9375,4.08782 -0.5416,0.4315 -2.7284,0.42602 -3.3224,-0.008 z m -65.5317,-24.08157 c -7.6631,-2.17371 -8.0542,-13.22828 -0.5979,-16.89897 1.5494,-0.76279 1.9969,-0.85911 4.0395,-0.86962 2.0455,-0.0105 2.4675,0.0754 3.8546,0.78468 1.7254,0.88228 3.3002,2.6653 3.3002,3.73655 0,0.5405 -0.2566,0.7689 -1.4628,1.30235 -1.8632,0.82399 -2.1422,0.81253 -2.618,-0.10756 -0.6141,-1.18764 -1.6691,-1.73989 -3.3276,-1.74192 -1.7574,-0.002 -2.8853,0.59474 -3.9054,2.06675 -1.0112,1.45912 -1.1737,4.32801 -0.338,5.96617 1.0603,2.0782 4.0038,2.71715 6.2167,1.34948 0.697,-0.43079 1.4663,-1.48199 1.4663,-2.00368 0,-0.0659 -0.7511,-0.11984 -1.6692,-0.11984 -2.2836,0 -2.6988,-0.33612 -2.4707,-2.00039 0.097,-0.70704 0.2736,-1.38285 0.3925,-1.50179 0.119,-0.11895 2.0526,-0.18329 4.297,-0.14298 l 4.0806,0.0733 -0.075,1.71979 c -0.1584,3.63635 -1.7272,6.2353 -4.625,7.66184 -1.9844,0.97691 -4.6376,1.27059 -6.5579,0.72586 z m 24.9425,-0.0453 c -3.4027,-1.06256 -5.226,-4.58106 -4.2011,-8.10687 1.4987,-5.15533 8.1972,-6.92909 11.8638,-3.14153 2.6942,2.78315 2.386,7.0048 -0.7104,9.73034 -1.9829,1.74544 -4.4788,2.29043 -6.9523,1.51806 z m 3.9876,-4.11319 c 0.8347,-0.65662 1.3573,-2.14872 1.1374,-3.24797 -0.4093,-2.04651 -2.5556,-2.72744 -4.1352,-1.31196 -1.3858,1.24184 -1.4893,3.77537 -0.1913,4.6845 0.8226,0.57619 2.3753,0.51554 3.1891,-0.12457 z m -17.2483,3.99522 c -0.312,-0.19754 -0.2374,-1.17787 0.4772,-6.26986 0.4659,-3.31964 0.9743,-6.18901 1.1298,-6.37638 0.3832,-0.46173 3.0071,-0.44822 3.4423,0.0177 0.2815,0.30134 0.4769,0.29905 1.2271,-0.0144 0.4908,-0.20505 1.3271,-0.33656 1.8585,-0.29225 l 0.9661,0.0806 -0.033,1.55119 c -0.036,1.71095 -0.2713,2.01018 -1.5853,2.01664 -0.9407,0.005 -2.1498,0.84705 -2.4864,1.73243 -0.1256,0.33031 -0.4273,2.07084 -0.6705,3.86786 -0.2433,1.79701 -0.5629,3.41613 -0.7104,3.59803 -0.3085,0.3806 -3.0486,0.44765 -3.6158,0.0885 z m 25.9379,-0.11148 c -0.1615,-0.19456 -0.834,-3.00641 -1.4944,-6.24856 -0.9213,-4.52264 -1.1302,-5.98002 -0.8971,-6.26084 0.3962,-0.47735 3.2391,-0.49866 3.6304,-0.0272 0.1547,0.18635 0.4825,1.46628 0.7285,2.84427 0.246,1.378 0.536,2.60377 0.6444,2.72393 0.1083,0.12016 0.8646,-1.08672 1.6806,-2.68195 0.816,-1.59523 1.674,-2.97347 1.9066,-3.06274 0.612,-0.23485 2.5694,-0.1918 2.975,0.0654 0.1905,0.1208 0.6283,1.43981 0.9729,2.93112 0.3446,1.49131 0.69,2.77495 0.7676,2.85253 0.078,0.0776 0.7451,-1.14943 1.4835,-2.72669 0.7384,-1.57726 1.4873,-2.96306 1.6642,-3.07955 0.177,-0.1165 1.3338,-0.18665 2.5707,-0.1559 2.5858,0.0643 3.3854,-0.24125 3.6133,-1.38064 0.2274,-1.13709 0.6514,-1.34976 2.5152,-1.26154 l 1.6767,0.0794 0.08,1.24224 0.08,1.24224 1.1106,0.0807 1.1106,0.0807 0.08,1.24777 c 0.1166,1.8119 -0.2245,2.27882 -1.7355,2.37582 l -1.2551,0.0806 -0.3355,1.98438 c -0.1846,1.0914 -0.3036,2.34156 -0.2646,2.77812 0.064,0.71192 0.18,0.80739 1.1292,0.92604 l 1.0584,0.1323 0.081,1.41054 c 0.1062,1.85703 -0.1799,2.16143 -2.0314,2.16092 -1.8249,-5.3e-4 -3.1107,-0.60187 -3.9591,-1.85167 -0.579,-0.85292 -0.6162,-1.10364 -0.471,-3.175 0.087,-1.23693 0.2329,-2.74635 0.3249,-3.35427 0.1665,-1.10043 0.1633,-1.10569 -0.7249,-1.19063 -0.8039,-0.0769 -0.9021,-0.17697 -0.9925,-1.01135 -0.091,-0.83975 -0.3623,-0.39593 -2.9104,4.7625 l -2.8101,5.68854 -1.4552,0.0686 c -0.8004,0.0377 -1.6007,-0.0268 -1.7786,-0.14337 -0.1779,-0.11659 -0.6304,-1.63186 -1.0056,-3.36726 -0.3752,-1.73539 -0.7284,-3.20147 -0.7849,-3.25795 -0.057,-0.0565 -0.7777,1.24932 -1.6027,2.90177 -0.8251,1.65245 -1.6842,3.21282 -1.9093,3.46748 -0.5067,0.57329 -3.0157,0.65239 -3.4664,0.10929 z m 27.0014,-0.10929 c -0.2815,-0.5583 1.9459,-16.66711 2.3763,-17.18577 0.3765,-0.45365 3.2336,-0.45903 3.6089,-0.007 0.1957,0.23573 0.1931,0.94773 -0.01,2.38445 -0.1581,1.12659 -0.2392,2.0935 -0.1804,2.14867 0.059,0.0552 0.7024,-0.0208 1.43,-0.16891 2.5263,-0.51413 4.7824,0.72705 5.4654,3.00671 0.2656,0.8863 0.2241,1.77465 -0.2474,5.30386 -0.3114,2.33159 -0.7048,4.4061 -0.874,4.61003 -0.397,0.4783 -3.2401,0.50705 -3.6304,0.0367 -0.1954,-0.23537 -0.1188,-1.4907 0.2591,-4.24892 0.5119,-3.73655 0.5151,-3.93823 0.072,-4.42842 -0.783,-0.86524 -2.4338,-0.56667 -3.0304,0.54812 -0.1532,0.28622 -0.5065,2.13857 -0.7851,4.11634 -0.2787,1.97776 -0.6469,3.76491 -0.8183,3.97145 -0.4827,0.58166 -3.3339,0.51306 -3.6367,-0.0875 z m 19.5956,-7.38512 c -0.2543,-0.10259 -0.3307,-1.96411 -0.3307,-8.04891 v -7.91545 l -7.7391,-0.004 c -4.2565,-0.002 -7.8916,-0.10085 -8.078,-0.21915 -0.2536,-0.1609 -0.3203,-1.0765 -0.2646,-3.63397 l 0.074,-3.41887 h 8.202 8.2021 l 0.1323,3.175 0.1323,3.175 3.0266,0.0753 c 1.675,0.0417 3.1815,0.20382 3.3734,0.36312 0.4808,0.39897 0.5085,15.83058 0.029,16.30972 -0.3154,0.31535 -6.033,0.43569 -6.7601,0.14228 z m 10.7018,-10.73884 c -0.3975,-0.29497 -0.453,-1.17469 -0.5136,-8.13594 l -0.068,-7.80521 -7.9375,-0.13229 -7.9375,-0.13229 -0.074,-3.37344 -0.074,-3.37343 h 8.314 c 7.3371,0 8.3328,0.0492 8.4745,0.41851 0.088,0.23018 0.1606,1.65893 0.1606,3.175 v 2.75649 h 2.9898 c 1.9726,0 3.0978,0.10802 3.3073,0.3175 0.2327,0.23272 0.3175,2.42034 0.3175,8.19277 0,7.51526 -0.023,7.8878 -0.5118,8.14917 -0.7433,0.3978 -5.8959,0.35238 -6.4473,-0.0568 z"
         id="path11884" /><path
         style="fill:#e2e8f0;fill-opacity:1;stroke-width:0.264583"
         d="m 1462.2036,665.14765 c -0.3363,-0.3362 -0.4264,-1.73691 -0.157,-2.43898 0.1135,-0.29568 0.5095,-0.41852 1.3491,-0.41852 0.9883,0 1.3177,-0.13836 1.9561,-0.82173 0.4222,-0.45195 0.7676,-1.07005 0.7676,-1.37356 0,-0.30351 -0.5953,-2.85113 -1.3229,-5.66137 -0.7276,-2.81025 -1.3229,-5.40684 -1.3229,-5.77019 0,-0.62954 0.073,-0.66065 1.5551,-0.66065 0.9282,0 1.6604,0.13331 1.8164,0.33073 0.1438,0.1819 0.575,1.7494 0.9581,3.48333 0.6676,3.02058 0.8383,3.5515 1.0641,3.30765 0.056,-0.0606 0.7833,-1.47947 1.6161,-3.15296 0.8328,-1.67349 1.6983,-3.25106 1.9233,-3.50573 0.5863,-0.66334 3.7669,-0.67818 3.7669,-0.0176 0,0.68327 -7.1368,14.00316 -8.1155,15.1466 -0.4746,0.55446 -1.2718,1.20214 -1.7715,1.43928 -1.0598,0.50291 -3.6225,0.57425 -4.083,0.11366 z m -71.0196,-4.42969 c -2.8496,-0.56173 -4.9743,-3.15812 -4.963,-6.06479 0.014,-3.58343 2.7276,-6.51861 6.3251,-6.84158 2.6226,-0.23546 4.9613,0.88204 5.9838,2.85924 0.3356,0.64904 0.3326,0.78633 -0.025,1.14427 -0.2237,0.2237 -0.8831,0.54947 -1.4655,0.72394 -1.0243,0.3069 -1.0836,0.28993 -1.8253,-0.52209 -0.6427,-0.70368 -0.9581,-0.8393 -1.9518,-0.8393 -2.956,0 -4.4479,3.82734 -2.222,5.7003 1.1278,0.94898 2.5404,0.78729 3.8016,-0.43515 l 0.8894,-0.86203 1.3276,0.62179 c 0.7301,0.34199 1.3275,0.79857 1.3275,1.01462 0,0.7203 -1.3409,2.16285 -2.596,2.7928 -1.4275,0.71642 -3.1894,0.98724 -4.606,0.70798 z m 11.4354,0.005 c -1.9886,-0.39136 -2.9104,-1.52659 -2.9104,-3.58402 0,-2.0768 1.7965,-3.53658 5.0414,-4.09655 3.0971,-0.53444 3.1607,-0.55621 3.1607,-1.08239 0,-0.93185 -1.7715,-1.37625 -2.994,-0.75107 -0.3179,0.16255 -0.7817,0.54951 -1.0307,0.8599 l -0.4529,0.56434 -1.2512,-0.66146 c -0.6881,-0.3638 -1.293,-0.79529 -1.344,-0.95888 -0.1478,-0.47337 1.2189,-1.92191 2.4097,-2.55387 1.5261,-0.80994 4.9059,-0.83418 6.2497,-0.0448 1.4065,0.82628 2.1186,2.06164 2.1114,3.66285 -0.01,2.1848 -0.9813,8.15343 -1.3669,8.39796 -0.5243,0.33247 -2.4468,0.27107 -2.8076,-0.0897 -0.2395,-0.23949 -0.5292,-0.24567 -1.1774,-0.0251 -1.2808,0.43589 -2.5986,0.5673 -3.6378,0.36277 z m 3.4449,-3.06544 c 0.8185,-0.42327 1.3176,-1.12837 1.3176,-1.8614 0,-0.36746 -0.1705,-0.41364 -0.9922,-0.26873 -1.7925,0.31614 -2.6841,0.70232 -2.8535,1.23587 -0.3714,1.17014 1.0335,1.6671 2.5281,0.89426 z m 11.6947,3.02482 c -2.7372,-0.52948 -4.5447,-2.88891 -4.5447,-5.9325 0,-2.66302 1.4586,-5.0612 3.8171,-6.27605 1.4474,-0.74557 3.9504,-0.91926 5.2745,-0.36602 0.5677,0.23722 1.1032,0.36165 1.19,0.27651 0.087,-0.0851 0.3365,-1.24755 0.5547,-2.58316 l 0.3969,-2.42837 1.6571,-0.0788 c 1.1749,-0.0559 1.6944,0.0211 1.7855,0.26458 0.071,0.18889 -0.3866,4.01464 -1.0161,8.50167 -0.8105,5.77769 -1.2543,8.22774 -1.5209,8.39647 -0.5027,0.31815 -1.8972,0.30891 -2.7578,-0.0183 -0.4057,-0.15424 -0.8819,-0.16937 -1.1417,-0.0363 -0.7407,0.3795 -2.494,0.5125 -3.6946,0.28027 z m 3.5956,-3.69032 c 1.1079,-0.67546 1.7405,-2.12747 1.549,-3.55522 -0.1952,-1.4556 -1.1496,-2.25884 -2.6839,-2.25884 -2.9001,0 -4.4056,3.83789 -2.2252,5.6726 0.9821,0.82636 2.1557,0.87577 3.3601,0.14146 z m 11.6919,3.68082 c -1.5884,-0.30487 -3.1595,-1.44974 -3.9688,-2.89204 -0.9003,-1.60452 -0.9345,-4.60859 -0.071,-6.23988 2.1142,-3.99432 7.3421,-5.07061 10.2899,-2.11844 1.2839,1.28576 1.9522,3.47974 1.5198,4.98913 l -0.2484,0.86739 -4.1576,0.0729 c -3.8005,0.0666 -4.1576,0.11378 -4.1576,0.54919 0,0.26198 0.2756,0.73521 0.6124,1.05162 0.8052,0.75648 2.6822,0.78038 3.621,0.0461 0.8467,-0.66233 1.1574,-0.65605 2.4113,0.0487 1.2059,0.67771 1.2577,0.94936 0.3648,1.91276 -1.3002,1.40294 -3.9809,2.14151 -6.2157,1.71256 z m 3.9687,-8.54963 c 0,-0.20772 -0.3274,-0.63519 -0.7275,-0.94994 -0.5452,-0.42887 -0.9525,-0.53576 -1.6254,-0.42656 -0.8512,0.13813 -2.145,1.06442 -2.145,1.53571 0,0.12015 1.012,0.21846 2.249,0.21846 1.7718,0 2.2489,-0.0801 2.2489,-0.37767 z m -67.6672,8.40453 c -0.1819,-0.0734 -0.3307,-0.26634 -0.3307,-0.42875 0,-0.32859 6.9693,-15.05838 7.5696,-15.99863 0.3453,-0.54084 0.5858,-0.59531 2.6286,-0.59531 2.081,0 2.2673,0.0444 2.4998,0.59531 0.1381,0.32742 0.9255,4.09071 1.7497,8.36286 1.667,8.64025 1.6881,8.23164 -0.4248,8.23164 -1.6193,0 -1.9401,-0.27027 -2.2546,-1.89926 l -0.2703,-1.39993 h -3.0313 -3.0312 l -0.6697,1.40025 c -0.3684,0.77014 -0.8472,1.51245 -1.0641,1.6496 -0.4089,0.25847 -2.7902,0.31655 -3.371,0.0822 z m 10.3011,-6.84065 c 0.2275,-0.22743 -0.7151,-5.02564 -0.979,-4.98371 -0.3165,0.0503 -2.508,4.76872 -2.3078,4.9689 0.1887,0.18865 3.0999,0.20177 3.2868,0.0148 z m 62.4252,6.6575 c -0.223,-0.2686 -0.095,-1.80505 0.5105,-6.13298 0.4444,-3.17603 0.8683,-5.87226 0.9421,-5.99162 0.2038,-0.32973 2.8653,-0.25921 3.2095,0.085 0.2264,0.22636 0.5315,0.1932 1.2174,-0.13229 1.3546,-0.64278 2.9323,-0.55013 4.42,0.25957 l 1.2749,0.69393 0.9602,-0.59343 c 0.6265,-0.38721 1.5291,-0.63472 2.5973,-0.71225 2.115,-0.1535 3.2346,0.41504 4.143,2.10396 l 0.6538,1.21545 -0.5934,4.45077 c -0.6606,4.95535 -0.74,5.11223 -2.5844,5.11223 -1.7148,0 -1.7688,-0.20003 -1.1805,-4.37554 0.6235,-4.42583 0.4959,-4.97113 -1.193,-5.0957 -1.8013,-0.13287 -2.1523,0.49549 -2.7907,4.99636 -0.6031,4.25212 -0.728,4.47488 -2.5087,4.47488 -1.7155,0 -1.7694,-0.19916 -1.1879,-4.39034 0.6148,-4.43166 0.4922,-4.95715 -1.1856,-5.0809 -1.8014,-0.13287 -2.1523,0.49549 -2.7907,4.99636 -0.3872,2.73012 -0.663,3.90738 -0.971,4.14415 -0.5738,0.44125 -2.5693,0.4225 -2.9428,-0.0276 z M 1376.8225,636.396 c -2.4235,-0.6369 -4.3287,-2.23373 -5.3872,-4.51531 -0.5537,-1.19355 -0.6838,-1.87419 -0.6861,-3.58949 0,-1.8251 0.1115,-2.35936 0.8272,-3.87843 0.9888,-2.09874 2.4982,-3.64276 4.5424,-4.64662 1.2832,-0.63016 1.8192,-0.73495 3.7464,-0.7324 2.7098,0.004 4.1496,0.59582 5.7993,2.38553 1.5924,1.72754 1.4852,2.20812 -0.7038,3.15667 l -1.1222,0.48628 -1.1268,-1.20007 c -0.8577,-0.91362 -1.388,-1.24309 -2.2214,-1.3803 -2.273,-0.37423 -4.345,0.74526 -5.3954,2.91504 -0.8463,1.74817 -0.6824,4.66757 0.337,6.00411 1.7804,2.33419 5.8919,2.25251 7.3544,-0.1461 0.838,-1.37428 0.7222,-1.50851 -1.3012,-1.50851 -2.2303,0 -2.5511,-0.27803 -2.2945,-1.98877 l 0.1799,-1.19982 4.0177,0.0729 4.0176,0.0729 -0.071,1.5875 c -0.1017,2.28072 -0.723,3.89673 -2.077,5.40275 -1.5712,1.74757 -3.4655,2.65967 -5.8172,2.801 -1.0035,0.0603 -2.1817,0.0158 -2.6183,-0.099 z m 24.454,-0.1644 c -1.3164,-0.42285 -2.8884,-1.78302 -3.6107,-3.12409 -0.3052,-0.56678 -0.4587,-1.46113 -0.4634,-2.69965 -0.01,-1.59168 0.1085,-2.05569 0.8144,-3.30025 2.0791,-3.66549 6.9858,-4.77195 10.2078,-2.30181 2.8047,2.15028 3.1206,6.55987 0.6699,9.35104 -1.7467,1.98942 -5.0677,2.8939 -7.618,2.07476 z m 4.3912,-3.92433 c 2.0316,-2.03158 1.1957,-5.47128 -1.3296,-5.47128 -2.0852,0 -3.3129,1.34947 -3.2978,3.62488 0.012,1.86837 0.8502,2.70222 2.73,2.71707 0.8069,0.006 1.2013,-0.17461 1.8974,-0.87067 z m -17.4935,3.68603 c -0.2234,-0.58214 1.489,-11.90872 1.8335,-12.1279 0.1697,-0.10797 0.8682,-0.19813 1.5522,-0.20036 0.8893,-0.003 1.314,0.12175 1.4907,0.4375 0.2308,0.41235 0.3087,0.41235 1.1776,0 0.5118,-0.24285 1.359,-0.44155 1.8827,-0.44155 0.9084,0 0.9522,0.0418 0.9522,0.90881 0,1.60507 -0.403,2.26606 -1.3825,2.26718 -1.2262,10e-4 -2.478,0.84651 -2.8096,1.89676 -0.1529,0.4842 -0.4738,2.24959 -0.7131,3.92308 -0.2393,1.67349 -0.5578,3.19154 -0.7078,3.37344 -0.3874,0.47003 -3.0931,0.4395 -3.2759,-0.037 z m 26.1586,0.15306 c -0.3661,-0.23257 -2.8106,-11.85624 -2.5739,-12.23917 0.244,-0.39486 2.9245,-0.29686 3.2701,0.11956 0.2188,0.26366 1.3487,5.22117 1.3487,5.91757 0,0.0367 0.118,0.0667 0.2622,0.0667 0.1442,0 0.8715,-1.22039 1.6163,-2.71198 0.7447,-1.49159 1.5382,-2.92034 1.7632,-3.175 0.4873,-0.55154 2.7658,-0.6468 3.1643,-0.13229 0.1409,0.1819 0.5351,1.61065 0.8761,3.175 0.3409,1.56434 0.7218,2.84427 0.8463,2.84427 0.1245,0 0.9057,-1.39899 1.736,-3.10886 l 1.5096,-3.10885 1.5599,-0.0805 c 0.8579,-0.0443 1.678,0.0376 1.8223,0.18188 0.2618,0.26183 -4.738,11.01026 -5.5835,12.00331 -0.2743,0.32215 -0.7815,0.46302 -1.6669,0.46302 -1.553,0 -1.5544,-0.002 -2.3394,-3.83646 -0.3277,-1.60073 -0.6877,-3.00906 -0.8,-3.12962 -0.1123,-0.12056 -1.0002,1.3059 -1.9732,3.16992 -0.9729,1.86402 -1.9101,3.47889 -2.0826,3.58859 -0.4117,0.26179 -2.34,0.25685 -2.7555,-0.007 z m 20.8625,-0.23779 c -0.4917,-0.2422 -1.1255,-0.80503 -1.4086,-1.25074 -0.4569,-0.71934 -0.4937,-1.09279 -0.3277,-3.32393 0.3285,-4.41722 0.3344,-4.35419 -0.4125,-4.45417 -0.9847,-0.13181 -1.1187,-0.38675 -0.9156,-1.74122 0.1626,-1.08423 0.2945,-1.27798 1.0985,-1.61391 0.6673,-0.27884 1.0263,-0.66856 1.3315,-1.4456 l 0.4179,-1.06385 h 1.6997 1.6996 l -0.078,1.25677 -0.079,1.25677 1.1831,0.1323 c 1.1204,0.12529 1.1875,0.1797 1.2686,1.02879 0.047,0.49308 0.015,1.17769 -0.071,1.52136 -0.1348,0.53718 -0.3186,0.62485 -1.31,0.62485 -0.6342,0 -1.2814,0.15456 -1.4382,0.34347 -0.1568,0.18891 -0.43,1.43194 -0.6071,2.76229 -0.367,2.75669 -0.2231,3.1593 1.1778,3.29509 0.7422,0.0719 0.8502,0.18601 0.9258,0.97794 0.047,0.49308 0.015,1.17769 -0.071,1.52136 -0.1422,0.56678 -0.2977,0.62429 -1.6731,0.61882 -0.8682,-0.003 -1.8984,-0.19424 -2.4102,-0.44639 z m 6.1285,0.12169 c -0.3454,-0.44948 1.9282,-16.63161 2.3768,-16.91654 0.5217,-0.33137 2.7492,-0.24684 3.0434,0.1155 0.1699,0.20916 0.1876,0.817 0.048,1.65364 -0.1212,0.72761 -0.2275,1.76218 -0.2362,2.29905 l -0.016,0.97612 1.2012,-0.40927 c 2.5959,-0.88452 5.3709,0.51984 5.8266,2.94865 0.1846,0.98436 -0.7119,8.81198 -1.0769,9.40264 -0.2355,0.38103 -2.9249,0.3232 -3.2456,-0.0698 -0.1857,-0.22763 -0.1083,-1.48291 0.2483,-4.0266 0.5726,-4.08356 0.4743,-4.76314 -0.7328,-5.06609 -0.3892,-0.0977 -1.0061,-0.0712 -1.371,0.0588 -1.2406,0.44214 -1.6133,1.34033 -2.1547,5.19306 -0.2808,1.99853 -0.5854,3.7547 -0.6768,3.9026 -0.2396,0.38779 -2.9287,0.33639 -3.2347,-0.0618 z m 19.5701,-7.51742 c -0.2543,-0.10259 -0.3308,-1.9641 -0.3308,-8.0489 v -7.91545 l -7.739,-0.004 c -4.2565,-0.002 -7.8919,-0.101 -8.0786,-0.21949 -0.2525,-0.1602 -0.3203,-1.02403 -0.2646,-3.36938 l 0.075,-3.15396 h 7.9375 7.9375 l 0.074,3.24115 0.074,3.24114 h 3.1576 c 2.851,0 3.1841,0.0497 3.4314,0.51178 0.1695,0.3167 0.2739,3.24793 0.2739,7.69031 0,4.44237 -0.1044,7.3736 -0.2739,7.69031 -0.2458,0.45927 -0.5647,0.50963 -3.1088,0.49088 -1.5593,-0.0115 -2.9838,-0.0809 -3.1657,-0.15434 z m 10.5794,-18.67633 0.07,-8.00365 h 3.0427 3.0428 l 0.07,8.00365 0.07,8.00364 h -3.1828 -3.1827 z m -16.3058,-8.55445 c -0.2371,-0.61793 -0.1874,-5.47962 0.06,-5.86942 0.1652,-0.26027 1.946,-0.31917 7.9996,-0.26458 l 7.7871,0.0702 0.074,3.24114 0.074,3.24115 h -7.9174 c -6.9755,0 -7.9364,-0.0498 -8.0779,-0.41851 z"
         id="path11886" /><path
         style="fill:#e2e8f0;fill-opacity:1;stroke-width:0.264583"
         d="m 1462.7306,665.20067 c -0.5234,-0.22199 -0.599,-0.42004 -0.5292,-1.38632 l 0.082,-1.12732 1.2999,-0.14925 c 1.0609,-0.12179 1.438,-0.3146 2.0506,-1.04833 0.4128,-0.49451 0.7475,-1.08219 0.7437,-1.30597 0,-0.22378 -0.6436,-2.93213 -1.4218,-6.01856 -0.7782,-3.08644 -1.3506,-5.67604 -1.272,-5.75469 0.079,-0.0786 0.7818,-0.14299 1.5624,-0.14299 0.984,0 1.4638,0.11558 1.564,0.37679 0.08,0.20723 0.4636,1.78481 0.8535,3.50573 0.4718,2.08246 0.8273,3.12893 1.0628,3.12893 0.1946,0 1.1463,-1.54781 2.1148,-3.43958 l 1.7609,-3.43958 1.6536,-0.0788 c 1.2603,-0.06 1.6537,0.007 1.6537,0.28285 0,0.48855 -6.9084,13.46035 -7.7707,14.59079 -1.3053,1.71139 -3.8644,2.6608 -5.4077,2.00627 z m -72.1709,-4.85584 c -2.523,-0.82627 -4.0848,-3.01643 -4.0741,-5.7134 0.015,-3.7572 2.9381,-6.62811 6.7411,-6.62038 1.9508,0.004 3.4077,0.62411 4.5663,1.94365 1.0175,1.15886 1.045,1.35413 0.2623,1.86039 -1.2674,0.81981 -1.977,0.79964 -2.8579,-0.0813 -0.677,-0.67695 -1.0313,-0.82076 -2.0222,-0.82076 -1.0428,0 -1.337,0.13561 -2.2286,1.02721 -0.9282,0.92816 -1.0272,1.15902 -1.0272,2.39438 0,1.80413 0.5409,2.80394 1.7292,3.19611 1.2266,0.4048 2.1705,0.15399 3.2199,-0.85558 0.8252,-0.79389 0.8743,-0.80587 1.8232,-0.44469 1.476,0.56176 1.668,1.06715 0.8252,2.17215 -1.3647,1.78923 -4.6359,2.70241 -6.9572,1.94218 z m 11.4084,-0.0387 c -3.385,-1.20564 -2.5755,-5.71089 1.2026,-6.69292 0.6427,-0.16705 2.0019,-0.45595 3.0206,-0.64201 1.5663,-0.2861 1.8646,-0.42621 1.9332,-0.90806 0.1028,-0.7207 -0.8432,-1.41496 -1.926,-1.41362 -0.709,7.9e-4 -1.4341,0.3502 -2.7911,1.34481 -0.3103,0.22744 -0.6288,0.16165 -1.3891,-0.2869 -0.5425,-0.3201 -0.9864,-0.67325 -0.9864,-0.78477 0,-0.54405 1.2908,-1.72945 2.4927,-2.28907 3.2445,-1.5108 7.2129,-0.2618 7.8951,2.48484 0.1886,0.75911 -0.8487,8.54328 -1.1977,8.98895 -0.321,0.40981 -2.1527,0.43407 -2.7886,0.0369 -0.3564,-0.22258 -0.7746,-0.19052 -1.7254,0.13229 -1.5169,0.515 -2.3583,0.52164 -3.7399,0.0295 z m 4.2232,-2.47168 c 0.9374,-0.5728 1.5936,-1.68116 1.3582,-2.29435 -0.174,-0.45363 -0.5268,-0.43281 -2.8914,0.17062 -1.3068,0.33351 -1.8226,1.29707 -1.1136,2.08048 0.5974,0.6602 1.61,0.67675 2.6468,0.0433 z m 11.0137,2.47197 c -3.0185,-0.94149 -4.4768,-4.317 -3.4159,-7.9074 0.4294,-1.45332 2.6212,-3.64517 4.0745,-4.07456 1.512,-0.44674 3.3306,-0.40173 4.6205,0.11435 1.337,0.53499 1.4332,0.42124 1.678,-1.98461 0.3082,-3.03011 0.2526,-2.94942 2.0339,-2.94942 1.0693,0 1.5596,0.10385 1.5613,0.33073 0.01,1.12848 -2.2262,16.00208 -2.4449,16.27187 -0.3147,0.38802 -2.1488,0.44101 -2.8206,0.0815 -0.3113,-0.16662 -0.8099,-0.12662 -1.504,0.12068 -1.2935,0.46086 -2.2978,0.46003 -3.7828,-0.003 z m 3.5873,-2.79635 c 1.8125,-0.68675 2.7782,-2.65476 2.2188,-4.52179 -0.658,-2.19646 -3.1851,-2.81919 -4.9317,-1.21527 -2.7815,2.55438 -0.6704,7.01893 2.7129,5.73706 z m 12.1219,2.94522 c -3.6888,-0.89804 -5.4569,-4.97788 -3.734,-8.61614 1.1995,-2.53301 3.2167,-3.84087 5.9083,-3.83065 3.3653,0.0128 5.6237,2.20424 5.6294,5.46266 0,1.70422 0.079,1.67528 -4.4008,1.67528 -4.4346,0 -4.778,0.1218 -4.0705,1.44383 0.684,1.2781 2.5984,1.56337 4.2525,0.63369 0.8866,-0.49828 1.1101,-0.52738 1.8132,-0.23612 1.5342,0.63547 1.5988,1.025 0.3535,2.13013 -1.5505,1.37598 -3.6181,1.85671 -5.7516,1.33732 z m 4.2904,-8.12401 c 0.055,-0.16589 -0.1814,-0.62861 -0.5251,-1.02827 -0.9167,-1.06567 -2.5841,-1.03174 -3.691,0.0751 -0.4498,0.44978 -0.7196,0.93461 -0.6147,1.1044 0.2513,0.40659 4.6922,0.26757 4.8308,-0.15123 z m -67.9227,7.74659 c 0,-0.19813 1.7017,-3.91883 3.7817,-8.26823 l 3.7817,-7.90799 2.2908,-0.0763 2.2908,-0.0762 0.259,1.0023 c 0.6553,2.53624 2.9534,15.01027 2.8263,15.34142 -0.1049,0.27336 -0.5451,0.35081 -1.6621,0.2924 l -1.5194,-0.0794 -0.3144,-1.42051 c -0.1729,-0.78128 -0.4235,-1.52964 -0.5569,-1.66304 -0.1334,-0.13339 -1.5421,-0.20854 -3.1303,-0.16699 l -2.8878,0.0755 -0.8745,1.65364 -0.8745,1.65365 h -1.7052 c -1.2623,0 -1.7052,-0.0936 -1.7052,-0.36024 z m 10.4972,-6.41164 c 0.1398,-0.36414 -0.1946,-2.92201 -0.6279,-4.80364 -0.2528,-1.09754 -0.7437,-0.61188 -1.8722,1.85208 -1.527,3.33427 -1.5199,3.37344 0.6101,3.37344 1.3376,0 1.7647,-0.0954 1.89,-0.42188 z m 62.3696,6.40301 c -0.1144,-0.29823 0.7335,-7.10033 1.364,-10.94207 0.1388,-0.84589 0.1642,-0.85989 1.5622,-0.85989 0.8895,0 1.4618,0.12176 1.5297,0.32544 0.081,0.24196 0.3882,0.19932 1.1988,-0.1662 1.4455,-0.65186 3.6122,-0.49172 4.8011,0.35485 l 0.8563,0.60979 1.3722,-0.69423 c 3.3251,-1.68238 6.7885,-0.14499 6.7885,3.01343 0,1.20435 -0.9691,8.1047 -1.188,8.45884 -0.2484,0.40197 -2.7705,0.33899 -2.9286,-0.0731 -0.072,-0.18813 0.051,-1.6376 0.2728,-3.22106 0.5391,-3.84047 0.5227,-4.97886 -0.08,-5.52402 -0.9365,-0.84756 -2.8112,-0.37375 -3.4822,0.88012 -0.1464,0.27341 -0.5054,2.12566 -0.7979,4.11609 -0.2925,1.99044 -0.5975,3.72517 -0.6777,3.85495 -0.2492,0.40332 -2.7589,0.28326 -2.9212,-0.13975 -0.079,-0.20665 0.043,-1.639 0.2729,-3.18302 0.5555,-3.73924 0.5405,-4.97876 -0.067,-5.52839 -0.9365,-0.84756 -2.8112,-0.37375 -3.4823,0.88012 -0.1463,0.27341 -0.5053,2.12566 -0.7978,4.11609 -0.2925,1.99044 -0.5975,3.72517 -0.6777,3.85495 -0.2461,0.39829 -2.7586,0.28387 -2.9186,-0.13291 z m -66.1442,-24.17511 c -3.377,-1.20761 -5.3769,-4.45576 -5.0596,-8.21748 0.1967,-2.33244 0.9449,-3.99208 2.5783,-5.7191 3.2589,-3.44586 8.6343,-3.75275 11.718,-0.66901 1.6393,1.63929 1.6127,2.27992 -0.1247,2.99834 l -1.2309,0.50902 -1.018,-1.06911 c -1.9652,-2.06385 -4.7421,-2.04567 -6.8293,0.0447 -3.1467,3.15145 -1.8471,8.87075 2.1588,9.50052 1.985,0.31207 3.9211,-0.4923 4.8585,-2.0186 0.8504,-1.38456 0.6353,-1.622 -1.6054,-1.77156 l -1.9819,-0.13229 -0.083,-1.01065 c -0.1374,-1.66863 0.091,-1.76748 4.0927,-1.76748 4.1475,0 4.052,-0.0723 3.5757,2.70524 -0.3782,2.20547 -0.9953,3.46115 -2.3372,4.75619 -2.137,2.06224 -5.9009,2.8664 -8.7118,1.86126 z m 25.1927,0.0782 c -3.9807,-1.4189 -5.1424,-6.92715 -2.1178,-10.04148 1.5316,-1.577 2.8483,-2.12435 5.1275,-2.13139 1.7042,-0.005 2.1626,0.0987 3.2471,0.7361 1.8302,1.07584 2.6689,2.47896 2.7928,4.6724 0.079,1.40215 -0.023,2.05522 -0.494,3.1496 -1.3562,3.15262 -5.244,4.79521 -8.5556,3.61477 z m 4.6215,-3.47106 c 1.4335,-1.37335 1.5679,-4.06688 0.2619,-5.24876 -0.7524,-0.68091 -2.4128,-0.82633 -3.4299,-0.3004 -2.2545,1.16586 -2.5825,4.95872 -0.5314,6.1443 0.994,0.57451 2.7782,0.28748 3.6994,-0.59514 z m 30.6674,3.61592 c -1.2812,-0.25317 -2.2672,-0.95849 -2.6576,-1.90122 -0.323,-0.7796 -0.2348,-3.94909 0.1777,-6.38775 0.1486,-0.87831 0.1056,-0.99218 -0.3743,-0.99218 -1.0477,0 -1.3792,-0.29299 -1.3792,-1.21894 0,-0.55511 0.1913,-1.05988 0.5012,-1.32259 1.6218,-1.3748 2.1446,-1.97461 2.1446,-2.46016 0,-0.62596 0.7719,-0.90378 2.1463,-0.7725 0.8672,0.0829 0.9008,0.12885 1.0287,1.40856 l 0.1323,1.32292 1.1907,0.13229 1.1906,0.13229 -0.085,1.05437 c -0.1145,1.41545 -0.4331,1.72376 -1.7813,1.72376 -1.3178,0 -1.2595,-0.11072 -1.7138,3.25421 -0.2861,2.11934 -0.2724,2.37446 0.1527,2.84427 0.2569,0.28385 0.8058,0.5161 1.2198,0.5161 0.7149,0 0.7528,0.0594 0.7528,1.18132 0,1.62393 -0.5062,1.90807 -2.6458,1.48525 z m -48.1542,-0.46276 c 0,-1.02162 1.371,-10.5879 1.5956,-11.1335 0.2072,-0.50313 0.4461,-0.59531 1.5429,-0.59531 1.0997,0 1.3201,0.0856 1.4444,0.56092 l 0.1467,0.56092 0.8763,-0.53724 c 0.482,-0.29548 1.2931,-0.57767 1.8024,-0.62707 0.8483,-0.0823 0.9333,-0.026 1.0129,0.66975 0.1617,1.41552 -0.1463,2.01855 -1.0311,2.01855 -1.0498,0 -2.1735,0.59735 -2.7345,1.45363 -0.2643,0.40324 -0.6583,2.10548 -0.9543,4.12187 -0.2773,1.88922 -0.5757,3.55072 -0.6631,3.69223 -0.088,0.1415 -0.8068,0.25727 -1.5986,0.25727 -1.1686,0 -1.4396,-0.0832 -1.4396,-0.44202 z m 25.9198,-0.15329 c -0.3945,-0.89434 -2.3872,-11.07207 -2.2206,-11.34165 0.08,-0.12863 0.7286,-0.23387 1.4425,-0.23387 1.5397,0 1.6482,0.14423 2.0908,2.77813 0.5111,3.04153 0.8051,3.95008 1.1633,3.59502 0.1713,-0.16981 1.0276,-1.64347 1.9029,-3.2748 l 1.5914,-2.96606 h 1.443 1.4431 l 0.7573,3.24115 c 0.4165,1.78263 0.8698,3.24114 1.0075,3.24114 0.1376,0 0.9536,-1.48828 1.8133,-3.30729 l 1.5632,-3.30729 h 1.6048 c 1.1193,0 1.5981,0.10006 1.5826,0.33073 -0.012,0.1819 -1.2922,2.89057 -2.8443,6.01927 l -2.8221,5.68854 -1.3752,0.0795 -1.3753,0.0795 -0.2662,-1.00554 c -0.2451,-0.92599 -1.3489,-5.90646 -1.3489,-6.08637 0,-0.0432 -0.1488,-0.078 -0.3307,-0.0774 -0.1819,5.3e-4 -1.1416,1.60795 -2.1327,3.57187 l -1.802,3.57077 h -1.3125 c -1.107,0 -1.3537,-0.0932 -1.5752,-0.59531 z m 27.1679,0.39348 c -0.1661,-0.26885 2.0372,-15.97703 2.3005,-16.40077 0.2214,-0.35633 2.7036,-0.46879 2.9117,-0.13193 0.068,0.10933 0,1.24161 -0.1581,2.51617 -0.1545,1.27456 -0.2211,2.37729 -0.1479,2.45051 0.073,0.0732 0.5643,-0.047 1.0913,-0.26721 2.9413,-1.22895 5.9996,0.57491 6.0041,3.54138 0,1.55575 -0.7512,7.11665 -1.0703,7.89837 -0.2061,0.50474 -0.4429,0.59531 -1.5561,0.59531 -0.7221,0 -1.3778,-0.10491 -1.457,-0.23314 -0.079,-0.12823 0.086,-1.86425 0.3666,-3.85782 0.3353,-2.37984 0.4292,-3.83897 0.2734,-4.24868 -0.472,-1.24143 -2.0992,-1.55763 -3.2713,-0.63567 -1.0227,0.80449 -1.1365,1.13228 -1.6018,4.61524 -0.631,4.72326 -0.4539,4.36007 -2.1258,4.36007 -0.789,0 -1.4907,-0.0908 -1.5593,-0.20183 z m 19.2633,-7.80521 c -0.071,-0.18376 -0.097,-3.72587 -0.058,-7.87135 l 0.07,-7.53723 3.2412,-0.0743 3.2411,-0.0743 v 7.94564 7.94565 h -3.1833 c -2.3198,0 -3.2181,-0.0906 -3.3115,-0.33413 z m 10.7904,-18.25285 0.07,-8.00365 h 3.0427 3.0428 l 0.07,8.00365 0.07,8.00364 h -3.1828 -3.1827 z m -26.8734,2.271 c -0.324,-0.32408 -0.1982,-5.78131 0.1411,-6.12069 0.2317,-0.23167 2.3001,-0.3175 7.6513,-0.3175 4.0336,0 7.5221,0.0723 7.7523,0.1606 0.3492,0.13399 0.4185,0.68199 0.4185,3.30729 v 3.14669 h -7.8934 c -4.3413,0 -7.9727,-0.0794 -8.0698,-0.17639 z m 10.5676,-10.82545 c -0.2371,-0.61793 -0.1874,-5.47962 0.06,-5.86942 0.1652,-0.26027 1.946,-0.31917 7.9996,-0.26458 l 7.7871,0.0702 0.074,3.24114 0.074,3.24115 h -7.9174 c -6.9755,0 -7.9364,-0.0498 -8.0779,-0.41851 z"
         id="path11888" /><path
         style="fill:#e2e8f0;fill-opacity:1;stroke-width:0.264583"
         d="m 1462.7306,665.20067 c -0.5234,-0.22199 -0.599,-0.42004 -0.5292,-1.38632 l 0.082,-1.12732 1.2999,-0.14925 c 1.0609,-0.12179 1.438,-0.3146 2.0506,-1.04833 0.4128,-0.49451 0.7475,-1.08219 0.7437,-1.30597 0,-0.22378 -0.6436,-2.93213 -1.4218,-6.01856 -0.7782,-3.08644 -1.3506,-5.67604 -1.272,-5.75469 0.079,-0.0786 0.7818,-0.14299 1.5624,-0.14299 0.984,0 1.4638,0.11558 1.564,0.37679 0.08,0.20723 0.4636,1.78481 0.8535,3.50573 0.4718,2.08246 0.8273,3.12893 1.0628,3.12893 0.1946,0 1.1463,-1.54781 2.1148,-3.43958 l 1.7609,-3.43958 1.6536,-0.0788 c 1.2603,-0.06 1.6537,0.007 1.6537,0.28285 0,0.48855 -6.9084,13.46035 -7.7707,14.59079 -1.3053,1.71139 -3.8644,2.6608 -5.4077,2.00627 z m -72.1709,-4.85584 c -2.523,-0.82627 -4.0848,-3.01643 -4.0741,-5.7134 0.015,-3.7572 2.9381,-6.62811 6.7411,-6.62038 1.9508,0.004 3.4077,0.62411 4.5663,1.94365 1.0175,1.15886 1.045,1.35413 0.2623,1.86039 -1.2674,0.81981 -1.977,0.79964 -2.8579,-0.0813 -0.677,-0.67695 -1.0313,-0.82076 -2.0222,-0.82076 -1.0428,0 -1.337,0.13561 -2.2286,1.02721 -0.9282,0.92816 -1.0272,1.15902 -1.0272,2.39438 0,1.80413 0.5409,2.80394 1.7292,3.19611 1.2266,0.4048 2.1705,0.15399 3.2199,-0.85558 0.8252,-0.79389 0.8743,-0.80587 1.8232,-0.44469 1.476,0.56176 1.668,1.06715 0.8252,2.17215 -1.3647,1.78923 -4.6359,2.70241 -6.9572,1.94218 z m 11.4084,-0.0387 c -3.385,-1.20564 -2.5755,-5.71089 1.2026,-6.69292 0.6427,-0.16705 2.0019,-0.45595 3.0206,-0.64201 1.5663,-0.2861 1.8646,-0.42621 1.9332,-0.90806 0.1028,-0.7207 -0.8432,-1.41496 -1.926,-1.41362 -0.709,7.9e-4 -1.4341,0.3502 -2.7911,1.34481 -0.3103,0.22744 -0.6288,0.16165 -1.3891,-0.2869 -0.5425,-0.3201 -0.9864,-0.67325 -0.9864,-0.78477 0,-0.54405 1.2908,-1.72945 2.4927,-2.28907 3.2445,-1.5108 7.2129,-0.2618 7.8951,2.48484 0.1886,0.75911 -0.8487,8.54328 -1.1977,8.98895 -0.321,0.40981 -2.1527,0.43407 -2.7886,0.0369 -0.3564,-0.22258 -0.7746,-0.19052 -1.7254,0.13229 -1.5169,0.515 -2.3583,0.52164 -3.7399,0.0295 z m 4.2232,-2.47168 c 0.9374,-0.5728 1.5936,-1.68116 1.3582,-2.29435 -0.174,-0.45363 -0.5268,-0.43281 -2.8914,0.17062 -1.3068,0.33351 -1.8226,1.29707 -1.1136,2.08048 0.5974,0.6602 1.61,0.67675 2.6468,0.0433 z m 11.0137,2.47197 c -3.0185,-0.94149 -4.4768,-4.317 -3.4159,-7.9074 0.4294,-1.45332 2.6212,-3.64517 4.0745,-4.07456 1.512,-0.44674 3.3306,-0.40173 4.6205,0.11435 1.337,0.53499 1.4332,0.42124 1.678,-1.98461 0.3082,-3.03011 0.2526,-2.94942 2.0339,-2.94942 1.0693,0 1.5596,0.10385 1.5613,0.33073 0.01,1.12848 -2.2262,16.00208 -2.4449,16.27187 -0.3147,0.38802 -2.1488,0.44101 -2.8206,0.0815 -0.3113,-0.16662 -0.8099,-0.12662 -1.504,0.12068 -1.2935,0.46086 -2.2978,0.46003 -3.7828,-0.003 z m 3.5873,-2.79635 c 1.8125,-0.68675 2.7782,-2.65476 2.2188,-4.52179 -0.658,-2.19646 -3.1851,-2.81919 -4.9317,-1.21527 -2.7815,2.55438 -0.6704,7.01893 2.7129,5.73706 z m 12.1219,2.94522 c -3.6888,-0.89804 -5.4569,-4.97788 -3.734,-8.61614 1.1995,-2.53301 3.2167,-3.84087 5.9083,-3.83065 3.3653,0.0128 5.6237,2.20424 5.6294,5.46266 0,1.70422 0.079,1.67528 -4.4008,1.67528 -4.4346,0 -4.778,0.1218 -4.0705,1.44383 0.684,1.2781 2.5984,1.56337 4.2525,0.63369 0.8866,-0.49828 1.1101,-0.52738 1.8132,-0.23612 1.5342,0.63547 1.5988,1.025 0.3535,2.13013 -1.5505,1.37598 -3.6181,1.85671 -5.7516,1.33732 z m 4.2904,-8.12401 c 0.055,-0.16589 -0.1814,-0.62861 -0.5251,-1.02827 -0.9167,-1.06567 -2.5841,-1.03174 -3.691,0.0751 -0.4498,0.44978 -0.7196,0.93461 -0.6147,1.1044 0.2513,0.40659 4.6922,0.26757 4.8308,-0.15123 z m -67.9227,7.74659 c 0,-0.19813 1.7017,-3.91883 3.7817,-8.26823 l 3.7817,-7.90799 2.2908,-0.0763 2.2908,-0.0762 0.259,1.0023 c 0.6553,2.53624 2.9534,15.01027 2.8263,15.34142 -0.1049,0.27336 -0.5451,0.35081 -1.6621,0.2924 l -1.5194,-0.0794 -0.3144,-1.42051 c -0.1729,-0.78128 -0.4235,-1.52964 -0.5569,-1.66304 -0.1334,-0.13339 -1.5421,-0.20854 -3.1303,-0.16699 l -2.8878,0.0755 -0.8745,1.65364 -0.8745,1.65365 h -1.7052 c -1.2623,0 -1.7052,-0.0936 -1.7052,-0.36024 z m 10.4972,-6.41164 c 0.1398,-0.36414 -0.1946,-2.92201 -0.6279,-4.80364 -0.2528,-1.09754 -0.7437,-0.61188 -1.8722,1.85208 -1.527,3.33427 -1.5199,3.37344 0.6101,3.37344 1.3376,0 1.7647,-0.0954 1.89,-0.42188 z m 62.3696,6.40301 c -0.1144,-0.29823 0.7335,-7.10033 1.364,-10.94207 0.1388,-0.84589 0.1642,-0.85989 1.5622,-0.85989 0.8895,0 1.4618,0.12176 1.5297,0.32544 0.081,0.24196 0.3882,0.19932 1.1988,-0.1662 1.4455,-0.65186 3.6122,-0.49172 4.8011,0.35485 l 0.8563,0.60979 1.3722,-0.69423 c 3.3251,-1.68238 6.7885,-0.14499 6.7885,3.01343 0,1.20435 -0.9691,8.1047 -1.188,8.45884 -0.2484,0.40197 -2.7705,0.33899 -2.9286,-0.0731 -0.072,-0.18813 0.051,-1.6376 0.2728,-3.22106 0.5391,-3.84047 0.5227,-4.97886 -0.08,-5.52402 -0.9365,-0.84756 -2.8112,-0.37375 -3.4822,0.88012 -0.1464,0.27341 -0.5054,2.12566 -0.7979,4.11609 -0.2925,1.99044 -0.5975,3.72517 -0.6777,3.85495 -0.2492,0.40332 -2.7589,0.28326 -2.9212,-0.13975 -0.079,-0.20665 0.043,-1.639 0.2729,-3.18302 0.5555,-3.73924 0.5405,-4.97876 -0.067,-5.52839 -0.9365,-0.84756 -2.8112,-0.37375 -3.4823,0.88012 -0.1463,0.27341 -0.5053,2.12566 -0.7978,4.11609 -0.2925,1.99044 -0.5975,3.72517 -0.6777,3.85495 -0.2461,0.39829 -2.7586,0.28387 -2.9186,-0.13291 z m -66.1442,-24.17511 c -3.377,-1.20761 -5.3769,-4.45576 -5.0596,-8.21748 0.1967,-2.33244 0.9449,-3.99208 2.5783,-5.7191 3.2589,-3.44586 8.6343,-3.75275 11.718,-0.66901 1.6393,1.63929 1.6127,2.27992 -0.1247,2.99834 l -1.2309,0.50902 -1.018,-1.06911 c -1.9652,-2.06385 -4.7421,-2.04567 -6.8293,0.0447 -3.1467,3.15145 -1.8471,8.87075 2.1588,9.50052 1.985,0.31207 3.9211,-0.4923 4.8585,-2.0186 0.8504,-1.38456 0.6353,-1.622 -1.6054,-1.77156 l -1.9819,-0.13229 -0.083,-1.01065 c -0.1374,-1.66863 0.091,-1.76748 4.0927,-1.76748 4.1475,0 4.052,-0.0723 3.5757,2.70524 -0.3782,2.20547 -0.9953,3.46115 -2.3372,4.75619 -2.137,2.06224 -5.9009,2.8664 -8.7118,1.86126 z m 25.1927,0.0782 c -3.9807,-1.4189 -5.1424,-6.92715 -2.1178,-10.04148 1.5316,-1.577 2.8483,-2.12435 5.1275,-2.13139 1.7042,-0.005 2.1626,0.0987 3.2471,0.7361 1.8302,1.07584 2.6689,2.47896 2.7928,4.6724 0.079,1.40215 -0.023,2.05522 -0.494,3.1496 -1.3562,3.15262 -5.244,4.79521 -8.5556,3.61477 z m 4.6215,-3.47106 c 1.4335,-1.37335 1.5679,-4.06688 0.2619,-5.24876 -0.7524,-0.68091 -2.4128,-0.82633 -3.4299,-0.3004 -2.2545,1.16586 -2.5825,4.95872 -0.5314,6.1443 0.994,0.57451 2.7782,0.28748 3.6994,-0.59514 z m 30.6674,3.61592 c -1.2812,-0.25317 -2.2672,-0.95849 -2.6576,-1.90122 -0.323,-0.7796 -0.2348,-3.94909 0.1777,-6.38775 0.1486,-0.87831 0.1056,-0.99218 -0.3743,-0.99218 -1.0477,0 -1.3792,-0.29299 -1.3792,-1.21894 0,-0.55511 0.1913,-1.05988 0.5012,-1.32259 1.6218,-1.3748 2.1446,-1.97461 2.1446,-2.46016 0,-0.62596 0.7719,-0.90378 2.1463,-0.7725 0.8672,0.0829 0.9008,0.12885 1.0287,1.40856 l 0.1323,1.32292 1.1907,0.13229 1.1906,0.13229 -0.085,1.05437 c -0.1145,1.41545 -0.4331,1.72376 -1.7813,1.72376 -1.3178,0 -1.2595,-0.11072 -1.7138,3.25421 -0.2861,2.11934 -0.2724,2.37446 0.1527,2.84427 0.2569,0.28385 0.8058,0.5161 1.2198,0.5161 0.7149,0 0.7528,0.0594 0.7528,1.18132 0,1.62393 -0.5062,1.90807 -2.6458,1.48525 z m -48.1542,-0.46276 c 0,-1.02162 1.371,-10.5879 1.5956,-11.1335 0.2072,-0.50313 0.4461,-0.59531 1.5429,-0.59531 1.0997,0 1.3201,0.0856 1.4444,0.56092 l 0.1467,0.56092 0.8763,-0.53724 c 0.482,-0.29548 1.2931,-0.57767 1.8024,-0.62707 0.8483,-0.0823 0.9333,-0.026 1.0129,0.66975 0.1617,1.41552 -0.1463,2.01855 -1.0311,2.01855 -1.0498,0 -2.1735,0.59735 -2.7345,1.45363 -0.2643,0.40324 -0.6583,2.10548 -0.9543,4.12187 -0.2773,1.88922 -0.5757,3.55072 -0.6631,3.69223 -0.088,0.1415 -0.8068,0.25727 -1.5986,0.25727 -1.1686,0 -1.4396,-0.0832 -1.4396,-0.44202 z m 25.9198,-0.15329 c -0.3945,-0.89434 -2.3872,-11.07207 -2.2206,-11.34165 0.08,-0.12863 0.7286,-0.23387 1.4425,-0.23387 1.5397,0 1.6482,0.14423 2.0908,2.77813 0.5111,3.04153 0.8051,3.95008 1.1633,3.59502 0.1713,-0.16981 1.0276,-1.64347 1.9029,-3.2748 l 1.5914,-2.96606 h 1.443 1.4431 l 0.7573,3.24115 c 0.4165,1.78263 0.8698,3.24114 1.0075,3.24114 0.1376,0 0.9536,-1.48828 1.8133,-3.30729 l 1.5632,-3.30729 h 1.6048 c 1.1193,0 1.5981,0.10006 1.5826,0.33073 -0.012,0.1819 -1.2922,2.89057 -2.8443,6.01927 l -2.8221,5.68854 -1.3752,0.0795 -1.3753,0.0795 -0.2662,-1.00554 c -0.2451,-0.92599 -1.3489,-5.90646 -1.3489,-6.08637 0,-0.0432 -0.1488,-0.078 -0.3307,-0.0774 -0.1819,5.3e-4 -1.1416,1.60795 -2.1327,3.57187 l -1.802,3.57077 h -1.3125 c -1.107,0 -1.3537,-0.0932 -1.5752,-0.59531 z m 27.1679,0.39348 c -0.1661,-0.26885 2.0372,-15.97703 2.3005,-16.40077 0.2214,-0.35633 2.7036,-0.46879 2.9117,-0.13193 0.068,0.10933 0,1.24161 -0.1581,2.51617 -0.1545,1.27456 -0.2211,2.37729 -0.1479,2.45051 0.073,0.0732 0.5643,-0.047 1.0913,-0.26721 2.9413,-1.22895 5.9996,0.57491 6.0041,3.54138 0,1.55575 -0.7512,7.11665 -1.0703,7.89837 -0.2061,0.50474 -0.4429,0.59531 -1.5561,0.59531 -0.7221,0 -1.3778,-0.10491 -1.457,-0.23314 -0.079,-0.12823 0.086,-1.86425 0.3666,-3.85782 0.3353,-2.37984 0.4292,-3.83897 0.2734,-4.24868 -0.472,-1.24143 -2.0992,-1.55763 -3.2713,-0.63567 -1.0227,0.80449 -1.1365,1.13228 -1.6018,4.61524 -0.631,4.72326 -0.4539,4.36007 -2.1258,4.36007 -0.789,0 -1.4907,-0.0908 -1.5593,-0.20183 z m 19.6727,-15.40858 v -7.67292 h 2.9104 2.9104 v 7.67292 7.67291 h -2.9104 -2.9104 z m -16.2278,-8.64306 c -0.097,-0.097 -0.1764,-1.40443 -0.1764,-2.90537 0,-2.61057 0.026,-2.7353 0.5953,-2.87447 0.3275,-0.08 3.81,-0.11205 7.7391,-0.0712 l 7.1438,0.0743 0.075,2.97657 0.075,2.97656 h -7.6375 c -4.2006,0 -7.7169,-0.0794 -7.8139,-0.17639 z"
         id="path11890" /><path
         style="fill:#e2e8f0;fill-opacity:1;stroke-width:0.264583"
         d="m 1462.7459,665.02534 c -0.1855,-0.0749 -0.3307,-0.58827 -0.3307,-1.16973 0,-0.97879 0.045,-1.03629 0.8069,-1.03629 1.1462,0 2.2265,-0.63447 2.8796,-1.69118 l 0.5626,-0.91027 -1.4492,-5.77688 c -0.7971,-3.17728 -1.3526,-5.87381 -1.2345,-5.99229 0.1182,-0.11847 0.737,-0.178 1.3752,-0.13229 l 1.1605,0.0831 0.7322,3.04271 c 0.4027,1.67349 0.794,3.31851 0.8694,3.6556 0.2657,1.1878 0.9581,0.42782 2.8485,-3.12644 l 1.8999,-3.57187 1.121,-0.0812 c 2.1705,-0.15719 2.1916,-0.2427 -1.7781,7.20886 -2.0109,3.77469 -3.9807,7.26986 -4.3774,7.76704 -1.1449,1.4348 -3.6809,2.29801 -5.0859,1.7311 z m -72.0744,-4.82929 c -2.0968,-0.68075 -3.5003,-2.24387 -3.8906,-4.33289 -0.5768,-3.08737 1.1636,-6.22615 4.0657,-7.33263 1.3265,-0.50575 3.8661,-0.39331 5.0777,0.22483 1.0489,0.53508 2.4617,1.94439 2.4617,2.45553 0,0.14147 -0.4971,0.47978 -1.1046,0.7518 l -1.1047,0.49459 -0.7071,-0.75695 c -1.6565,-1.77324 -4.27,-1.18314 -5.5179,1.24587 -0.4116,0.80123 -0.3714,2.61165 0.077,3.47947 0.8707,1.68371 3.1797,1.94686 4.777,0.54442 0.9914,-0.87047 1.6171,-0.9012 2.6539,-0.13032 0.4916,0.36546 0.5006,0.44565 0.1265,1.12824 -0.6785,1.2381 -2.6262,2.24973 -4.5441,2.36022 -0.9173,0.0529 -1.9842,-0.007 -2.3709,-0.13218 z m 10.9848,-0.267 c -1.2519,-0.56847 -1.8502,-1.82268 -1.5734,-3.29834 0.3289,-1.75298 2.1074,-2.81646 5.5792,-3.33615 2.9509,-0.44172 3.4272,-0.96271 2.0965,-2.29337 -0.5718,-0.57182 -0.8503,-0.65893 -1.7297,-0.54098 -0.5764,0.0773 -1.4732,0.46487 -1.9929,0.86122 -0.9212,0.70264 -0.9672,0.70995 -1.8422,0.29271 -1.1224,-0.53525 -1.1312,-0.98597 -0.037,-1.90827 1.2661,-1.06766 2.4562,-1.47751 4.3211,-1.48827 2.1391,-0.0123 3.7284,0.79245 4.4394,2.24806 0.4827,0.98825 0.4812,1.08797 -0.079,5.13894 -0.3141,2.27212 -0.6319,4.22962 -0.7063,4.35 -0.1983,0.32081 -2.3311,0.26724 -2.6653,-0.0669 -0.2047,-0.20472 -0.6353,-0.16717 -1.5174,0.13229 -1.6155,0.54849 -2.9468,0.5203 -4.2928,-0.0909 z m 4.2731,-1.72402 c 1.4078,-0.58821 2.5401,-2.78773 1.6174,-3.14181 -0.4095,-0.15711 -2.2897,0.20508 -3.4302,0.66074 -1.2659,0.50582 -1.4718,2.00658 -0.3498,2.54935 0.7887,0.38149 1.1105,0.37133 2.1626,-0.0683 z m 11.1098,1.83544 c -3.88,-1.3725 -4.6641,-6.98635 -1.4117,-10.10618 0.4854,-0.46556 1.3402,-1.03738 1.8995,-1.27069 1.3593,-0.56698 3.8525,-0.55877 5.0651,0.0167 0.5973,0.2834 1.054,0.36192 1.2082,0.2077 0.1364,-0.13638 0.3856,-1.25457 0.5537,-2.48487 0.1682,-1.23031 0.4214,-2.38575 0.5628,-2.56765 0.3667,-0.47202 2.2883,-0.42743 2.4744,0.0574 0.1531,0.39901 -1.901,15.61329 -2.1659,16.04182 -0.1856,0.30026 -2.2457,0.30651 -2.7161,0.008 -0.2028,-0.12855 -0.7612,-0.0759 -1.323,0.12473 -1.263,0.45109 -2.8239,0.44085 -4.147,-0.0272 z m 4.9386,-2.94938 c 2.4272,-2.19655 1.3816,-6.44463 -1.5855,-6.44161 -2.9616,0.003 -4.9153,3.86519 -3.0666,6.06224 1.1372,1.35143 3.3762,1.53403 4.6521,0.37937 z m 10.4072,3.02775 c -2.2822,-0.79775 -3.5719,-2.76965 -3.5719,-5.46134 0,-2.67454 1.217,-4.7102 3.5276,-5.90082 1.2258,-0.63158 3.9093,-0.70572 5.2511,-0.14508 1.7883,0.74718 2.9953,2.92303 2.8178,5.07959 l -0.087,1.05834 -3.7042,0.0644 c -5.1544,0.0896 -5.3252,0.15652 -4.5787,1.79511 0.6612,1.45109 2.4652,1.8137 4.3893,0.88225 1.108,-0.53634 1.2148,-0.54339 2.068,-0.13657 0.4947,0.23595 0.8996,0.53765 0.8996,0.67045 0,0.46795 -1.8497,1.85826 -2.8371,2.13245 -1.2421,0.34494 -3.1268,0.32745 -4.1744,-0.0387 z m 4.8808,-7.46907 c 0.7079,-0.853 -0.8214,-2.26587 -2.4526,-2.26587 -0.8142,0 -1.2118,0.18588 -1.9268,0.90092 -1.4042,1.40416 -1.0637,1.74492 1.7435,1.74492 1.694,0 2.4057,-0.10259 2.6359,-0.37997 z m -67.7193,7.25939 c 0,-0.511 7.2251,-15.4823 7.6294,-15.80911 0.4418,-0.35711 3.4129,-0.45139 3.9267,-0.1246 0.274,0.17423 3.2605,14.60344 3.2605,15.7527 0,0.36323 -0.2673,0.44534 -1.4501,0.44534 -1.3339,0 -1.4612,-0.0531 -1.5875,-0.66146 -0.076,-0.3638 -0.2065,-0.98822 -0.2909,-1.38759 -0.2747,-1.29897 -0.5077,-1.39082 -3.5169,-1.38649 -1.5465,0.002 -2.9554,0.0953 -3.1307,0.20673 -0.1754,0.11148 -0.6306,0.88356 -1.0116,1.71574 l -0.6927,1.51307 h -1.5681 c -0.868,0 -1.5681,-0.11802 -1.5681,-0.26433 z m 10.307,-5.80825 c 0.3311,-0.20945 0.3378,-0.53379 0.048,-2.31105 -0.4604,-2.82298 -0.8,-4.05179 -1.1196,-4.05179 -0.3144,0 -2.8759,5.2136 -2.8815,5.86493 0,0.24253 0.145,0.50103 0.3269,0.57443 0.5772,0.23289 3.2255,0.17701 3.6263,-0.0765 z m 62.4534,5.61657 c 0,-1.22582 1.4321,-10.8313 1.6578,-11.11951 0.4249,-0.54252 1.9639,-0.40559 2.3974,0.21329 l 0.381,0.54403 0.8908,-0.54304 c 1.3346,-0.81367 3.5108,-0.7487 4.8246,0.14404 l 1.014,0.68904 1.266,-0.68904 c 1.4804,-0.80575 3.7835,-0.93723 5.0395,-0.2877 1.6328,0.84431 1.8594,2.25423 1.1779,7.32861 -0.6028,4.48924 -0.454,4.17629 -1.9853,4.17629 -1.5495,0 -1.5139,0.14303 -0.921,-3.70417 0.5582,-3.62179 0.5202,-4.3986 -0.2526,-5.1714 -0.8038,-0.80385 -1.9432,-0.8432 -2.8884,-0.0997 -1.0227,0.80449 -1.1365,1.13229 -1.6018,4.61525 -0.6274,4.69584 -0.4727,4.36007 -2.0091,4.36007 -1.5476,0 -1.5015,0.1925 -0.9178,-3.83646 0.5382,-3.71471 0.5099,-4.27347 -0.2558,-5.03911 -0.8038,-0.80385 -1.9433,-0.8432 -2.8884,-0.0997 -1.0277,0.80838 -1.1528,1.1676 -1.6122,4.6293 -0.6224,4.68975 -0.4643,4.34602 -1.9987,4.34602 -1.071,0 -1.3179,-0.0854 -1.3179,-0.45601 z m -65.883,-23.86829 c -2.1728,-0.66093 -4.1729,-2.61171 -4.8894,-4.76871 -0.6068,-1.82702 -0.4486,-4.65735 0.363,-6.49345 0.7297,-1.65094 2.4027,-3.40052 4.1313,-4.32048 1.1644,-0.61972 1.624,-0.70421 3.8364,-0.70533 1.9467,-9.8e-4 2.7224,0.10995 3.4396,0.49195 1.1862,0.63179 2.326,1.69184 2.8049,2.60863 0.3682,0.70487 0.3535,0.73231 -0.6745,1.25677 -1.3673,0.69756 -1.7131,0.67633 -2.2466,-0.13792 -1.4728,-2.24768 -5.4508,-2.28995 -7.4596,-0.0793 -2.0508,2.25683 -2.2094,6.14919 -0.3373,8.2813 0.9991,1.13798 2.2491,1.55843 4.2111,1.41651 1.8172,-0.13145 3.2731,-1.07814 3.8756,-2.52016 0.5646,-1.35136 0.1773,-1.66179 -2.0733,-1.66179 h -1.8349 l 0.081,-1.12448 0.081,-1.12448 3.677,-0.0739 3.677,-0.0739 -0.1606,1.71979 c -0.4349,4.65756 -3.6412,7.59742 -8.2159,7.53332 -0.8928,-0.0125 -1.9217,-0.11352 -2.2865,-0.22447 z m 24.608,-0.17461 c -2.1484,-0.93058 -3.4428,-2.93693 -3.4338,-5.32232 0.018,-4.80266 4.993,-7.85136 9.436,-5.78271 4.3707,2.03497 4.1253,8.41613 -0.4149,10.78794 -1.6425,0.85806 -4.0261,0.99333 -5.5873,0.31709 z m 4.4062,-2.62317 c 1.0774,-0.70592 1.6771,-1.96518 1.6782,-3.5238 8e-4,-1.19997 -0.1119,-1.52233 -0.7588,-2.16926 -0.9617,-0.96169 -1.9221,-1.20375 -3.226,-0.81311 -2.9109,0.87213 -3.5797,5.6158 -0.958,6.79527 0.9753,0.43879 2.3379,0.31813 3.2646,-0.2891 z m 30.3966,2.64843 c -2.0613,-0.73419 -2.4569,-1.99415 -1.8644,-5.9387 0.2231,-1.4853 0.3376,-2.81061 0.2544,-2.94514 -0.083,-0.13453 -0.5081,-0.2446 -0.9445,-0.2446 -0.7691,0 -0.7908,-0.0342 -0.712,-1.11829 0.06,-0.83026 0.2275,-1.19069 0.6485,-1.39939 0.9543,-0.47303 1.4313,-0.97249 1.8221,-1.90782 0.3597,-0.86095 0.4234,-0.89261 1.6384,-0.81481 l 1.2641,0.0809 -0.092,1.15887 c -0.1075,1.34979 0.1565,1.60931 1.6431,1.6152 l 1.0216,0.004 -0.1858,0.99017 c -0.2561,1.36529 -0.2856,1.39108 -1.5929,1.39108 -0.6377,0 -1.2353,0.12286 -1.3281,0.27303 -0.3973,0.64273 -0.9213,5.31714 -0.6525,5.81949 0.3338,0.62363 1.0905,1.05123 1.8604,1.05123 0.5221,0 0.5586,0.0927 0.3902,0.99017 -0.1022,0.5446 -0.2415,1.08038 -0.3096,1.19063 -0.1957,0.31654 -1.7135,0.21249 -2.8607,-0.19611 z m -47.2232,-0.59562 c 0.01,-0.40019 0.3359,-2.9898 0.7279,-5.75469 l 0.7128,-5.02708 1.2565,-0.0806 c 0.9749,-0.0626 1.2565,0.008 1.2565,0.31512 0,0.68456 0.3975,0.68626 1.7384,0.007 1.3405,-0.67863 2.3827,-0.75703 2.3362,-0.17573 -0.015,0.1819 -0.044,0.67224 -0.066,1.08964 -0.035,0.67765 -0.1541,0.77426 -1.1081,0.90222 -2.3264,0.31203 -2.9887,1.31438 -3.5685,5.40127 -0.6212,4.37812 -0.4607,4.0501 -1.9828,4.0501 -1.2649,0 -1.3172,-0.0292 -1.3028,-0.72761 z m 25.7768,0.39687 c -0.1649,-0.45199 -2.2439,-10.6899 -2.2439,-11.05012 0,-0.18172 0.5132,-0.25887 1.3867,-0.2085 l 1.3867,0.08 0.5589,2.99075 c 0.5717,3.05878 0.9926,3.98011 1.4742,3.22695 0.1396,-0.21828 0.9661,-1.73632 1.8367,-3.37343 l 1.5829,-2.97657 h 1.2832 1.2832 l 0.7593,3.24115 c 0.5503,2.34913 0.8674,3.24115 1.1522,3.24115 0.2406,0 1.0011,-1.25586 1.9625,-3.24115 l 1.5697,-3.24115 h 1.4069 c 0.7738,0 1.4069,0.0554 1.4069,0.12307 0,0.0677 -1.2414,2.68706 -2.7586,5.82083 l -2.7585,5.69777 h -1.3053 -1.3054 l -0.7354,-3.4377 c -0.4044,-1.89073 -0.8878,-3.56426 -1.0742,-3.71895 -0.3639,-0.30201 -1.1808,1.00347 -3.1949,5.10613 l -1.0067,2.05052 h -1.2732 c -0.7778,0 -1.3201,-0.12869 -1.3939,-0.33073 z m 27.2726,-0.91183 c 0.093,-0.69904 0.6053,-4.36661 1.1377,-8.15015 l 0.9678,-6.87917 1.4232,-0.0812 1.4231,-0.0812 -0.1744,1.0902 c -0.6721,4.20327 -0.5634,4.66881 0.8957,3.83476 0.978,-0.55912 3.1418,-0.4958 4.1543,0.12158 1.7602,1.07325 1.9904,2.67074 1.1835,8.21279 l -0.443,3.04271 -1.3891,0.08 c -1.6051,0.0924 -1.5205,0.36914 -0.9954,-3.25497 0.6683,-4.61268 0.4533,-5.72505 -1.1753,-6.08277 -0.9449,-0.20753 -2.3731,0.40651 -2.8971,1.24556 -0.2016,0.3228 -0.6175,2.2576 -0.9242,4.29956 l -0.5577,3.71265 -1.3994,0.0804 -1.3995,0.0804 z m 19.4314,-14.10327 v -7.67292 h 2.9104 2.9104 v 7.67292 7.67291 h -2.9104 -2.9104 z m -16.2278,-8.64306 c -0.097,-0.097 -0.1764,-1.40443 -0.1764,-2.90537 0,-2.61057 0.026,-2.7353 0.5953,-2.87447 0.3275,-0.08 3.81,-0.11205 7.7391,-0.0712 l 7.1438,0.0743 0.075,2.97657 0.075,2.97656 h -7.6375 c -4.2006,0 -7.7169,-0.0794 -7.8139,-0.17639 z"
         id="path11892" /><path
         style="fill:#e2e8f0;fill-opacity:1;stroke-width:0.264583"
         d="m 1462.7459,665.02534 c -0.1855,-0.0749 -0.3307,-0.58827 -0.3307,-1.16973 0,-0.97879 0.045,-1.03629 0.8069,-1.03629 1.1462,0 2.2265,-0.63447 2.8796,-1.69118 l 0.5626,-0.91027 -1.4492,-5.77688 c -0.7971,-3.17728 -1.3526,-5.87381 -1.2345,-5.99229 0.1182,-0.11847 0.737,-0.178 1.3752,-0.13229 l 1.1605,0.0831 0.7322,3.04271 c 0.4027,1.67349 0.794,3.31851 0.8694,3.6556 0.2657,1.1878 0.9581,0.42782 2.8485,-3.12644 l 1.8999,-3.57187 1.121,-0.0812 c 2.1705,-0.15719 2.1916,-0.2427 -1.7781,7.20886 -2.0109,3.77469 -3.9807,7.26986 -4.3774,7.76704 -1.1449,1.4348 -3.6809,2.29801 -5.0859,1.7311 z m -72.0744,-4.82929 c -2.0968,-0.68075 -3.5003,-2.24387 -3.8906,-4.33289 -0.5768,-3.08737 1.1636,-6.22615 4.0657,-7.33263 1.3265,-0.50575 3.8661,-0.39331 5.0777,0.22483 1.0489,0.53508 2.4617,1.94439 2.4617,2.45553 0,0.14147 -0.4971,0.47978 -1.1046,0.7518 l -1.1047,0.49459 -0.7071,-0.75695 c -1.6565,-1.77324 -4.27,-1.18314 -5.5179,1.24587 -0.4116,0.80123 -0.3714,2.61165 0.077,3.47947 0.8707,1.68371 3.1797,1.94686 4.777,0.54442 0.9914,-0.87047 1.6171,-0.9012 2.6539,-0.13032 0.4916,0.36546 0.5006,0.44565 0.1265,1.12824 -0.6785,1.2381 -2.6262,2.24973 -4.5441,2.36022 -0.9173,0.0529 -1.9842,-0.007 -2.3709,-0.13218 z m 10.9848,-0.267 c -1.2519,-0.56847 -1.8502,-1.82268 -1.5734,-3.29834 0.3289,-1.75298 2.1074,-2.81646 5.5792,-3.33615 2.9509,-0.44172 3.4272,-0.96271 2.0965,-2.29337 -0.5718,-0.57182 -0.8503,-0.65893 -1.7297,-0.54098 -0.5764,0.0773 -1.4732,0.46487 -1.9929,0.86122 -0.9212,0.70264 -0.9672,0.70995 -1.8422,0.29271 -1.1224,-0.53525 -1.1312,-0.98597 -0.037,-1.90827 1.2661,-1.06766 2.4562,-1.47751 4.3211,-1.48827 2.1391,-0.0123 3.7284,0.79245 4.4394,2.24806 0.4827,0.98825 0.4812,1.08797 -0.079,5.13894 -0.3141,2.27212 -0.6319,4.22962 -0.7063,4.35 -0.1983,0.32081 -2.3311,0.26724 -2.6653,-0.0669 -0.2047,-0.20472 -0.6353,-0.16717 -1.5174,0.13229 -1.6155,0.54849 -2.9468,0.5203 -4.2928,-0.0909 z m 4.2731,-1.72402 c 1.4078,-0.58821 2.5401,-2.78773 1.6174,-3.14181 -0.4095,-0.15711 -2.2897,0.20508 -3.4302,0.66074 -1.2659,0.50582 -1.4718,2.00658 -0.3498,2.54935 0.7887,0.38149 1.1105,0.37133 2.1626,-0.0683 z m 11.1098,1.83544 c -3.88,-1.3725 -4.6641,-6.98635 -1.4117,-10.10618 0.4854,-0.46556 1.3402,-1.03738 1.8995,-1.27069 1.3593,-0.56698 3.8525,-0.55877 5.0651,0.0167 0.5973,0.2834 1.054,0.36192 1.2082,0.2077 0.1364,-0.13638 0.3856,-1.25457 0.5537,-2.48487 0.1682,-1.23031 0.4214,-2.38575 0.5628,-2.56765 0.3667,-0.47202 2.2883,-0.42743 2.4744,0.0574 0.1531,0.39901 -1.901,15.61329 -2.1659,16.04182 -0.1856,0.30026 -2.2457,0.30651 -2.7161,0.008 -0.2028,-0.12855 -0.7612,-0.0759 -1.323,0.12473 -1.263,0.45109 -2.8239,0.44085 -4.147,-0.0272 z m 4.9386,-2.94938 c 2.4272,-2.19655 1.3816,-6.44463 -1.5855,-6.44161 -2.9616,0.003 -4.9153,3.86519 -3.0666,6.06224 1.1372,1.35143 3.3762,1.53403 4.6521,0.37937 z m 10.4072,3.02775 c -2.2822,-0.79775 -3.5719,-2.76965 -3.5719,-5.46134 0,-2.67454 1.217,-4.7102 3.5276,-5.90082 1.2258,-0.63158 3.9093,-0.70572 5.2511,-0.14508 1.7883,0.74718 2.9953,2.92303 2.8178,5.07959 l -0.087,1.05834 -3.7042,0.0644 c -5.1544,0.0896 -5.3252,0.15652 -4.5787,1.79511 0.6612,1.45109 2.4652,1.8137 4.3893,0.88225 1.108,-0.53634 1.2148,-0.54339 2.068,-0.13657 0.4947,0.23595 0.8996,0.53765 0.8996,0.67045 0,0.46795 -1.8497,1.85826 -2.8371,2.13245 -1.2421,0.34494 -3.1268,0.32745 -4.1744,-0.0387 z m 4.8808,-7.46907 c 0.7079,-0.853 -0.8214,-2.26587 -2.4526,-2.26587 -0.8142,0 -1.2118,0.18588 -1.9268,0.90092 -1.4042,1.40416 -1.0637,1.74492 1.7435,1.74492 1.694,0 2.4057,-0.10259 2.6359,-0.37997 z m -67.7193,7.25939 c 0,-0.511 7.2251,-15.4823 7.6294,-15.80911 0.4418,-0.35711 3.4129,-0.45139 3.9267,-0.1246 0.274,0.17423 3.2605,14.60344 3.2605,15.7527 0,0.36323 -0.2673,0.44534 -1.4501,0.44534 -1.3339,0 -1.4612,-0.0531 -1.5875,-0.66146 -0.076,-0.3638 -0.2065,-0.98822 -0.2909,-1.38759 -0.2747,-1.29897 -0.5077,-1.39082 -3.5169,-1.38649 -1.5465,0.002 -2.9554,0.0953 -3.1307,0.20673 -0.1754,0.11148 -0.6306,0.88356 -1.0116,1.71574 l -0.6927,1.51307 h -1.5681 c -0.868,0 -1.5681,-0.11802 -1.5681,-0.26433 z m 10.307,-5.80825 c 0.3311,-0.20945 0.3378,-0.53379 0.048,-2.31105 -0.4604,-2.82298 -0.8,-4.05179 -1.1196,-4.05179 -0.3144,0 -2.8759,5.2136 -2.8815,5.86493 0,0.24253 0.145,0.50103 0.3269,0.57443 0.5772,0.23289 3.2255,0.17701 3.6263,-0.0765 z m 62.4534,5.61657 c 0,-1.22582 1.4321,-10.8313 1.6578,-11.11951 0.4249,-0.54252 1.9639,-0.40559 2.3974,0.21329 l 0.381,0.54403 0.8908,-0.54304 c 1.3346,-0.81367 3.5108,-0.7487 4.8246,0.14404 l 1.014,0.68904 1.266,-0.68904 c 1.4804,-0.80575 3.7835,-0.93723 5.0395,-0.2877 1.6328,0.84431 1.8594,2.25423 1.1779,7.32861 -0.6028,4.48924 -0.454,4.17629 -1.9853,4.17629 -1.5495,0 -1.5139,0.14303 -0.921,-3.70417 0.5582,-3.62179 0.5202,-4.3986 -0.2526,-5.1714 -0.8038,-0.80385 -1.9432,-0.8432 -2.8884,-0.0997 -1.0227,0.80449 -1.1365,1.13229 -1.6018,4.61525 -0.6274,4.69584 -0.4727,4.36007 -2.0091,4.36007 -1.5476,0 -1.5015,0.1925 -0.9178,-3.83646 0.5382,-3.71471 0.5099,-4.27347 -0.2558,-5.03911 -0.8038,-0.80385 -1.9433,-0.8432 -2.8884,-0.0997 -1.0277,0.80838 -1.1528,1.1676 -1.6122,4.6293 -0.6224,4.68975 -0.4643,4.34602 -1.9987,4.34602 -1.071,0 -1.3179,-0.0854 -1.3179,-0.45601 z m -65.883,-23.86829 c -2.1728,-0.66093 -4.1729,-2.61171 -4.8894,-4.76871 -0.6068,-1.82702 -0.4486,-4.65735 0.363,-6.49345 0.7297,-1.65094 2.4027,-3.40052 4.1313,-4.32048 1.1644,-0.61972 1.624,-0.70421 3.8364,-0.70533 1.9467,-9.8e-4 2.7224,0.10995 3.4396,0.49195 1.1862,0.63179 2.326,1.69184 2.8049,2.60863 0.3682,0.70487 0.3535,0.73231 -0.6745,1.25677 -1.3673,0.69756 -1.7131,0.67633 -2.2466,-0.13792 -1.4728,-2.24768 -5.4508,-2.28995 -7.4596,-0.0793 -2.0508,2.25683 -2.2094,6.14919 -0.3373,8.2813 0.9991,1.13798 2.2491,1.55843 4.2111,1.41651 1.8172,-0.13145 3.2731,-1.07814 3.8756,-2.52016 0.5646,-1.35136 0.1773,-1.66179 -2.0733,-1.66179 h -1.8349 l 0.081,-1.12448 0.081,-1.12448 3.677,-0.0739 3.677,-0.0739 -0.1606,1.71979 c -0.4349,4.65756 -3.6412,7.59742 -8.2159,7.53332 -0.8928,-0.0125 -1.9217,-0.11352 -2.2865,-0.22447 z m 24.608,-0.17461 c -2.1484,-0.93058 -3.4428,-2.93693 -3.4338,-5.32232 0.018,-4.80266 4.993,-7.85136 9.436,-5.78271 4.3707,2.03497 4.1253,8.41613 -0.4149,10.78794 -1.6425,0.85806 -4.0261,0.99333 -5.5873,0.31709 z m 4.4062,-2.62317 c 1.0774,-0.70592 1.6771,-1.96518 1.6782,-3.5238 8e-4,-1.19997 -0.1119,-1.52233 -0.7588,-2.16926 -0.9617,-0.96169 -1.9221,-1.20375 -3.226,-0.81311 -2.9109,0.87213 -3.5797,5.6158 -0.958,6.79527 0.9753,0.43879 2.3379,0.31813 3.2646,-0.2891 z m 30.3966,2.64843 c -2.0613,-0.73419 -2.4569,-1.99415 -1.8644,-5.9387 0.2231,-1.4853 0.3376,-2.81061 0.2544,-2.94514 -0.083,-0.13453 -0.5081,-0.2446 -0.9445,-0.2446 -0.7691,0 -0.7908,-0.0342 -0.712,-1.11829 0.06,-0.83026 0.2275,-1.19069 0.6485,-1.39939 0.9543,-0.47303 1.4313,-0.97249 1.8221,-1.90782 0.3597,-0.86095 0.4234,-0.89261 1.6384,-0.81481 l 1.2641,0.0809 -0.092,1.15887 c -0.1075,1.34979 0.1565,1.60931 1.6431,1.6152 l 1.0216,0.004 -0.1858,0.99017 c -0.2561,1.36529 -0.2856,1.39108 -1.5929,1.39108 -0.6377,0 -1.2353,0.12286 -1.3281,0.27303 -0.3973,0.64273 -0.9213,5.31714 -0.6525,5.81949 0.3338,0.62363 1.0905,1.05123 1.8604,1.05123 0.5221,0 0.5586,0.0927 0.3902,0.99017 -0.1022,0.5446 -0.2415,1.08038 -0.3096,1.19063 -0.1957,0.31654 -1.7135,0.21249 -2.8607,-0.19611 z m -47.2232,-0.59562 c 0.01,-0.40019 0.3359,-2.9898 0.7279,-5.75469 l 0.7128,-5.02708 1.2565,-0.0806 c 0.9749,-0.0626 1.2565,0.008 1.2565,0.31512 0,0.68456 0.3975,0.68626 1.7384,0.007 1.3405,-0.67863 2.3827,-0.75703 2.3362,-0.17573 -0.015,0.1819 -0.044,0.67224 -0.066,1.08964 -0.035,0.67765 -0.1541,0.77426 -1.1081,0.90222 -2.3264,0.31203 -2.9887,1.31438 -3.5685,5.40127 -0.6212,4.37812 -0.4607,4.0501 -1.9828,4.0501 -1.2649,0 -1.3172,-0.0292 -1.3028,-0.72761 z m 25.7768,0.39687 c -0.1649,-0.45199 -2.2439,-10.6899 -2.2439,-11.05012 0,-0.18172 0.5132,-0.25887 1.3867,-0.2085 l 1.3867,0.08 0.5589,2.99075 c 0.5717,3.05878 0.9926,3.98011 1.4742,3.22695 0.1396,-0.21828 0.9661,-1.73632 1.8367,-3.37343 l 1.5829,-2.97657 h 1.2832 1.2832 l 0.7593,3.24115 c 0.5503,2.34913 0.8674,3.24115 1.1522,3.24115 0.2406,0 1.0011,-1.25586 1.9625,-3.24115 l 1.5697,-3.24115 h 1.4069 c 0.7738,0 1.4069,0.0554 1.4069,0.12307 0,0.0677 -1.2414,2.68706 -2.7586,5.82083 l -2.7585,5.69777 h -1.3053 -1.3054 l -0.7354,-3.4377 c -0.4044,-1.89073 -0.8878,-3.56426 -1.0742,-3.71895 -0.3639,-0.30201 -1.1808,1.00347 -3.1949,5.10613 l -1.0067,2.05052 h -1.2732 c -0.7778,0 -1.3201,-0.12869 -1.3939,-0.33073 z m 27.2726,-0.91183 c 0.093,-0.69904 0.6053,-4.36661 1.1377,-8.15015 l 0.9678,-6.87917 1.4232,-0.0812 1.4231,-0.0812 -0.1744,1.0902 c -0.6721,4.20327 -0.5634,4.66881 0.8957,3.83476 0.978,-0.55912 3.1418,-0.4958 4.1543,0.12158 1.7602,1.07325 1.9904,2.67074 1.1835,8.21279 l -0.443,3.04271 -1.3891,0.08 c -1.6051,0.0924 -1.5205,0.36914 -0.9954,-3.25497 0.6683,-4.61268 0.4533,-5.72505 -1.1753,-6.08277 -0.9449,-0.20753 -2.3731,0.40651 -2.8971,1.24556 -0.2016,0.3228 -0.6175,2.2576 -0.9242,4.29956 l -0.5577,3.71265 -1.3994,0.0804 -1.3995,0.0804 z"
         id="path11894" /><path
         style="fill:#e2e8f0;fill-opacity:1;stroke-width:0.264583"
         d="m 1462.5843,664.73101 c -0.07,-0.11273 -0.047,-0.55922 0.051,-0.99219 0.1511,-0.67128 0.3095,-0.79357 1.0755,-0.8304 1.0894,-0.0524 2.0662,-0.73972 2.6813,-1.88679 0.4525,-0.84359 0.4401,-0.92713 -0.9585,-6.47378 -0.7792,-3.09053 -1.4199,-5.70845 -1.4236,-5.81759 0,-0.10914 0.5209,-0.19844 1.1659,-0.19844 1.346,0 1.1612,-0.34206 2.1415,3.96397 0.6799,2.98686 1.0201,3.80756 1.5104,3.64412 0.1361,-0.0453 1.1005,-1.74596 2.1431,-3.77913 l 1.8958,-3.69667 1.2567,-0.0806 c 0.803,-0.0515 1.2568,0.0269 1.2568,0.21727 0,0.42965 -6.8043,13.19303 -7.5806,14.21946 -0.3587,0.47429 -1.1167,1.09936 -1.6846,1.38906 -1.0174,0.51905 -3.2808,0.72534 -3.5303,0.32175 z m -72.4003,-4.97935 c -1.1246,-0.48709 -2.282,-1.55136 -2.8503,-2.62088 -0.6802,-1.28005 -0.5721,-3.98979 0.2161,-5.41494 1.9516,-3.52878 6.9282,-4.49115 9.5795,-1.85248 0.5457,0.5431 0.9922,1.11893 0.9922,1.27961 0,0.16069 -0.4299,0.47176 -0.9552,0.69125 -0.9212,0.3849 -0.9731,0.3763 -1.4593,-0.24187 -0.6239,-0.79307 -2.1341,-1.31737 -3.1877,-1.10665 -2.4212,0.48423 -3.7837,3.37563 -2.7531,5.84225 0.8647,2.06949 4.1086,2.33884 5.6298,0.46746 0.3236,-0.39819 1.1497,-0.31629 1.9317,0.19153 0.6444,0.41845 -0.2578,1.61091 -1.8604,2.45894 -1.594,0.84347 -3.7534,0.96845 -5.2833,0.30578 z m 11.7443,0.16252 c -0.3073,-0.12418 -0.8249,-0.56311 -1.1503,-0.97542 -0.4688,-0.59423 -0.5652,-0.985 -0.4647,-1.88486 0.2265,-2.02762 1.5932,-2.90787 5.5947,-3.6035 2.9565,-0.51397 3.3975,-1.01588 2.1581,-2.45643 -0.8836,-1.027 -2.6216,-1.0114 -3.9947,0.0359 -0.8607,0.65655 -1.0309,0.69642 -1.7324,0.40585 -1.0549,-0.43694 -0.9784,-0.90323 0.2999,-1.82927 2.1128,-1.53049 5.2038,-1.64828 7.1367,-0.27196 1.325,0.94346 1.4599,1.75857 0.935,5.64823 -0.7194,5.33048 -0.5647,4.92622 -1.8845,4.92622 -0.6729,0 -1.1807,-0.13474 -1.2464,-0.33073 -0.085,-0.25382 -0.4132,-0.22275 -1.4111,0.13361 -1.3702,0.48931 -3.302,0.58152 -4.2403,0.2024 z m 4.8698,-1.98429 c 0.9023,-0.75928 1.5127,-2.04956 1.2695,-2.68352 -0.1419,-0.36967 -0.4239,-0.41199 -1.7923,-0.26896 -2.1982,0.22975 -3.2334,0.85546 -3.346,2.02226 -0.1096,1.1364 0.4489,1.58632 1.9693,1.58632 0.806,0 1.3383,-0.18387 1.8995,-0.6561 z m 9.9655,1.74627 c -3.5933,-1.63223 -4.0261,-6.93823 -0.7972,-9.77328 1.7487,-1.53534 5.2418,-2.04506 6.6594,-0.97175 0.6455,0.48866 1.3295,0.49544 1.5138,0.015 0.08,-0.20867 0.2807,-1.36617 0.4458,-2.57222 0.1652,-1.20604 0.3575,-2.28546 0.4275,-2.39871 0.07,-0.11325 0.5965,-0.20591 1.17,-0.20591 0.9076,0 1.0427,0.0778 1.0427,0.60049 0,0.63004 -1.7542,13.5539 -2.0104,14.81149 -0.1336,0.65541 -0.2591,0.72761 -1.265,0.72761 -0.6141,0 -1.2384,-0.1218 -1.3873,-0.27066 -0.1845,-0.18449 -0.5777,-0.14237 -1.235,0.13229 -1.2929,0.54018 -3.2567,0.49958 -4.5643,-0.0944 z m 5.3298,-2.43503 c 1.0228,-0.95544 1.4281,-1.91908 1.4281,-3.3953 0,-1.10431 -0.1365,-1.48233 -0.814,-2.2539 -1.0374,-1.18158 -2.2201,-1.4348 -3.8298,-0.82003 -2.7993,1.06904 -3.4274,5.50399 -0.9753,6.88594 1.0924,0.61568 3.3234,0.39386 4.191,-0.41671 z m 9.6056,2.3165 c -1.7273,-0.91227 -2.6853,-2.59496 -2.695,-4.7339 -0.017,-3.84253 2.4633,-6.41906 6.1591,-6.39669 3.1036,0.0188 4.793,1.54572 4.9813,4.50217 l 0.1075,1.68803 h -3.7178 c -5.0943,0 -5.7578,0.33247 -4.5655,2.28782 0.9034,1.48142 3.3526,1.80374 4.8366,0.63648 0.5911,-0.46501 0.6986,-0.47171 1.482,-0.0923 1.0052,0.48684 1.0274,0.60822 0.2458,1.34257 -1.5847,1.48868 -4.786,1.84742 -6.834,0.76581 z m 5.4269,-6.42391 c 0.2391,-0.0918 0.4149,-0.4603 0.4101,-0.8599 -0.031,-2.53094 -4.1849,-2.94695 -5.4277,-0.54352 -0.659,1.27424 -0.2135,1.56402 2.4041,1.56402 1.2072,0 2.3833,-0.0723 2.6135,-0.1606 z m -67.3084,6.57675 c 0,-0.10914 1.6554,-3.65125 3.6707,-7.87136 l 3.6641,-7.67291 1.9969,-0.0769 1.997,-0.0769 0.2829,1.39981 c 0.1556,0.7699 0.8592,4.34662 1.5635,7.94826 l 1.2807,6.54843 h -1.3762 -1.3762 l -0.174,-1.31163 c -0.2626,-1.97971 -0.525,-2.12795 -3.7669,-2.12795 -1.5272,0 -2.9915,0.11496 -3.254,0.25547 -0.2625,0.1405 -0.7448,0.91441 -1.0717,1.71979 l -0.5943,1.46432 h -1.4245 c -0.7834,0 -1.4215,-0.0893 -1.418,-0.19843 z m 10.461,-5.64893 c 0.2384,-0.38571 -0.6796,-5.69554 -1.0791,-6.24192 -0.4998,-0.68342 -0.9001,-0.20129 -2.2792,2.74449 -1.7912,3.82637 -1.8007,3.78854 0.945,3.78854 1.3392,0 2.3054,-0.11655 2.4133,-0.29111 z m 62.3107,4.98747 c 0.01,-0.47295 0.3372,-3.00302 0.7276,-5.6224 l 0.7099,-4.7625 1.0124,-0.0833 c 0.8385,-0.069 1.0371,0.0105 1.1554,0.46302 0.1773,0.67801 0.4643,0.68636 1.3721,0.0399 1.4871,-1.05889 3.8591,-0.93787 4.9358,0.25182 0.5916,0.65372 1.1978,0.6584 2.0151,0.0155 0.872,-0.68593 2.7673,-1.16211 3.831,-0.96255 1.1857,0.22243 2.4101,1.30614 2.7123,2.40048 0.1782,0.64549 0.091,2.06328 -0.307,5.01008 l -0.5555,4.10983 h -1.1405 c -1.3452,0 -1.3208,0.12509 -0.7469,-3.83645 0.5417,-3.73834 0.5201,-4.02177 -0.3732,-4.91515 -0.8748,-0.87479 -1.5346,-0.95857 -2.8042,-0.35608 -1.2191,0.5785 -1.5905,1.5519 -2.1371,5.60195 l -0.4732,3.50573 h -1.1394 c -1.3467,0 -1.2969,0.304 -0.6985,-4.26491 0.4154,-3.17186 0.4146,-3.40661 -0.014,-4.06075 -0.7167,-1.09384 -1.5876,-1.37287 -2.8713,-0.91991 -1.5095,0.53266 -1.9355,1.51671 -2.4848,5.73984 l -0.456,3.50573 h -1.1439 c -1.1177,0 -1.1434,-0.0196 -1.1261,-0.85989 z m -67.0896,-23.83971 c -1.61,-0.75131 -3.0724,-2.31671 -3.7003,-3.96068 -0.6892,-1.80476 -0.4663,-5.13487 0.4655,-6.95464 0.8723,-1.70362 2.9975,-3.63233 4.6064,-4.18052 1.8842,-0.642 4.6923,-0.54928 6.3201,0.20869 1.1302,0.52629 3.0239,2.29288 3.0239,2.82095 0,0.18771 -1.7586,1.04705 -2.1427,1.04705 -0.15,0 -0.5869,-0.37337 -0.9709,-0.82972 -1.8609,-2.2116 -5.5404,-2.02539 -7.6591,0.38759 -0.8527,0.97122 -1.6627,3.11995 -1.6627,4.41088 0,2.19374 1.4921,4.60954 3.2584,5.27544 1.1292,0.42573 3.0978,0.32645 4.2932,-0.21651 0.9952,-0.45209 2.5026,-1.9047 2.5026,-2.41175 0,-0.12246 0.066,-0.39563 0.1475,-0.60705 0.296,-0.77139 -0.6245,-1.24638 -2.4154,-1.24638 h -1.7009 v -0.92604 -0.92604 h 3.4396 3.4396 v 1.16024 c 0,3.05792 -2.1488,6.19753 -4.878,7.12749 -1.942,0.6617 -4.7335,0.58322 -6.3668,-0.179 z m 25.4,0.19761 c -2.1653,-1.17765 -3.0427,-2.65801 -3.0427,-5.13338 0,-1.85004 0.5465,-3.12368 1.895,-4.41632 1.2267,-1.17583 2.5636,-1.66706 4.5372,-1.66706 2.255,0 3.7345,0.77264 4.8126,2.51334 0.6741,1.08843 0.7937,1.54712 0.7937,3.04291 0,1.49872 -0.1193,1.95438 -0.8007,3.05646 -0.4963,0.80278 -1.2932,1.59961 -2.0959,2.09592 -1.0982,0.67898 -1.6001,0.81132 -3.3003,0.87029 -1.4594,0.0506 -2.2212,-0.048 -2.7989,-0.36216 z m 4.6714,-2.1615 c 1.7288,-1.00541 2.3549,-3.93517 1.2059,-5.64269 -1.6877,-2.50798 -5.349,-1.5778 -6.3014,1.60092 -1.0112,3.37534 2.0568,5.80895 5.0955,4.04177 z m 30.4724,2.40235 c -0.8452,-0.16463 -1.9025,-1.33865 -2.0859,-2.31619 -0.088,-0.4694 0.014,-2.03363 0.2274,-3.47608 0.4232,-2.8646 0.287,-3.54867 -0.7068,-3.54867 -0.8086,0 -0.8907,-0.11771 -0.7501,-1.07586 0.076,-0.51596 0.3256,-0.89395 0.682,-1.03176 0.7375,-0.28515 1.6757,-1.32686 1.7952,-1.99342 0.077,-0.42662 0.3375,-0.54477 1.3463,-0.60968 l 1.2513,-0.0805 -0.1643,1.19822 c -0.1539,1.12336 -0.1196,1.21518 0.5495,1.46958 0.3926,0.14925 1.0037,0.27136 1.358,0.27136 0.664,0 0.7521,0.23184 0.4775,1.25677 -0.1338,0.49925 -0.3415,0.59531 -1.287,0.59531 -0.62,0 -1.2542,0.15291 -1.4093,0.3398 -0.5674,0.68359 -1.0684,5.37483 -0.6817,6.38256 0.088,0.22861 0.6236,0.54059 1.1907,0.6933 1.04,0.28005 1.2531,0.69387 0.8705,1.69082 -0.1577,0.41097 -1.2593,0.50795 -2.6633,0.23446 z m -46.6163,-5.17375 c 0.401,-2.80128 0.7353,-5.30159 0.743,-5.55625 0.011,-0.36982 0.2519,-0.46302 1.1962,-0.46302 0.8794,0 1.1475,0.0908 1.0463,0.35448 -0.075,0.19497 0.035,0.49615 0.2433,0.66929 0.303,0.2515 0.5428,0.1772 1.1925,-0.36948 0.9477,-0.79742 2.6877,-1.20146 2.682,-0.62277 -0.011,1.14136 -0.3436,1.56292 -1.3599,1.72544 -1.2038,0.19249 -2.1927,0.89347 -2.7321,1.93671 -0.2095,0.40509 -0.5881,2.24004 -0.8413,4.07768 l -0.4603,3.34115 h -1.2194 -1.2193 z m 25.0985,5.00838 c 0,-0.0467 -0.4762,-2.44926 -1.0583,-5.33911 -0.5821,-2.88985 -1.0583,-5.35198 -1.0583,-5.47141 0,-0.11942 0.5204,-0.21713 1.1564,-0.21713 h 1.1565 l 0.6295,3.24114 c 0.8516,4.38488 1.0894,4.384 3.3912,-0.0125 l 1.7035,-3.25361 1.202,0.0786 1.202,0.0786 0.5661,2.5578 c 0.9039,4.08397 0.8606,3.96789 1.4439,3.87552 0.3859,-0.0611 0.9299,-0.94561 2.0411,-3.31872 l 1.5151,-3.2354 1.2723,-0.006 c 0.6999,-0.003 1.2253,0.0835 1.1676,0.19269 -0.058,0.10914 -1.2762,2.60946 -2.7079,5.55625 l -2.6032,5.35781 h -1.1339 c -1.2952,0 -1.2414,0.11017 -2.099,-4.29803 -0.4681,-2.40617 -0.8867,-3.31787 -1.3826,-3.01136 -0.16,0.0989 -1.1385,1.78394 -2.1744,3.74459 l -1.8834,3.5648 h -1.1731 c -0.6452,0 -1.1731,-0.0382 -1.1731,-0.0848 z m 27.2533,-0.11359 c 5e-4,-0.10914 0.4769,-3.5695 1.0583,-7.68968 0.5815,-4.12019 1.0572,-7.60276 1.0572,-7.73906 0,-0.13631 0.5493,-0.24782 1.2206,-0.24782 h 1.2207 l -0.1565,1.12448 c -0.5017,3.60483 -0.5083,3.89021 -0.093,4.04949 0.2235,0.0858 0.7685,-0.0312 1.2109,-0.26004 1.6614,-0.85912 4.2522,-0.37314 5.1153,0.95952 0.7188,1.10985 0.7521,2.00848 0.2158,5.81643 -0.2923,2.07558 -0.5315,3.86633 -0.5315,3.97945 0,0.11312 -0.5358,0.20567 -1.1907,0.20567 -1.3905,0 -1.3505,0.17335 -0.7937,-3.43959 0.5215,-3.38381 0.4988,-4.29691 -0.1263,-5.09171 -0.6191,-0.78696 -1.5891,-1.02533 -2.8056,-0.68943 -1.4656,0.40466 -1.9203,1.37138 -2.4957,5.30562 -0.283,1.93503 -0.517,3.60753 -0.52,3.71667 0,0.10914 -0.5413,0.19844 -1.1962,0.19844 -0.6548,0 -1.1901,-0.0893 -1.1894,-0.19844 z"
         id="path11896" /></g></g></svg>
