<?xml version="1.0" encoding="UTF-8" standalone="no"?>
<!-- Created with Inkscape (http://www.inkscape.org/) -->

<svg
   width="135.40189mm"
   height="21.184982mm"
   viewBox="0 0 135.40189 21.184982"
   version="1.1"
   id="svg5"
   xml:space="preserve"
   xmlns="http://www.w3.org/2000/svg"
   xmlns:svg="http://www.w3.org/2000/svg"><defs
     id="defs2" /><g
     id="layer1"
     transform="translate(174.95049,-160.77815)"><g
       aria-label="Portofolio"
       id="text2687"
       style="font-weight:bold;font-size:27.5487px;line-height:1.4;font-family:'Product Sans';-inkscape-font-specification:'Product Sans Bold';letter-spacing:0px;fill:#ffffff;stroke-width:41.3232;paint-order:markers fill stroke"><path
         d="m -174.95048,181.63255 h 4.27005 v -7.43815 h 3.60888 c 4.1874,0 7.27286,-2.31409 7.27286,-6.52904 0,-4.2976 -3.03036,-6.55659 -7.27286,-6.55659 h -7.87893 z m 4.27005,-11.15722 v -5.64748 h 3.63643 c 1.79066,0 2.97526,1.12949 2.97526,2.83751 0,1.68047 -1.1846,2.80997 -2.97526,2.80997 z"
         style="font-weight:800;font-family:'Plus Jakarta Sans';-inkscape-font-specification:'Plus Jakarta Sans Ultra-Bold'"
         id="path3280" /><path
         d="m -149.79851,181.96314 c 4.1323,0 7.38305,-3.2232 7.38305,-7.65854 0,-4.38024 -3.1681,-7.63099 -7.38305,-7.63099 -4.2425,0 -7.4106,3.25075 -7.4106,7.63099 0,4.38024 3.2232,7.65854 7.4106,7.65854 z m 0,-1.62538 c -3.1681,0 -5.64748,-2.61712 -5.64748,-6.03316 0,-3.41604 2.45183,-6.00562 5.64748,-6.00562 3.1681,0 5.61993,2.58958 5.61993,6.00562 0,3.41604 -2.47938,6.03316 -5.61993,6.03316 z"
         style="font-weight:300;font-family:'Plus Jakarta Sans';-inkscape-font-specification:'Plus Jakarta Sans Light'"
         id="path3277" /><path
         d="m -139.2198,181.63255 h 4.13231 v -8.09931 c 0,-2.23145 1.37743,-3.52624 3.38849,-3.52624 h 1.29478 v -3.58133 h -0.88155 c -1.84577,0 -3.30585,0.55097 -4.07721,2.42429 v -2.259 h -3.85682 z"
         style="font-weight:800;font-family:'Plus Jakarta Sans';-inkscape-font-specification:'Plus Jakarta Sans Ultra-Bold'"
         id="path3274" /><path
         d="m -120.78971,181.79785 c 0.63362,0 1.37743,-0.0827 1.9284,-0.1653 v -3.49868 c -0.38568,0.0551 -0.71626,0.0826 -0.9642,0.0826 -1.73557,0 -2.56203,-0.74381 -2.56203,-2.28654 v -5.75768 h 3.52623 v -3.58133 h -3.52623 v -3.41604 h -4.1323 v 1.10195 c 0,1.54273 -0.85401,2.31409 -2.39674,2.31409 h -0.13774 v 3.58133 h 2.53448 v 6.03317 c 0,3.52623 2.0937,5.59239 5.73013,5.59239 z"
         style="font-weight:800;font-family:'Plus Jakarta Sans';-inkscape-font-specification:'Plus Jakarta Sans Ultra-Bold'"
         id="path3271" /><path
         d="m -108.86114,181.96314 c 4.13231,0 7.38305,-3.2232 7.38305,-7.65854 0,-4.38024 -3.1681,-7.63099 -7.38305,-7.63099 -4.2425,0 -7.4106,3.25075 -7.4106,7.63099 0,4.38024 3.2232,7.65854 7.4106,7.65854 z m 0,-1.62538 c -3.1681,0 -5.64748,-2.61712 -5.64748,-6.03316 0,-3.41604 2.45183,-6.00562 5.64748,-6.00562 3.1681,0 5.61994,2.58958 5.61994,6.00562 0,3.41604 -2.47939,6.03316 -5.61994,6.03316 z"
         style="font-weight:300;font-family:'Plus Jakarta Sans';-inkscape-font-specification:'Plus Jakarta Sans Light'"
         id="path3268" /><path
         d="m -96.464215,181.63255 h 4.132305 v -11.46026 h 3.223198 v -3.58133 h -3.223198 v -0.22039 c 0,-1.32233 0.798913,-2.01105 2.34164,-2.01105 0.275487,0 0.550974,0.0275 0.909107,0.0826 v -3.52623 c -0.385682,-0.0827 -0.991753,-0.13774 -1.460081,-0.13774 -3.746623,0 -5.922971,2.0386 -5.922971,5.59238 v 0.22039 h -2.53448 v 3.58133 h 2.53448 z"
         style="font-weight:800;font-family:'Plus Jakarta Sans';-inkscape-font-specification:'Plus Jakarta Sans Ultra-Bold'"
         id="path3265" /><path
         d="m -79.411576,181.96314 c 4.132305,0 7.383051,-3.2232 7.383051,-7.65854 0,-4.38024 -3.1681,-7.63099 -7.383051,-7.63099 -4.2425,0 -7.410601,3.25075 -7.410601,7.63099 0,4.38024 3.223198,7.65854 7.410601,7.65854 z m 0,-1.62538 c -3.168101,0 -5.647484,-2.61712 -5.647484,-6.03316 0,-3.41604 2.451834,-6.00562 5.647484,-6.00562 3.1681,0 5.619935,2.58958 5.619935,6.00562 0,3.41604 -2.479383,6.03316 -5.619935,6.03316 z"
         style="font-weight:300;font-family:'Plus Jakarta Sans';-inkscape-font-specification:'Plus Jakarta Sans Light'"
         id="path3262" /><path
         d="m -68.832859,181.63255 h 4.132305 v -20.85436 h -4.132305 z"
         style="font-weight:800;font-family:'Plus Jakarta Sans';-inkscape-font-specification:'Plus Jakarta Sans Ultra-Bold'"
         id="path3259" /><path
         d="m -61.670193,165.24108 h 4.132305 v -4.13231 h -4.132305 z m 0,16.39147 h 4.132305 v -15.04159 h -4.132305 z"
         style="font-weight:800;font-family:'Plus Jakarta Sans';-inkscape-font-specification:'Plus Jakarta Sans Ultra-Bold'"
         id="path3256" /><path
         d="m -46.931634,181.96314 c 4.132305,0 7.383052,-3.2232 7.383052,-7.65854 0,-4.38024 -3.168101,-7.63099 -7.383052,-7.63099 -4.2425,0 -7.4106,3.25075 -7.4106,7.63099 0,4.38024 3.223198,7.65854 7.4106,7.65854 z m 0,-1.62538 c -3.168101,0 -5.647484,-2.61712 -5.647484,-6.03316 0,-3.41604 2.451835,-6.00562 5.647484,-6.00562 3.168101,0 5.619935,2.58958 5.619935,6.00562 0,3.41604 -2.479383,6.03316 -5.619935,6.03316 z"
         style="font-weight:300;font-family:'Plus Jakarta Sans';-inkscape-font-specification:'Plus Jakarta Sans Light'"
         id="path3253" /></g><path
       d="m -149.79851,181.96314 c 4.1323,0 7.38305,-3.2232 7.38305,-7.65854 0,-4.38024 -3.1681,-7.63099 -7.38305,-7.63099 -4.2425,0 -7.4106,3.25075 -7.4106,7.63099 0,4.38024 3.22319,7.65854 7.4106,7.65854 z m 0,-1.62538 c -3.1681,0 -5.64749,-2.61712 -5.64749,-6.03316 0,-3.41604 2.45184,-6.00562 5.64749,-6.00562 3.1681,0 5.61993,2.58958 5.61993,6.00562 0,3.41604 -2.47938,6.03316 -5.61993,6.03316 z"
       style="font-weight:300;font-size:27.5487px;line-height:1.4;font-family:'Plus Jakarta Sans';-inkscape-font-specification:'Plus Jakarta Sans Light';letter-spacing:0px;fill:#c4f000;stroke-width:41.3232;paint-order:markers fill stroke"
       id="path3250" /><path
       d="m -108.86114,181.96314 c 4.1323,0 7.38305,-3.2232 7.38305,-7.65854 0,-4.38024 -3.1681,-7.63099 -7.38305,-7.63099 -4.2425,0 -7.4106,3.25075 -7.4106,7.63099 0,4.38024 3.2232,7.65854 7.4106,7.65854 z m 0,-1.62538 c -3.1681,0 -5.64748,-2.61712 -5.64748,-6.03316 0,-3.41604 2.45183,-6.00562 5.64748,-6.00562 3.1681,0 5.61993,2.58958 5.61993,6.00562 0,3.41604 -2.47938,6.03316 -5.61993,6.03316 z"
       style="font-weight:300;font-size:27.5487px;line-height:1.4;font-family:'Plus Jakarta Sans';-inkscape-font-specification:'Plus Jakarta Sans Light';letter-spacing:0px;fill:#f0a000;fill-opacity:1;stroke-width:41.3232;paint-order:markers fill stroke"
       id="path3247" /><path
       d="m -79.411579,181.96314 c 4.13231,0 7.38305,-3.2232 7.38305,-7.65854 0,-4.38024 -3.1681,-7.63099 -7.38305,-7.63099 -4.2425,0 -7.4106,3.25075 -7.4106,7.63099 0,4.38024 3.2232,7.65854 7.4106,7.65854 z m 0,-1.62538 c -3.1681,0 -5.64748,-2.61712 -5.64748,-6.03316 0,-3.41604 2.45183,-6.00562 5.64748,-6.00562 3.1681,0 5.61994,2.58958 5.61994,6.00562 0,3.41604 -2.47939,6.03316 -5.61994,6.03316 z"
       style="font-weight:300;font-size:27.5487px;line-height:1.4;font-family:'Plus Jakarta Sans';-inkscape-font-specification:'Plus Jakarta Sans Light';letter-spacing:0px;fill:#f02800;fill-opacity:1;stroke-width:41.3232;paint-order:markers fill stroke"
       id="path3244" /><path
       d="m -46.931639,181.96314 c 4.13231,0 7.38305,-3.2232 7.38305,-7.65854 0,-4.38024 -3.1681,-7.63099 -7.38305,-7.63099 -4.2425,0 -7.4106,3.25075 -7.4106,7.63099 0,4.38024 3.2232,7.65854 7.4106,7.65854 z m 0,-1.62538 c -3.1681,0 -5.64748,-2.61712 -5.64748,-6.03316 0,-3.41604 2.45183,-6.00562 5.64748,-6.00562 3.1681,0 5.61994,2.58958 5.61994,6.00562 0,3.41604 -2.47939,6.03316 -5.61994,6.03316 z"
       style="font-weight:300;font-size:27.5487px;line-height:1.4;font-family:'Plus Jakarta Sans';-inkscape-font-specification:'Plus Jakarta Sans Light';letter-spacing:0px;fill:#f00080;fill-opacity:1;stroke-width:41.3232;paint-order:markers fill stroke"
       id="path3241" /></g></svg>
